<?xml version="1.0" encoding="utf-8"?>
<!-- Generator: Adobe Illustrator 24.0.1, SVG Export Plug-In . SVG Version: 6.00 Build 0)  -->
<svg version="1.1" id="Layer_1" xmlns="http://www.w3.org/2000/svg" xmlns:xlink="http://www.w3.org/1999/xlink" x="0px" y="0px"
	 viewBox="0 0 244 65" style="enable-background:new 0 0 244 65;" xml:space="preserve">
<style type="text/css">
	.st0{fill:url(#SVGID_1_);}
	.st1{fill:#FFFFFF;}
</style>
<linearGradient id="SVGID_1_" gradientUnits="userSpaceOnUse" x1="2651.6482" y1="-1764.6068" x2="3668.6824" y2="-1764.6068" gradientTransform="matrix(0.2399 0 0 -0.2407 -636.1861 -369.0554)">
	<stop  offset="5.300000e-03" style="stop-color:#E9E9F4"/>
	<stop  offset="4.570000e-02" style="stop-color:#DBE4ED"/>
	<stop  offset="0.1225" style="stop-color:#B5D6DB"/>
	<stop  offset="0.2277" style="stop-color:#78C0BD"/>
	<stop  offset="0.3562" style="stop-color:#24A295"/>
	<stop  offset="0.4086" style="stop-color:#009583"/>
	<stop  offset="0.9785" style="stop-color:#009583"/>
</linearGradient>
<path class="st0" d="M0,46.5h244V65H0V46.5z"/>
<path class="st1" d="M90.8,59c-0.2-0.4-0.1-0.4-0.2-0.8c-0.1-0.4-0.3-0.4-0.2-0.8c0.1-0.4,0.3-0.6,0.2-0.9c-0.1-0.3-0.3-0.3-0.5-0.7
	c-0.2-0.3-0.3-0.5-0.4-0.8c-0.1-0.3,0-0.4-0.4-0.4s-0.2-0.1-0.2,0.3c0,0.4-0.1,0.4-0.2,0.8s-0.3,0.5-0.6,0.5c-0.3,0-0.6,0-0.9,0.1
	c-0.3,0-0.2,0.1-0.6-0.1s-0.1-0.5-0.7-0.5c-0.6,0.1-0.6,0.1-0.9,0c-0.4-0.1-0.3-0.2-0.6-0.2c-0.3,0-0.4,0.2-0.3,0.3
	c0.2,0.2,0.4,0.4,0.6,0.5c0.4,0.2,0.7,0.4,1,0.6c0.3,0.2,0.6,0.3,0.9,0.6c0.2,0.2,0.5,0.4,0.8,0.5c0,0,0,0.3,0,0.7
	c0,0.4,0.1,0.8,0.1,0.8L88,60c0,0,0.4,0.5,0.6,0.4c0.2-0.1,0.4-0.4,0.6-0.2c0.2,0.1,0.3,0.5,0.6,0.4c0.3-0.1,0.8-0.2,0.9-0.6
	C90.7,59.7,91,59.3,90.8,59z"/>
<path class="st1" d="M41.1,53.1c0,0,0.6-0.4,0.9-0.3c0.3,0.1,0.6,0.2,0.6,0.2s-0.6,0.6-0.4,0.8s0.6,0,0.8,0.2
	c0.2,0.1,0.6,0.3,0.5-0.1c-0.1-0.4-0.1-0.5,0.4-0.7c0.5-0.2,2.2-0.9,2.8-0.6c0.6,0.2,1.5,0.5,2,0.7c0.5,0.2,1.1,0.4,1.6,0.1
	c0.2-0.1,0.4-0.2,0.6-0.3l0,0c0.3-0.2,0.5-0.3,0.6-0.4c0.2-0.1,0.6-0.3,0.8-0.5s0-0.1-0.1-0.5c-0.1-0.3,0-0.2,0.3-0.4
	c0.3-0.2,0.3-0.4,0.7-0.6s0.4-0.4,0.8-0.3c0.4,0.1,0.5-0.1,1,0c0.4,0.1,0.8,0.1,1.2,0c0.8-0.1,1.7,0,1-0.6c-0.7-0.6-1.2-0.6-1.8-0.7
	c-0.7-0.1-0.9,0-1.1-0.2c-0.2-0.2-0.6-0.2-0.5-0.6c0.1-0.4,0-0.5-0.6-0.5c-0.6,0.1-1.7,0-2.4,0.1c-0.4,0.1-1.7,0.5-2.6,0.9l0,0
	c-0.5,0.2-0.9,0.3-1.1,0.4c-0.5,0.2-2.2,0.3-2.3,0.8c-0.1,0.5,0,0.7,0,1.2s-0.2,0.8-0.6,0.9c-0.4,0.1-0.6,0.5-1,0.1
	c-0.4-0.4-0.3-1.2-1.1-0.9S41.1,51.6,41,52S40.6,52.6,41.1,53.1z"/>
<path class="st1" d="M36.1,63.8c-0.5,0.2-0.4,0.3-0.6,0.4c-0.3,0.1-0.6,0.7-0.6,0.7s0.9-0.2,1.4-0.3c0.4-0.1,0.7-0.4,0.7-0.8
	C37,63.5,36.6,63.6,36.1,63.8z"/>
<path class="st1" d="M41.1,61.3c0.4-0.2,0-0.4,0-0.7c-0.1-0.2-0.2-0.3-0.4-0.4c0,0-0.2,0.6-0.3,0.8s-0.3,0.2-0.6,0.5
	c-0.2,0.2-0.5,0.4-0.8,0.5c-0.2,0.1-0.4,0.3-0.4,0.5c0.1,0.1,0.3,0.2,0.4,0.2c0.3,0.1,1-0.6,1.5-1C40.6,61.6,40.9,61.4,41.1,61.3z"
	/>
<path class="st1" d="M43.5,57.6c-0.2,0-0.3,0.5-0.5,0.9s-0.1,0.4-0.4,0.9c-0.4,0.4-0.1,0.5-0.1,1c0,0.5,0.1,0.4,0.1,0.4
	c0.2,0,0.5,0,0.6-0.2c0.4-0.3,0.2-0.2,0.3-0.5c0.1-0.3,0.1-0.7,0-1c-0.1-0.5,0.1-0.5,0.3-0.9C44,57.6,43.7,57.6,43.5,57.6z"/>
<path class="st1" d="M40.4,56.8c-0.1-0.5-0.1-0.7,0.1-1.1c0.3-0.4,0.3-0.4,0.7-0.5c0.4-0.1,0.6-0.5,0.3-0.6c0,0-0.6-0.1-0.9,0.1
	c-0.4,0.3-0.8,0.6-0.9,1c-0.1,0.4-0.3,0.6-0.1,0.9C39.9,57.1,40.5,57.2,40.4,56.8z"/>
<path class="st1" d="M38.6,53.6c-0.4-0.2-0.5-0.3,0-0.3c0.6,0,0.4-0.1-0.1-0.4s-0.7-0.1-0.9-0.6c-0.2-0.5-0.5-0.7-0.4,0
	c0,0.3,0,0.6,0.2,0.8c0.3,0.3,0.2,0.6,0.6,0.8c0.3,0.1,0.4,0.2,0.6,0.2C38.8,54.1,38.9,53.8,38.6,53.6z"/>
<path class="st1" d="M37.2,59.2c0.1-0.4-0.4-0.2-0.7-0.6c-0.3-0.4-0.4-0.2-0.7-0.3c-0.2-0.1-0.4-0.1-0.6-0.2c-0.4,0-0.6,0.1-1.1,0.3
	s-0.5,0.1-0.7-0.2c-0.2-0.3,0.4-0.8,0.4-1.1c0-0.2,0.3-0.5,0.5-0.7c0.2-0.2,0.5-0.8,0.8-1.1s0-1.2,0-1.2l-0.2,0.3
	c-0.1,0.2-0.3,0.5-0.4,0.8c-0.1,0.3,0.1,0.3-0.2,0.7c-0.2,0.4-0.4,0.4-0.8,0.8c-0.4,0.4-0.3,0.6-0.6,1.2c-0.3,0.6,0.1,0.5,0.3,0.8
	c0.2,0.3,0.3,0.2,0.4,0.6c0.1,0.2,0.1,0.5,0.1,0.8c0,0.3,0.3,0.4,0.6,0.9c0.3,0.5,0.5,0.1,0.9,0.1c0.5,0,0.4-0.4,0.3-0.9
	c-0.1-0.6-0.1-0.2-0.2-0.3c-0.2-0.2-0.2-0.4-0.1-0.6c0.2-0.4,0.5,0.1,0.9,0.3c0.4,0.2,0.2,0.2,0.2,0.4c0,0.3,0.2,0.1,0.6,0
	C37.5,59.7,37.1,59.6,37.2,59.2z"/>
<path class="st1" d="M27.6,63.5c0.4-0.2,0.1-0.1,0.6,0.1c0.5,0.2,0.4,0.2,0.9,0c0.4-0.2,0.6-0.4,0.9-0.5c0.1-0.1,0.3-0.2,0.5-0.2
	c0.4-0.1,0.1-0.3,0.5-0.6c0.4-0.2,0.2-0.4,0.7-0.2c0.5,0.2,0.5,0.3,0.8,0s0.6-0.3,0.2-0.5s-0.2,0.1-0.5-0.4
	c-0.4-0.5-0.7-0.6-0.4-0.8c0.3-0.2,0.6-0.1,0.5-0.5c-0.1-0.3-0.2-0.5-0.2-0.8c-0.1-0.4-0.1-0.3-0.3-0.7c-0.2-0.4-0.3-0.3-0.2-0.6
	c0.1-0.3,0.3-0.6,0.2-0.9c-0.1-0.2-0.2-0.3-0.7-0.3c-0.5,0-0.8,0.3-1-0.1c-0.2-0.4-0.3-0.5-0.1-0.6c0.2-0.2,0.6,0,0.6-0.4
	c0-0.4,0-0.3-0.3-0.4s-0.5-0.2-0.3-0.4c0.2-0.2,0.6-0.2,0.2-0.5s-0.4-0.3-0.7-0.2c-0.3,0.1-0.3,0.2-0.7,0.2c-0.3,0-0.6,0.1-0.9,0.3
	c-0.4,0.2-0.6,0.2-0.5,0.9c0.1,0.7-0.3,1.9-0.5,2.3c-0.2,0.4,0.1,0.6-0.2,1.3c-0.2,0.7-0.5,1.6-0.4,1.9s-0.6,0.2-0.6,0.7
	c0,0.3-0.1,0.6-0.2,0.9c0,0-0.1,0.2,0.3,0.5s0.5,0.1,0.9,0.2C27,63.3,27.2,63.7,27.6,63.5z"/>
<path class="st1" d="M30.9,50.4c-0.1,0.1-0.2,0.2-0.3,0.2c-0.2,0.1-0.1,0.4-0.1,0.7c-0.1,0.3,0.3,0.5,0.3,0.5s0.6,0.1,0.8-0.1
	c0.2-0.2,0.8-0.2,1.3-0.1c0.3,0.1,0.6,0.1,0.9,0c0.4-0.1,0.4-0.4,0.1-0.7c-0.2-0.4-0.2-0.5,0.1-0.5c0.3-0.1-0.2-0.6-0.5-0.9
	c-0.4-0.4-0.6-0.4-0.8-0.7c-0.2-0.3-0.3-0.1-0.4-0.4c-0.2-0.3-0.4,0.1-0.4,0.1l-0.1,0.4v0.3c0,0.2,0,0.3,0,0.5
	c0,0.3-0.2,0.2-0.2,0.5c0,0.3-0.2,0-0.4-0.2C30.8,49.8,30.9,50.4,30.9,50.4z"/>
<path class="st1" d="M30.4,48.2c0.2,0.4,0.3,0.7,0.4,0.5c0.2-0.2,0.1-0.2,0.4-0.4c0.3-0.1,0.1-0.1,0.1-0.5c0-0.4,0.2-0.3,0-0.7
	c-0.2-0.4-0.1-0.5-0.5-0.4c-0.2,0-0.3,0.1-0.5,0.2c0,0-0.6,0.2-0.3,0.6C30.3,47.9,30.1,47.7,30.4,48.2z"/>
<path class="st1" d="M30.4,50.5c0.2-0.2,0.2-0.4,0.1-0.6c-0.1-0.2,0.1-0.4,0.1-0.7c0-0.3-0.4-0.3-0.4-0.3L30,49.3
	c0,0-0.1,0.4-0.1,0.7c0,0.4,0,0.4,0,0.7C29.9,51,30.3,50.7,30.4,50.5z"/>
<path class="st1" d="M28.7,48.9c-0.2,0.3-0.3,0.3-0.1,0.6c0.1,0.2,0.2,0.3,0.4,0.4c0,0,0.2-0.1,0.3-0.4c0.1-0.3,0.1-0.2,0.1-0.7
	c0.1-0.4-0.1-0.2-0.3-0.4C29,48.3,28.9,48.7,28.7,48.9z"/>
<path class="st1" d="M27.5,49.9c-0.2-0.3-0.2,0.1-0.3,0.3c-0.1,0.2-0.1,0.4,0,0.8c0.1,0.4-0.1,0.4-0.1,0.7c-0.1,0.4-0.1,0.7-0.2,1
	c0,0.1,0,0.2,0.1,0.3c0.1,0.1,0.1,0.1,0.2,0.1c0.2-0.2,0.4-0.5,0.5-0.8c0.1-0.5,0.1-0.4-0.1-0.8c-0.1-0.5,0.3-0.6,0.3-1
	C27.9,50.1,27.7,50.2,27.5,49.9z"/>
<path class="st1" d="M16.5,50.5c-0.3,0.4,0.1,0.3,0.4,0.6c0.3,0.3,0.3-0.1,0.8-0.3s0.3-0.2,0.5-0.6s-0.1-0.3-0.1-0.7
	c0.1-0.4,0-0.5-0.2-0.8c-0.2-0.2-0.5,0.1-0.7,0.3S17,49.4,17,49.4L17,49.8C16.8,50.1,16.7,50.3,16.5,50.5z"/>
<path class="st1" d="M71.5,50.4c0.2-0.1,0.4-0.1,0.6-0.1c0.3,0.1,0.5,0,0.7,0c0.3,0,0.4,0,0.5-0.2c0.1-0.2,0.1-0.4-0.2-0.5
	c-0.3,0-0.6,0-0.8,0c-0.4,0-0.5-0.1-0.9,0.1c-0.4,0.1-0.8,0.3-0.8,0.5C70.6,50.4,71.3,50.5,71.5,50.4z"/>
<path class="st1" d="M104.8,56.1c0.4,0.1,0.8,0.3,1.2,0.5c0.4,0.3,0.5,0.8,0.5,1.2c0,0.4-0.1,0.8-0.4,1.1c-0.2,0.3-0.6,0.6-1,0.8
	c-0.6,0.2-1.2,0.3-1.9,0.2h-3.5v-0.2h0.3c0.3,0,0.5-0.1,0.7-0.3c0.1-0.3,0.2-0.5,0.1-0.8v-4.9c0-0.5-0.1-0.8-0.2-0.9
	c-0.2-0.2-0.4-0.3-0.6-0.2h-0.3v-0.2h3.2c0.5,0,1,0,1.5,0.1c0.5,0.1,0.9,0.3,1.3,0.7c0.3,0.3,0.4,0.7,0.4,1.2c0,0.4-0.1,0.7-0.3,1
	C105.5,55.8,105.2,56,104.8,56.1z M101.9,55.8c0.2,0,0.3,0,0.5,0.1c0.2,0,0.4,0,0.6,0c0.4,0,0.8,0,1.2-0.2c0.3-0.1,0.5-0.3,0.6-0.5
	s0.2-0.5,0.2-0.8c0-0.4-0.2-0.9-0.5-1.1c-0.4-0.3-0.9-0.5-1.6-0.5c-0.3,0-0.7,0-1,0.1L101.9,55.8z M101.9,59.4
	c0.4,0.1,0.8,0.1,1.3,0.2c0.7,0,1.2-0.2,1.5-0.5c0.3-0.3,0.5-0.7,0.5-1.1c0-0.3-0.1-0.6-0.2-0.8c-0.2-0.3-0.5-0.5-0.8-0.6
	c-0.4-0.2-0.9-0.2-1.3-0.2c-0.2,0-0.4,0-0.6,0c-0.1,0-0.3,0-0.4,0V59.4z"/>
<path class="st1" d="M111.9,54.9v3.1c0,0.4,0,0.7,0,1.1c0,0.1,0.1,0.2,0.1,0.3c0.1,0.1,0.1,0.1,0.2,0.1c0.1,0,0.3,0,0.4-0.1l0.1,0.2
	l-1.5,0.6H111V59c-0.3,0.3-0.6,0.6-1,0.9c-0.2,0.1-0.5,0.2-0.7,0.2c-0.3,0-0.5-0.1-0.7-0.2c-0.2-0.2-0.4-0.4-0.4-0.6
	c-0.1-0.4-0.1-0.7-0.1-1.1v-2.3c0-0.2,0-0.3-0.1-0.5c-0.1-0.1-0.1-0.2-0.2-0.2c-0.2-0.1-0.4-0.1-0.6-0.1v-0.2h1.8v3.4
	c0,0.5,0.1,0.8,0.2,0.9c0.2,0.1,0.4,0.2,0.6,0.2c0.2,0,0.4-0.1,0.5-0.2c0.3-0.2,0.5-0.3,0.7-0.6v-2.9c0-0.2,0-0.4-0.2-0.6
	c-0.2-0.1-0.4-0.2-0.7-0.2v-0.2H111.9z"/>
<path class="st1" d="M116.4,54.7v1.7h-0.2c-0.1-0.4-0.3-0.8-0.5-1.1c-0.2-0.2-0.5-0.3-0.8-0.3c-0.2,0-0.4,0.1-0.6,0.2
	c-0.1,0.1-0.2,0.3-0.2,0.5c0,0.2,0.1,0.4,0.2,0.5c0.2,0.2,0.4,0.4,0.7,0.5l0.8,0.4c0.7,0.4,1.1,0.9,1.1,1.4c0,0.4-0.2,0.9-0.5,1.1
	c-0.3,0.3-0.7,0.4-1.2,0.4c-0.4,0-0.7-0.1-1.1-0.2c-0.1,0-0.2-0.1-0.3-0.1c-0.1,0-0.2,0.1-0.2,0.1h-0.2v-1.8h0.2
	c0.1,0.4,0.3,0.9,0.6,1.2c0.3,0.2,0.6,0.4,1,0.4c0.2,0,0.4-0.1,0.6-0.2c0.2-0.1,0.2-0.3,0.2-0.5c0-0.2-0.1-0.5-0.3-0.6
	c-0.3-0.3-0.7-0.5-1.1-0.7c-0.4-0.2-0.8-0.4-1.1-0.7c-0.2-0.2-0.3-0.5-0.2-0.8c0-0.4,0.1-0.8,0.4-1c0.3-0.3,0.7-0.4,1.1-0.4
	c0.2,0,0.5,0.1,0.7,0.1c0.1,0,0.2,0.1,0.4,0.1c0,0,0.1,0,0.1,0c0.1-0.1,0.1-0.1,0.1-0.2H116.4z"/>
<path class="st1" d="M119.3,54.7v4.1c0,0.2,0,0.4,0.1,0.6c0,0.1,0.1,0.2,0.2,0.2c0.2,0.1,0.3,0.1,0.5,0.1v0.2h-2.5v-0.2
	c0.2,0,0.3,0,0.5-0.1c0.1-0.1,0.2-0.1,0.2-0.2c0.1-0.2,0.1-0.4,0.1-0.6v-2c0-0.4,0-0.7-0.1-1.1c0-0.1-0.1-0.2-0.1-0.2
	c-0.1,0-0.1-0.1-0.2-0.1c-0.1,0-0.3,0-0.4,0.1l-0.1-0.2l1.5-0.6H119.3z M118.8,52c0.1,0,0.3,0.1,0.4,0.2s0.2,0.2,0.2,0.4
	c0,0.2-0.1,0.3-0.2,0.4c-0.1,0.1-0.2,0.2-0.4,0.2c-0.3,0-0.6-0.2-0.6-0.6S118.5,52,118.8,52z"/>
<path class="st1" d="M122.2,55.8c0.6-0.7,1.2-1.1,1.7-1.1c0.2,0,0.5,0.1,0.7,0.2c0.2,0.2,0.4,0.4,0.5,0.7c0.1,0.3,0.1,0.7,0.1,1v2.2
	c0,0.2,0,0.4,0.1,0.7c0,0.1,0.1,0.2,0.2,0.2c0.2,0.1,0.3,0.1,0.5,0.1v0.2h-2.5v-0.2h0.1c0.2,0,0.3,0,0.5-0.1
	c0.1-0.1,0.2-0.2,0.2-0.3c0-0.2,0-0.3,0-0.5v-2.1c0-0.3,0-0.7-0.2-1c-0.1-0.2-0.4-0.3-0.6-0.3c-0.4,0-0.9,0.2-1.3,0.7v2.7
	c0,0.2,0,0.4,0.1,0.6c0,0.1,0.1,0.2,0.2,0.2c0.2,0.1,0.4,0.1,0.6,0.1v0.2h-2.5v-0.2h0.1c0.2,0,0.4,0,0.5-0.2
	c0.1-0.2,0.2-0.5,0.1-0.8v-1.9c0-0.4,0-0.7,0-1.1c0-0.1-0.1-0.2-0.1-0.3c-0.1-0.1-0.1-0.1-0.2-0.1c-0.1,0-0.3,0-0.4,0.1l-0.1-0.2
	l1.5-0.6h0.2V55.8z"/>
<path class="st1" d="M127.2,56.8c0,0.6,0.2,1.3,0.5,1.8c0.3,0.4,0.8,0.6,1.3,0.6c0.3,0,0.6-0.1,0.9-0.3c0.3-0.2,0.5-0.6,0.6-0.9
	l0.2,0.1c-0.1,0.5-0.3,1-0.7,1.4c-0.3,0.4-0.9,0.6-1.4,0.6c-0.6,0-1.2-0.3-1.6-0.7c-0.5-0.5-0.7-1.2-0.6-1.9c0-0.9,0.2-1.5,0.7-2
	c0.4-0.5,1-0.7,1.7-0.7c0.5,0,1,0.2,1.4,0.6c0.4,0.4,0.6,1,0.5,1.5H127.2z M127.2,56.4h2.3c0-0.2,0-0.5-0.1-0.7
	c-0.1-0.2-0.2-0.4-0.4-0.5c-0.2-0.1-0.4-0.2-0.6-0.2c-0.3,0-0.6,0.1-0.8,0.4C127.4,55.7,127.2,56.1,127.2,56.4z"/>
<path class="st1" d="M134.6,54.7v1.7h-0.2c-0.1-0.4-0.3-0.8-0.5-1.1c-0.2-0.2-0.5-0.3-0.8-0.3c-0.2,0-0.4,0.1-0.6,0.2
	c-0.1,0.1-0.2,0.3-0.2,0.5c0,0.2,0.1,0.4,0.2,0.5c0.2,0.2,0.4,0.4,0.7,0.5l0.8,0.4c0.7,0.4,1.1,0.9,1.1,1.4c0,0.4-0.2,0.9-0.5,1.1
	c-0.3,0.3-0.7,0.4-1.2,0.4c-0.4,0-0.7-0.1-1.1-0.2c-0.1,0-0.2-0.1-0.3-0.1c-0.1,0-0.2,0.1-0.2,0.1h-0.2v-1.8h0.2
	c0.1,0.4,0.3,0.9,0.6,1.2c0.3,0.2,0.6,0.4,1,0.4c0.2,0,0.4-0.1,0.6-0.2c0.2-0.1,0.2-0.3,0.2-0.5c0-0.2-0.1-0.5-0.3-0.6
	c-0.3-0.3-0.7-0.5-1.1-0.7c-0.4-0.2-0.8-0.4-1.1-0.7c-0.2-0.2-0.3-0.5-0.2-0.8c0-0.4,0.1-0.8,0.4-1c0.3-0.3,0.7-0.4,1.1-0.4
	c0.2,0,0.5,0.1,0.7,0.1c0.1,0,0.2,0.1,0.4,0.1c0.1,0,0.1,0,0.1,0c0.1-0.1,0.1-0.1,0.1-0.2H134.6z"/>
<path class="st1" d="M139.1,54.7v1.7h-0.2c-0.1-0.4-0.3-0.8-0.5-1.1c-0.2-0.2-0.5-0.3-0.8-0.3c-0.2,0-0.4,0.1-0.6,0.2
	c-0.1,0.1-0.2,0.3-0.2,0.5c0,0.2,0.1,0.4,0.2,0.5c0.2,0.2,0.4,0.4,0.7,0.5l0.8,0.4c0.8,0.4,1.1,0.9,1.1,1.4c0,0.4-0.2,0.9-0.5,1.1
	c-0.3,0.3-0.7,0.4-1.2,0.4c-0.4,0-0.7-0.1-1.1-0.2c-0.1,0-0.2-0.1-0.3-0.1c-0.1,0-0.2,0.1-0.2,0.1H136v-1.8h0.2
	c0.1,0.4,0.3,0.9,0.6,1.2c0.3,0.2,0.6,0.4,1,0.4c0.2,0,0.5-0.1,0.6-0.2c0.2-0.1,0.2-0.3,0.2-0.5c0-0.2-0.1-0.5-0.3-0.6
	c-0.3-0.3-0.7-0.5-1.1-0.7c-0.4-0.2-0.8-0.4-1.1-0.7c-0.2-0.2-0.3-0.5-0.2-0.8c0-0.4,0.1-0.8,0.4-1c0.3-0.3,0.7-0.4,1.1-0.4
	c0.2,0,0.5,0.1,0.7,0.1c0.1,0,0.2,0.1,0.4,0.1c0.1,0,0.1,0,0.1,0c0-0.1,0.1-0.1,0.1-0.2H139.1z"/>
<path class="st1" d="M145,56.4v2.2c0,0.5,0.1,0.8,0.2,0.9c0.2,0.2,0.4,0.3,0.6,0.2h0.3v0.2h-3.2v-0.2h0.3c0.3,0,0.5-0.1,0.7-0.3
	c0.1-0.3,0.1-0.5,0.1-0.8v-4.9c0-0.5-0.1-0.8-0.1-0.9c-0.2-0.2-0.4-0.3-0.6-0.2h-0.3v-0.2h2.8c0.5,0,1.1,0.1,1.6,0.2
	c0.4,0.1,0.7,0.4,1,0.7c0.3,0.3,0.4,0.7,0.4,1.2c0,0.6-0.2,1.1-0.6,1.5c-0.4,0.4-1,0.6-1.7,0.6c-0.2,0-0.4,0-0.6,0
	C145.5,56.5,145.2,56.5,145,56.4z M145,56.1c0.2,0,0.4,0.1,0.5,0.1c0.1,0,0.3,0,0.4,0c0.4,0,0.7-0.2,1-0.4c0.3-0.3,0.4-0.7,0.4-1.2
	c0-0.3-0.1-0.6-0.2-0.9c-0.1-0.3-0.3-0.5-0.6-0.6c-0.3-0.1-0.5-0.2-0.8-0.2c-0.2,0-0.5,0-0.7,0.1V56.1z"/>
<path class="st1" d="M150.8,54.7v1.1c0.4-0.8,0.9-1.1,1.3-1.1c0.2,0,0.4,0.1,0.5,0.2c0.1,0.1,0.2,0.3,0.2,0.4c0,0.1,0,0.3-0.1,0.4
	c-0.1,0.1-0.2,0.2-0.3,0.1c-0.2,0-0.3-0.1-0.4-0.2c-0.1-0.1-0.2-0.2-0.4-0.2c-0.1,0-0.2,0.1-0.2,0.1c-0.2,0.2-0.4,0.5-0.5,0.8v2.4
	c0,0.2,0,0.4,0.1,0.6c0.1,0.1,0.1,0.2,0.3,0.2c0.2,0.1,0.3,0.1,0.5,0.1v0.2h-2.6v-0.2c0.2,0,0.4,0,0.6-0.1c0.1-0.1,0.2-0.2,0.2-0.3
	c0-0.2,0-0.4,0-0.5v-2c0-0.4,0-0.7,0-1.1c0-0.1-0.1-0.2-0.1-0.2c-0.1-0.1-0.2-0.1-0.2-0.1c-0.1,0-0.3,0-0.4,0.1l-0.1-0.2l1.5-0.6
	H150.8z"/>
<path class="st1" d="M155.6,54.7c0.7,0,1.4,0.3,1.8,0.9c0.4,0.5,0.6,1.1,0.6,1.7c0,0.5-0.1,0.9-0.3,1.4c-0.4,0.9-1.2,1.4-2.2,1.4
	c-0.7,0-1.4-0.3-1.8-0.9c-0.4-0.5-0.6-1.1-0.6-1.7c0-0.5,0.1-1,0.3-1.4c0.2-0.4,0.5-0.8,0.9-1C154.7,54.8,155.2,54.7,155.6,54.7z
	 M155.4,55.1c-0.2,0-0.4,0.1-0.6,0.2c-0.2,0.1-0.4,0.4-0.5,0.6c-0.1,0.4-0.2,0.7-0.2,1.1c0,0.7,0.1,1.3,0.4,1.9
	c0.3,0.5,0.7,0.8,1.2,0.8c0.4,0,0.7-0.2,0.9-0.4c0.2-0.3,0.3-0.8,0.3-1.5c0-0.9-0.2-1.6-0.6-2.1C156.2,55.3,155.8,55.1,155.4,55.1z"
	/>
<path class="st1" d="M163.1,58c-0.1,0.6-0.4,1.1-0.8,1.5c-0.4,0.3-0.8,0.5-1.3,0.5c-0.6,0-1.1-0.3-1.5-0.7c-0.4-0.6-0.7-1.2-0.6-2
	c0-0.7,0.2-1.4,0.7-1.9c0.4-0.5,1.1-0.8,1.7-0.7c0.4,0,0.9,0.1,1.2,0.4c0.3,0.2,0.5,0.5,0.5,0.8c0,0.1,0,0.3-0.1,0.3
	c-0.1,0.1-0.2,0.1-0.4,0.1c-0.2,0-0.4-0.1-0.5-0.2c-0.1-0.1-0.1-0.3-0.1-0.4c0-0.2-0.1-0.4-0.2-0.5c-0.2-0.1-0.3-0.2-0.5-0.2
	c-0.3,0-0.7,0.1-0.9,0.4c-0.3,0.4-0.5,0.9-0.4,1.4c0,0.6,0.1,1.1,0.4,1.6c0.2,0.4,0.7,0.7,1.2,0.7c0.4,0,0.7-0.1,1-0.4
	c0.3-0.3,0.5-0.6,0.6-0.9L163.1,58z"/>
<path class="st1" d="M164.6,56.8c0,0.6,0.2,1.3,0.5,1.8c0.3,0.4,0.8,0.6,1.3,0.6c0.3,0,0.6-0.1,0.9-0.3c0.3-0.2,0.5-0.6,0.6-0.9
	l0.2,0.1c-0.1,0.5-0.3,1-0.7,1.4c-0.4,0.4-0.9,0.6-1.4,0.6c-0.6,0-1.2-0.3-1.6-0.7c-0.5-0.5-0.7-1.2-0.6-1.9c0-0.9,0.2-1.5,0.7-2
	c0.4-0.5,1-0.7,1.7-0.7c0.5,0,1,0.2,1.4,0.6c0.4,0.4,0.6,1,0.5,1.5H164.6z M164.6,56.4h2.3c0-0.2,0-0.5-0.1-0.7
	c-0.1-0.2-0.2-0.4-0.4-0.5c-0.2-0.1-0.4-0.2-0.6-0.2c-0.3,0-0.6,0.1-0.8,0.4C164.8,55.7,164.7,56.1,164.6,56.4z"/>
<path class="st1" d="M172.1,54.7v1.7h-0.2c-0.1-0.4-0.3-0.8-0.5-1.1c-0.2-0.2-0.5-0.3-0.8-0.3c-0.2,0-0.4,0.1-0.6,0.2
	c-0.1,0.1-0.2,0.3-0.2,0.5c0,0.2,0.1,0.4,0.2,0.5c0.2,0.2,0.4,0.4,0.7,0.5l0.8,0.4c0.7,0.4,1.1,0.9,1.1,1.4c0,0.4-0.2,0.9-0.5,1.1
	c-0.3,0.3-0.7,0.4-1.2,0.4c-0.4,0-0.7-0.1-1.1-0.2c-0.1,0-0.2-0.1-0.3-0.1c-0.1,0-0.2,0.1-0.2,0.1H169v-1.8h0.2
	c0.1,0.4,0.3,0.9,0.6,1.2c0.3,0.2,0.6,0.4,1,0.4c0.2,0,0.4-0.1,0.6-0.2c0.2-0.1,0.2-0.3,0.2-0.5c0-0.2-0.1-0.5-0.3-0.6
	c-0.3-0.3-0.7-0.5-1.1-0.7c-0.4-0.2-0.8-0.4-1.1-0.7c-0.2-0.2-0.3-0.5-0.2-0.8c0-0.4,0.1-0.8,0.4-1c0.3-0.3,0.7-0.4,1.1-0.4
	c0.2,0,0.5,0.1,0.7,0.1c0.1,0,0.2,0.1,0.4,0.1c0,0,0.1,0,0.1,0c0.1-0.1,0.1-0.1,0.1-0.2H172.1z"/>
<path class="st1" d="M176.5,54.7v1.7h-0.2c-0.1-0.4-0.3-0.8-0.5-1.1c-0.2-0.2-0.5-0.3-0.8-0.3c-0.2,0-0.4,0.1-0.6,0.2
	c-0.1,0.1-0.2,0.3-0.2,0.5c0,0.2,0.1,0.4,0.2,0.5c0.2,0.2,0.4,0.4,0.7,0.5l0.8,0.4c0.8,0.4,1.1,0.9,1.1,1.4c0,0.4-0.2,0.9-0.5,1.1
	c-0.3,0.3-0.7,0.4-1.2,0.4c-0.4,0-0.7-0.1-1.1-0.2c-0.1,0-0.2-0.1-0.3-0.1c-0.1,0-0.2,0.1-0.2,0.1h-0.2v-1.8h0.2
	c0.1,0.4,0.3,0.9,0.6,1.2c0.3,0.2,0.6,0.4,1,0.4c0.2,0,0.5-0.1,0.6-0.2c0.2-0.1,0.2-0.3,0.2-0.5c0-0.2-0.1-0.5-0.3-0.6
	c-0.3-0.3-0.7-0.5-1.1-0.7c-0.4-0.2-0.8-0.4-1.1-0.7c-0.2-0.2-0.3-0.5-0.2-0.8c0-0.4,0.1-0.8,0.4-1c0.3-0.3,0.7-0.4,1.1-0.4
	c0.2,0,0.5,0.1,0.7,0.1c0.1,0,0.2,0.1,0.4,0.1c0.1,0,0.1,0,0.1,0c0-0.1,0.1-0.1,0.1-0.2H176.5z"/>
<path class="st1" d="M184.3,52.2c1,0,1.9,0.4,2.5,1.1c0.7,0.7,1.1,1.7,1.1,2.8c0,1.1-0.4,2.1-1.1,2.8c-0.7,0.7-1.6,1.1-2.6,1.1
	c-1,0-1.9-0.4-2.6-1.1c-0.7-0.8-1.1-1.8-1.1-2.9c0-1.1,0.4-2.2,1.2-2.9C182.4,52.6,183.3,52.2,184.3,52.2z M184.2,52.6
	c-0.6,0-1.2,0.3-1.6,0.8c-0.5,0.6-0.8,1.5-0.8,2.7c0,1.2,0.3,2.2,0.8,2.8c0.4,0.5,1,0.8,1.6,0.8c0.7,0,1.3-0.3,1.7-0.8
	c0.5-0.6,0.7-1.4,0.7-2.6c0-1.3-0.2-2.2-0.8-2.9C185.4,52.9,184.8,52.6,184.2,52.6z"/>
<path class="st1" d="M193.1,54.9v3.1c0,0.4,0,0.7,0,1.1c0,0.1,0.1,0.2,0.1,0.3c0.1,0.1,0.1,0.1,0.2,0.1c0.1,0,0.3,0,0.4-0.1l0.1,0.2
	l-1.5,0.6h-0.2V59c-0.3,0.3-0.6,0.6-1,0.9c-0.2,0.1-0.5,0.2-0.7,0.2c-0.3,0-0.5-0.1-0.7-0.2c-0.2-0.2-0.4-0.4-0.4-0.6
	c-0.1-0.4-0.1-0.7-0.1-1.1v-2.3c0-0.2,0-0.3-0.1-0.5c-0.1-0.1-0.1-0.2-0.2-0.2c-0.2-0.1-0.4-0.1-0.6-0.1v-0.2h1.8v3.4
	c0,0.5,0.1,0.8,0.2,0.9s0.4,0.2,0.6,0.2c0.2,0,0.4-0.1,0.5-0.2c0.3-0.2,0.5-0.3,0.7-0.6v-2.9c0-0.2,0-0.4-0.2-0.6
	c-0.2-0.1-0.4-0.2-0.7-0.2v-0.2H193.1z"/>
<path class="st1" d="M195.8,53.2v1.7h1.2v0.4h-1.2v3.3c0,0.2,0,0.5,0.1,0.7c0.1,0.1,0.2,0.2,0.4,0.2c0.1,0,0.2,0,0.4-0.1
	c0.1-0.1,0.2-0.2,0.3-0.3h0.2c-0.1,0.3-0.3,0.6-0.5,0.8c-0.2,0.2-0.5,0.3-0.7,0.3c-0.2,0-0.3-0.1-0.5-0.1c-0.2-0.1-0.3-0.2-0.4-0.4
	c-0.1-0.3-0.1-0.5-0.1-0.8v-3.4h-0.8v-0.2c0.2-0.1,0.4-0.2,0.6-0.4c0.2-0.2,0.4-0.4,0.6-0.7c0.1-0.2,0.2-0.5,0.4-0.8H195.8z"/>
<path class="st1" d="M200.7,54.7v1.7h-0.2c-0.1-0.4-0.3-0.8-0.5-1.1c-0.2-0.2-0.5-0.3-0.8-0.3c-0.2,0-0.4,0.1-0.6,0.2
	c-0.1,0.1-0.2,0.3-0.2,0.5c0,0.2,0.1,0.4,0.2,0.5c0.2,0.2,0.4,0.4,0.7,0.5l0.8,0.4c0.7,0.4,1.1,0.9,1.1,1.4c0,0.4-0.2,0.9-0.5,1.1
	c-0.3,0.3-0.7,0.4-1.2,0.4c-0.4,0-0.7-0.1-1.1-0.2c-0.1,0-0.2-0.1-0.3-0.1c-0.1,0-0.2,0.1-0.2,0.1h-0.2v-1.8h0.2
	c0.1,0.4,0.3,0.9,0.6,1.2c0.3,0.2,0.6,0.4,1,0.4c0.2,0,0.4-0.1,0.6-0.2c0.2-0.1,0.2-0.3,0.2-0.5c0-0.2-0.1-0.5-0.3-0.6
	c-0.3-0.3-0.7-0.5-1.1-0.7c-0.4-0.2-0.8-0.4-1.1-0.7c-0.2-0.2-0.3-0.5-0.2-0.8c0-0.4,0.1-0.8,0.4-1c0.3-0.3,0.7-0.4,1.1-0.4
	c0.2,0,0.5,0.1,0.7,0.1c0.1,0,0.2,0.1,0.4,0.1c0,0,0.1,0,0.1,0c0.1-0.1,0.1-0.1,0.1-0.2H200.7z"/>
<path class="st1" d="M204.3,54.7c0.7,0,1.4,0.3,1.8,0.9c0.4,0.5,0.6,1.1,0.6,1.7c0,0.5-0.1,0.9-0.3,1.4c-0.4,0.9-1.2,1.4-2.2,1.4
	c-0.7,0-1.4-0.3-1.8-0.9c-0.4-0.5-0.6-1.1-0.6-1.7c0-0.5,0.1-1,0.3-1.4c0.2-0.4,0.5-0.8,0.9-1C203.5,54.8,203.9,54.7,204.3,54.7z
	 M204.2,55.1c-0.2,0-0.4,0.1-0.6,0.2c-0.2,0.1-0.4,0.4-0.5,0.6c-0.1,0.4-0.2,0.7-0.2,1.1c0,0.7,0.1,1.3,0.4,1.9
	c0.3,0.5,0.7,0.8,1.2,0.8c0.3,0,0.7-0.2,0.9-0.4c0.2-0.3,0.3-0.8,0.3-1.5c0-0.9-0.2-1.6-0.6-2.1C205,55.3,204.6,55.1,204.2,55.1z"/>
<path class="st1" d="M212,54.9v3.1c0,0.4,0,0.7,0,1.1c0,0.1,0.1,0.2,0.1,0.3c0.1,0.1,0.1,0.1,0.2,0.1c0.1,0,0.3,0,0.4-0.1l0.1,0.2
	l-1.5,0.6h-0.2V59c-0.3,0.3-0.6,0.6-1,0.9c-0.2,0.1-0.5,0.2-0.7,0.2c-0.3,0-0.5-0.1-0.7-0.2c-0.2-0.2-0.4-0.4-0.4-0.6
	c-0.1-0.4-0.1-0.7-0.1-1.1v-2.3c0-0.2,0-0.3-0.1-0.5c-0.1-0.1-0.1-0.2-0.2-0.2c-0.2-0.1-0.4-0.1-0.6-0.1v-0.2h1.8v3.4
	c0,0.5,0.1,0.8,0.2,0.9c0.2,0.1,0.4,0.2,0.6,0.2c0.2,0,0.4-0.1,0.5-0.2c0.3-0.2,0.5-0.3,0.7-0.6v-2.9c0-0.2,0-0.4-0.2-0.6
	c-0.2-0.1-0.4-0.2-0.7-0.2v-0.2H212z"/>
<path class="st1" d="M214.7,54.7v1.1c0.4-0.8,0.9-1.1,1.3-1.1c0.2,0,0.4,0.1,0.5,0.2c0.1,0.1,0.2,0.3,0.2,0.4c0,0.1-0.1,0.3-0.1,0.4
	c-0.1,0.1-0.2,0.2-0.3,0.1c-0.2,0-0.3-0.1-0.4-0.2c-0.1-0.1-0.2-0.2-0.4-0.2c-0.1,0-0.2,0.1-0.2,0.1c-0.2,0.2-0.4,0.5-0.5,0.8v2.4
	c0,0.2,0,0.4,0.1,0.6c0.1,0.1,0.1,0.2,0.3,0.2c0.2,0.1,0.3,0.1,0.5,0.1v0.2H213v-0.2c0.2,0,0.4,0,0.6-0.1c0.1-0.1,0.2-0.2,0.2-0.3
	c0-0.2,0-0.4,0-0.5v-2c0-0.4,0-0.7,0-1.1c0-0.1-0.1-0.2-0.1-0.2c-0.1-0.1-0.2-0.1-0.2-0.1c-0.1,0-0.3,0-0.4,0.1l-0.1-0.2l1.5-0.6
	H214.7z"/>
<path class="st1" d="M221.3,58c-0.1,0.6-0.4,1.1-0.8,1.5c-0.4,0.3-0.8,0.5-1.3,0.5c-0.6,0-1.1-0.3-1.5-0.7c-0.5-0.6-0.7-1.2-0.6-2
	c0-0.7,0.2-1.4,0.7-1.9c0.4-0.5,1.1-0.8,1.7-0.7c0.4,0,0.9,0.1,1.2,0.4c0.3,0.2,0.5,0.5,0.5,0.8c0,0.1,0,0.3-0.1,0.3
	c-0.1,0.1-0.2,0.1-0.4,0.1c-0.2,0-0.4-0.1-0.5-0.2c-0.1-0.1-0.1-0.3-0.1-0.4c0-0.2-0.1-0.4-0.2-0.5c-0.2-0.1-0.3-0.2-0.5-0.2
	c-0.3,0-0.7,0.1-0.9,0.4c-0.3,0.4-0.5,0.9-0.4,1.4c0,0.6,0.1,1.1,0.4,1.6c0.2,0.4,0.7,0.7,1.2,0.7c0.4,0,0.7-0.1,1-0.4
	c0.3-0.3,0.5-0.6,0.6-0.9L221.3,58z"/>
<path class="st1" d="M223.8,54.7v4.1c0,0.2,0,0.4,0.1,0.6c0,0.1,0.1,0.2,0.2,0.2c0.2,0.1,0.3,0.1,0.5,0.1v0.2h-2.5v-0.2
	c0.2,0,0.3,0,0.5-0.1c0.1-0.1,0.2-0.1,0.2-0.2c0.1-0.2,0.1-0.4,0.1-0.6v-2c0-0.4,0-0.7-0.1-1.1c0-0.1-0.1-0.2-0.1-0.2
	c-0.1,0-0.1-0.1-0.2-0.1c-0.1,0-0.3,0-0.4,0.1l-0.1-0.2l1.5-0.6H223.8z M223.3,52c0.1,0,0.3,0.1,0.4,0.2c0.1,0.1,0.2,0.2,0.2,0.4
	c0,0.2-0.1,0.3-0.2,0.4c-0.1,0.1-0.2,0.2-0.4,0.2c-0.3,0-0.6-0.2-0.6-0.6S223,52,223.3,52z"/>
<path class="st1" d="M226.6,55.8c0.6-0.7,1.2-1.1,1.7-1.1c0.3,0,0.5,0.1,0.7,0.2c0.2,0.2,0.4,0.4,0.5,0.7c0.1,0.3,0.1,0.7,0.1,1v2.2
	c0,0.2,0,0.4,0.1,0.7c0,0.1,0.1,0.2,0.2,0.2c0.2,0.1,0.3,0.1,0.5,0.1v0.2h-2.5v-0.2h0.1c0.2,0,0.3,0,0.5-0.1
	c0.1-0.1,0.2-0.2,0.2-0.3c0-0.2,0-0.3,0-0.5v-2.1c0-0.3,0-0.7-0.2-1c-0.1-0.2-0.4-0.3-0.6-0.3c-0.4,0-0.9,0.2-1.3,0.7v2.7
	c0,0.2,0,0.4,0.1,0.6c0,0.1,0.1,0.2,0.2,0.2c0.2,0.1,0.4,0.1,0.6,0.1v0.2h-2.5v-0.2h0.1c0.2,0,0.4,0,0.5-0.2
	c0.1-0.2,0.2-0.5,0.1-0.8v-1.9c0-0.4,0-0.7,0-1.1c0-0.1-0.1-0.2-0.1-0.3c-0.1-0.1-0.1-0.1-0.2-0.1c-0.1,0-0.2,0-0.4,0.1l-0.1-0.2
	l1.5-0.6h0.2V55.8z"/>
<path class="st1" d="M232.2,58.1c-0.6-0.3-1-0.9-1-1.5c0-0.5,0.2-1,0.6-1.3c0.4-0.4,0.9-0.6,1.5-0.5c0.4,0,0.9,0.1,1.3,0.4h1.1
	c0.1,0,0.2,0,0.3,0c0,0,0,0,0.1,0c0,0.1,0,0.1,0,0.2c0,0.1,0,0.1,0,0.2c0,0,0,0-0.1,0c-0.1,0-0.2,0-0.3,0h-0.7
	c0.5,0.7,0.4,1.7-0.2,2.2c-0.4,0.4-0.9,0.5-1.5,0.5c-0.3,0-0.5,0-0.8-0.1c-0.1,0.1-0.2,0.2-0.3,0.4c-0.1,0.1-0.1,0.2-0.1,0.3
	c0,0.1,0,0.1,0.1,0.2c0.1,0.1,0.2,0.1,0.4,0.1c0.1,0,0.4,0,0.8,0c0.8,0,1.3,0,1.5,0.1c0.3,0,0.6,0.2,0.8,0.4
	c0.2,0.2,0.3,0.5,0.3,0.8c0,0.5-0.2,0.9-0.6,1.2c-0.6,0.6-1.4,0.8-2.2,0.8c-0.6,0-1.3-0.1-1.8-0.5c-0.3-0.2-0.4-0.4-0.4-0.6
	c0-0.1,0-0.2,0.1-0.3c0.1-0.2,0.2-0.4,0.4-0.6c0,0,0.2-0.2,0.6-0.6c-0.1-0.1-0.3-0.2-0.4-0.3c-0.1-0.1-0.1-0.2-0.1-0.3
	c0-0.2,0.1-0.3,0.2-0.5C231.6,58.5,231.9,58.3,232.2,58.1z M232.1,59.9c-0.2,0.2-0.3,0.3-0.4,0.5c-0.1,0.1-0.1,0.3-0.1,0.4
	c0,0.2,0.1,0.4,0.3,0.5c0.5,0.3,1,0.4,1.6,0.3c0.7,0,1.2-0.1,1.5-0.4c0.3-0.2,0.4-0.4,0.5-0.8c0-0.2-0.1-0.3-0.3-0.4
	c-0.4-0.1-0.8-0.2-1.1-0.1C233.4,60.1,232.8,60,232.1,59.9z M233.1,55c-0.3,0-0.5,0.1-0.7,0.3c-0.2,0.3-0.3,0.6-0.3,1
	c0,0.5,0.1,1,0.4,1.4c0.2,0.2,0.4,0.4,0.7,0.4c0.3,0,0.5-0.1,0.7-0.3c0.2-0.3,0.3-0.6,0.3-1c0-0.5-0.1-1-0.4-1.4
	C233.7,55.1,233.4,55,233.1,55z"/>
<path class="st1" d="M43.9,65h26.5c-0.1-0.3-0.1-0.5-0.1-0.7c-0.2-1-1.1-3.5-2-4.4c-0.8-0.8-1.7-1.4-2.7-1.9c-0.7-0.3-2.9-0.7-3.6-1
	c-0.8-0.3-1.4-0.4-1.4,0s-0.4,0.9-0.8,0.5c-0.4-0.4-1.6-1.1-1.9-1.3s-0.9-0.6-1.2-0.8c-0.3-0.2-0.4,0.1-0.8,0.1s-0.6,0-1.1-0.5
	c-0.6-0.4-1.2-1-1.7-1s-0.7,0.5-0.5,1.1c0.2,0.5,0.6,1.3,0.7,1.5c0.1,0.3,0.5,0.3,0.8,0.8c0.3,0.6,1,1,0.5,1.4s-1,0.9-1.7,0.8
	c-0.7-0.1-1.2,0.2-1.6,0.2c-0.5,0-0.6-0.4-0.5-0.7s0-0.3-0.2-0.9c-0.2-0.6,0-1-0.7-0.8c-0.8,0.3-1.5,0.6-2.2,1.1
	c-0.6,0.4-1.3,0.7-1.1,1c0.1,0.1,0.2,0.3,0.1,0.4c0,0.2-0.1,0.3-0.3,0.4c-0.3,0.2-0.8,0.5-0.6,0.9c0.2,0.4,0.8,0.8,0.6,1.3
	c-0.2,0.5-0.5,1.1-0.7,1.1c-0.2,0-0.6-0.7-0.9-0.8c-0.3-0.1-0.5,0.4-0.6,0.9c-0.1,0.5-0.3,0.5-0.1,1.1C43.9,64.9,43.9,64.9,43.9,65z
	"/>
<path class="st1" d="M87.4,64.7c0,0.1,0,0.2-0.1,0.2h2.9c-0.2-0.3-0.4-0.7-0.3-1.1c0.1-0.5,0.2-0.7,0.2-1.1c0-0.4,0-1.3-0.3-1.5
	c-0.3-0.2-0.3,0.2-0.9,0c-0.6-0.2-0.7-0.5-1-0.5s-0.2,0.4-0.2,0.8c0.1,0.4,0.1,0.8,0,1.2c-0.1,0.5,0.1,0.8,0,1.1
	C87.7,64.1,87.5,64.4,87.4,64.7z"/>
<path class="st1" d="M29.6,46.9c0-0.2-0.1-0.3-0.2-0.3h-0.9c-0.1,0-0.1,0.1-0.2,0.1c-0.5,0.1-0.3,0-0.5,0.1
	c-0.2,0.2-0.3,0.1-0.6,0.3c-0.3,0.2-0.3-0.1-0.5-0.5h-1.9c0,0,0,0,0,0c0.1,0.3-0.1,0.4-0.1,0.8c0.1,0.4,0.2,0.3,0.6,0.2
	c0.3-0.1,0.2,0.4,0.4,0.8c0.3,0.4,0.4,0,0.9-0.2c0.5-0.2,0.4-0.3,0.8-0.6c0.4-0.3,0.5,0,1-0.2c0.5-0.2,0.3-0.1,0.7-0.2
	C29.7,47.2,29.6,47.3,29.6,46.9z"/>
<path class="st1" d="M54.5,46.5c-0.3,0.1-0.3,0.3-0.2,0.4c0.2,0.2,0.6,0.2,0.8,0.1c0.2-0.1,0.4-0.3,0.6-0.5H54.5z"/>
<path class="st1" d="M22.4,63.9c-0.4-0.2-0.4-0.4-0.7-0.5c-0.2-0.1-0.3,0-0.4-0.3c-0.2-0.2-0.1-0.3-0.2-0.5c-0.2-0.3-0.7-0.5-1-0.6
	c-0.3-0.1-0.6-0.2-0.9-0.3c0,0-0.9-0.7-1.3-0.8c-0.3,0-0.3-0.2-0.6-0.3c-0.2-0.1-0.3-0.3-0.4-0.6c0.3,0,0.6,0,0.9,0
	c0.4,0.1,0.9-0.2,0.9-0.2c0.6-0.4,1.2-0.9,1.5-1.5c0.3-0.5,0.2-0.6,0.5-0.9c0.1-0.1,0.1-0.3,0.1-0.4l0.1-0.4
	c0.1-0.5,0.1-0.9,0.1-1.4c-0.1-0.6-0.2-0.7-0.3-1.1c-0.1-0.4-0.8-1-1.1-1.3c-0.3-0.3-0.7-0.5-1.1-0.5c-0.3,0-0.4-0.1-0.8-0.1
	c-0.4,0-0.7,0-1.1-0.1c-0.6-0.1-0.6-0.2-0.9-0.1c-0.3,0.1-0.3-0.1-0.7-0.1c-0.4-0.1-0.2-0.2-0.2-0.6c0-0.4,0.4-0.5,0.6-0.8
	c0.2-0.3-0.4-1.1-0.4-1.1l0.5-0.7c0,0,0.6,0,0.9-0.3c0.2-0.3,0.6,0,1-0.3c0.4-0.3,0.2-0.7,0.2-1.4H0V65h1.3c0-0.4-0.4-0.8-0.4-1
	c0-0.3,0.4-2.2,0.6-2.6c0.2-0.4,0.1-1.1,0-1.5c-0.2-0.4,0.2-0.8,0.4-1l0.6-0.4c0.2-0.1,0.4-0.2,0.6-0.2c0.3-0.1,0.5-0.1,0.8-0.1
	c0.3,0,0.6-0.1,0.9-0.1c0.3,0,0.5,0,0.8,0c0.1,0.1,0.3,0.1,0.4,0.1c0.2,0,0.4,0,0.7,0s0.6-0.1,0.8,0.1c0.2,0.2,0.4,0.1,0.7,0.4
	C8.5,59,8.7,59,8.8,59.3C9,59.5,9,59.8,9.3,59.7c0.2-0.1,0.3-0.2,0.4-0.3c0.1-0.2,0.1-0.4,0.2-0.6c0.1-0.3,0.1-0.3,0.3-0.4
	c0.2-0.1,0.1-0.1,0.4,0c0.2,0.2,0.5,0.3,0.8,0.4c0.4,0.1,0.7,0.4,1,0.6c0.3,0.3,0.3,0.1,0.7,0.3c0.4,0.2,0.6,0.4,0.7,0.6
	s0.2,0.3,0.5,0.7c0.3,0.4,0.7,0.8,0.8,0.7c0,0,0.7,0.4,0.9,0.5c0.2,0.1,1,0.5,1,0.5s0.4,0.3,0.6,0.4c0.2,0.2,0.4,0.5,0.6,0.8
	c0.2,0.3,1.2,0.3,1.6,0.5s0.7,0.1,1.1,0.1c0.4,0.1,0.6-0.1,0.9,0.2c0.1,0.1,0.2,0.1,0.3,0.1h0.1c0.2,0,0.3,0,0.5,0h0.5
	c0.1,0,0.2-0.1,0.2-0.2C23.5,64.6,22.8,64.2,22.4,63.9z"/>
<path class="st1" d="M47.9,41.2h-11L33.5,33H15.2l-3.1,8.1H1.3L17.8,0h11.8L47.9,41.2z M23.9,9.8l-6,16h12.6L23.9,9.8z"/>
<path class="st1" d="M81,38c-5.1,2.6-8.9,3.6-14.3,3.6c-14.1,0-21.1-9.2-21.1-18.6c0-9.7,7.9-18.8,21.8-18.8c5.1,0,9.6,1.1,13.1,3.2
	v8.1c-4-2.2-8-3.7-12.5-3.7c-7.7,0-13.1,4.6-13.1,11.1c0,6.5,5.4,11.2,12.9,11.2c4.7,0,7.9-1.5,13.2-4V38z"/>
<path class="st1" d="M122.1,50.6l-4.3-0.5c-6.9-0.5-13.8-4.5-19.8-9c-6.8-1.2-14.9-8.1-14.9-18c0-9.3,7.9-18.9,20.9-18.9
	c13.7,0,20.7,10.2,20.7,18.6c0,8.1-5.5,15.3-13.5,17.7c3.9,2.3,9.9,4.1,13.6,2.8L122.1,50.6z M103.9,34.2c6.4,0,11.5-4,11.5-11.2
	c0-7.3-5.3-11.2-11.5-11.2c-6.9,0-11.5,4.5-11.5,11.2S97,34.2,103.9,34.2z"/>
<path class="st1" d="M163.7,4.7v20.7c0,12.1-8.2,16.2-18.2,16.2c-10.5,0-18.2-4.9-18.2-16.2V4.7h9.1v20.9c0,5.2,3.8,8.4,9,8.4
	c4.8,0,9.2-2.5,9.2-9V4.7H163.7z"/>
<path class="st1" d="M177.4,41.2h-9.1V4.7h9.1V41.2z"/>
<path class="st1" d="M198.5,4.7c7.5,0,11.9,5,11.9,10.5c0,4-2.1,7-6.2,8.9c3.7,1.9,4.8,6.4,10,17h-10c-3.9-7.8-5.3-14.8-10.2-14.8
	h-2.6v14.8h-9.1V4.7H198.5z M191.3,19.7h4.8c2.5,0,5-1.1,5-4.2c0-2.7-1.8-4.1-5.2-4.1h-4.6V19.7z"/>
<path class="st1" d="M243.5,41.2h-26.8V4.7h26.4v6.7h-17.4V19h16.6v6.7h-16.6v8.8h17.7V41.2z"/>
</svg>
