<?xml version="1.0" encoding="utf-8"?>
<!-- Generator: Adobe Illustrator 22.0.1, SVG Export Plug-In . SVG Version: 6.00 Build 0)  -->
<svg version="1.1" id="Layer_1" xmlns="http://www.w3.org/2000/svg" xmlns:xlink="http://www.w3.org/1999/xlink" x="0px" y="0px"
	 viewBox="0 0 404.9 151.8" style="enable-background:new 0 0 404.9 151.8;" xml:space="preserve">
<style type="text/css">
	.st0{fill:#2D2E63;}
	.st1{fill:#FFFFFF;}
	.st2{fill:#353C7A;}
	.st3{fill:#2E326D;}
	.st4{fill:#4A4A79;}
	.st5{fill:#C5D6EE;}
	.st6{fill:#3C4987;}
	.st7{fill:#364A9E;}
	.st8{fill:#384B93;}
	.st9{fill:#CAD9F0;}
	.st10{fill:#616CAA;}
	.st11{fill:#C6D7EF;}
	.st12{fill:#E2E9F5;}
	.st13{fill:#FAFBFC;}
	.st14{fill:#3C5799;}
	.st15{fill:#E8EEF8;}
	.st16{fill:#3A4FA2;}
	.st17{fill:#4F87C3;}
	.st18{fill:#4873B8;}
	.st19{fill:#3B57A7;}
	.st20{fill:#4779BB;}
	.st21{fill:#4169B2;}
	.st22{fill:#405EAB;}
	.st23{fill:#529ACE;}
	.st24{fill:#D7E3F4;}
	.st25{fill:#3950A2;}
	.st26{fill:#5CB8DE;}
	.st27{fill:#56A8D6;}
	.st28{fill:#FEFEFE;}
</style>
<title>globe_1</title>
<circle class="st0" cx="75.3" cy="75.3" r="75.3"/>
<path class="st1" d="M232.4,54.7l-6.6,6.2l-0.7-0.6c-5-4.7-12-6.8-18.8-5.6c-5.8,0.6-10.9,3.9-14,8.8c-1.5,2.4-2.5,5-2.9,7.8
	c-1,5-0.7,10.2,1.1,15c3.2,8.2,9.3,12.7,18,13.7c5,0.4,10-0.4,14.7-2.2V82.8h-10.5v-8.1c0.9-0.2,16.9-0.3,19.4-0.1
	c0.3,0.9,0.4,26.2,0.1,28.8c-1.3,0.6-2.6,1.2-4,1.7c-6,2.4-12.4,3.5-18.8,3.4c-8.3-0.3-15.5-3-21.3-9.2c-4-4.2-6.6-9.6-7.6-15.3
	c-1.3-6.5-0.8-13.3,1.5-19.6c4.1-10.6,11.8-16.9,23.1-18.5c9.4-1.6,18.9,1.3,25.9,7.7C231.4,53.9,231.9,54.3,232.4,54.7z"/>
<path class="st1" d="M311.1,45.4h9v19.7c0.6-0.3,1.1-0.6,1.6-0.8c5.2-3,11.5-3.9,17.3-2.4c5.5,1.3,10.3,4.8,13.1,9.7
	c4.7,8.2,4.7,18.3,0,26.5c-3.4,5.8-9.5,9.7-16.2,10.2c-3.7,0.4-7.4,0-10.9-1.2c-7-2.4-11.1-7.4-13-14.4c-0.7-2.7-1-5.5-1-8.3
	c0-12.7,0-25.4,0-38C311.1,46.1,311.1,45.8,311.1,45.4z M346.5,84.8c0.1-3-0.6-6-2-8.7c-2.1-4.3-6.5-6.9-11.3-6.7
	c-4.9-0.2-9.4,2.6-11.3,7.1c-2.5,5.1-2.5,11.2,0,16.3c1.9,4.5,6.3,7.3,11.2,7.2c4.8,0.2,9.3-2.5,11.4-6.8
	C346,90.7,346.6,87.8,346.5,84.8z"/>
<path class="st1" d="M404.6,88.2h-33.3c0.8,4.5,2.9,8.2,6.9,10.3c6.3,3.3,12.1,1.9,17.3-2.6l5.6,5.9c0,0.1-0.1,0.2-0.1,0.2
	c-8.1,7.6-20.5,8.6-29.7,2.3c-4.5-3.2-7.6-8-8.7-13.4c-1.5-6.1-0.7-12.6,2.2-18.3c4.1-7.8,10.6-11.6,19.4-11.4
	c9.6,0.3,17.1,6.4,19.6,15.8C404.9,80.7,405.1,84.5,404.6,88.2z M371.5,79.9h24c-0.9-6-6-10.5-12.1-10.4
	C377.4,69.4,372.3,73.9,371.5,79.9z"/>
<path class="st1" d="M304.1,84.8c0,4.5-1.2,9-3.4,12.9c-3.4,6.1-9.6,10-16.5,10.6c-4.3,0.5-8.7-0.2-12.6-2.2
	c-5.2-2.6-9.1-7.2-10.8-12.7c-2-5.8-1.9-12.1,0.3-17.9c4.2-11.4,16.9-17.2,28.3-13c7.3,2.7,12.6,9,14,16.7
	C303.8,81,303.9,82.9,304.1,84.8z M282.6,100.1c4.6-0.1,8.7-2.9,10.5-7.2c2.6-5.2,2.5-11.3-0.2-16.5c-3.2-6.2-10.7-8.7-16.9-5.5
	c-2.6,1.3-4.7,3.5-5.9,6.2c-2.1,4.7-2.2,10.1-0.2,14.9C271.9,97.2,276.3,100.1,282.6,100.1L282.6,100.1z"/>
<path class="st1" d="M251.8,107.6h-9V45.5c3,0,5.9,0,9,0V107.6z"/>
<path class="st0" d="M134.4,125.7c-1.3,1.4-2.4,2.9-3.8,4.2c-29.4,29.2-76.8,29.1-106.1-0.2c-2.3-2.3-4.5-4.8-6.5-7.4
	c-7.4-9.6-12.3-20.8-14.2-32.8C0.1,65.5,6.5,44.3,22.7,26.1c6.7-7.4,14.9-13.4,24-17.4c0.2-0.1,0.5-0.2,0.7-0.3
	c0.1,0.6-0.3,0.7-0.7,0.9c-1,0.5-2.1,0.9-3.1,1.4c-0.5,0.3-1.1,0.5-1.3,1.1h-0.3c-0.4,0-0.7,0-0.8,0.5h-0.3l-0.5,0.5l-1.3,0.5
	c-0.5,0.1-1,0.1-1,0.8c-0.1,0.1-0.1,0.2-0.2,0.3c-1.1,0.7-2.2,1.4-3.3,2.1c-3.2,2.3-6.2,4.9-9,7.7c-1.5,1.3-2.9,2.8-4,4.4
	c-0.5,0-0.5,0.4-0.5,0.8l0,0l-0.5,0.5l0,0l-0.8,1l0,0c-1.2,0.9-1.7,2.3-2.7,3.4c-0.8,1.1-1.5,2.3-2.1,3.5c-0.6,1-1.1,2-1.6,3
	c-0.9,2.2-2.2,4.2-2.9,6.5c0,0,0,0.1-0.1,0.1c-1.2,3-2.5,6-3.6,9c-1.2,3.8-1.9,7.8-2.1,11.8c-0.1,1.7-0.4,3.4-0.5,5.1
	c-0.1,1.4-0.1,2.8,0,4.2c0.1,1.7,0.3,3.4,0.5,5.1c0.1,1.1,0.1,2.2,0.3,3.3c0.4,2.9,0.6,5.7,1.2,8.6c0.3,2,0.9,3.9,1.6,5.8
	c1.3,2.8,2.4,5.8,3.9,8.5s3.1,5.1,4.7,7.6c2,3,4.2,5.9,6.7,8.5c0.1,0.2,0.3,0.3,0.4,0.5c0.8,0.9,1.6,1.9,2.5,2.7
	c2.2,2,4.5,3.9,6.7,5.9s4.9,3.6,7.3,5.4c3.1,2.1,6.4,3.8,9.8,5.3c1.5,0.7,3,1.2,4.5,1.7c0.9,0.3,1.9,0.6,2.9,0.8
	c0.6,0.2,1.1,0.4,1.7,0.5c1.9,0.4,3.9,0.8,5.8,1.2c1.9,0.4,3.8,0.6,5.7,0.7c1.4,0,2.8,0.2,4.3,0.2c0.5,0,0.9,0,1.4-0.1
	c0.5-0.1,1.1-0.1,1.6-0.1c0.7,0.1,1.5,0.1,2.2,0c2.1,0,4.1-0.2,6.2-0.4c1.6-0.2,3.2-0.5,4.8-0.9c3.6-1,7.2-2,10.8-3
	c2-0.6,4.1-1.3,6.1-2.1c2.8-1.1,5.5-2.3,8.2-3.7c2.9-1.6,5.6-3.4,8.3-5.3c0.5-0.3,1.3-0.5,1.4-1.4l0.5-0.3l0.5-0.5l3.1-2.8
	c0.7,0.1,1.1-0.3,1-1l1.3-1c0.5,0,0.5-0.4,0.5-0.8L134.4,125.7z"/>
<path class="st0" d="M88,2.7c3.2,0.3,6.3,1,9.4,1.9c20.4,5.8,35.8,18,46.2,36.5c4.4,8.1,7.3,16.9,8.4,26c1.1,8.2,0.8,16.6-0.8,24.7
	c-0.4,1.7-0.9,3.4-1.3,5.1c-0.3,1-0.4,2-0.8,3c-0.7,2-1.5,3.9-2.2,5.8c-0.1-0.5-0.2-0.9-0.1-1.4c0.3-1.2,0.4-2.4,0.4-3.7
	c0.5-1.9,1.1-3.7,1.5-5.6c0.7-3.1,1.3-6.3,1.6-9.6c0.3-3.1,0.5-6.2,0.5-9.3c0-1.1-0.2-2.2-0.2-3.3c-0.1-1.4-0.1-2.9-0.3-4.3
	c-0.4-2.5-0.9-5-1.5-7.5c-1.4-6.2-3.6-12.2-6.5-17.9c-0.6-1.2-1.3-2.3-2-3.5c-2-3.4-4.3-6.6-7-9.5C132.1,29,131,28,130,27
	c-2.3-2.3-5-4.3-8-5.8c-0.2-0.4-0.2-0.9-0.5-1.1c-1.8-1.4-3.6-2.8-5.5-4.1c-3.8-2.6-7.8-4.9-12-6.7c-2.2-1.1-4.5-2.1-6.9-2.8
	c-2.7-0.6-5.4-1.4-8-2.1c-0.1,0-0.2,0-0.3,0c-2.5-0.3-5.1-0.7-7.6-1.1C79.6,3.1,77.9,3,76.1,3c-0.8,0-1.7-0.1-2.5-0.3
	c-0.1,0-0.2-0.2-0.3-0.4c0.5,0,1-0.1,1.5-0.1h8.4L88,2.7z"/>
<path class="st2" d="M147.1,100.6c0,1.2-0.1,2.5-0.4,3.7c0,0.5,0,0.9,0.1,1.4c-0.7,1.6-1.4,3.3-2.1,4.8c-1.7,3.5-3.7,6.8-6,9.9
	c-0.4,0.5-0.9,1.1-1.4,1.5c-0.6,0-0.6,0.4-0.6,0.8l-0.2,0.2c-1,0.2-1.8,1.1-1.8,2.2l-0.4,0.6l-1.8,0.8l-0.5,0.8l-1.3,1l-1,1
	l-3.1,2.8l-0.5,0.5l-0.5,0.3c-0.3,0.1-0.5,0.2-0.8,0.4c-1.1,0.7-2.2,1.4-3.3,2.1c-2.7,1.6-5.5,3-8.3,4.1c-2.7,1.2-5.4,2.2-8.2,3.2
	c-1.5,0.5-3.1,0.8-4.6,1.1c0.1-0.9,0.2-1.7,0.3-2.6c2.1-0.6,4.2-1.3,6.2-1.9s3.9-1.4,5.8-2.1c1.5,0.2,3.1-0.1,4.4-0.9
	c1.7-0.9,3.3-2.1,4.7-3.4c0.3,0,0.7,0,1-0.1c1.2-0.6,2.4-1.2,3.5-2c1.5-1.1,2.8-2.5,4.3-3.7c0.4-0.4,0.9-0.7,1.4-1l0.5-0.8l0.8-0.8
	c0.3-0.1,0.6-0.2,0.7-0.4c1.6-2.3,3.5-4.3,4.8-6.7c0.3-0.5,0.5-0.9,0.8-1.4c1.5-2.8,3.3-5.4,4.1-8.5c0.3-1.1,0.5-2.3,0.6-3.4
	c0.1-0.7-0.3-1.4-1-1.6c-1-0.5-2.2-0.1-2.7,0.8c0,0,0,0.1-0.1,0.2c-0.3,0.5-0.5,1.1-0.8,1.6c-0.3,0.6-1,0.9-1.6,0.6
	c-0.2-0.1-0.4-0.2-0.5-0.4c-0.1-0.1-0.2-0.2-0.2-0.3c-0.8-1.2-1.6-2.5-2.4-3.7c-0.2-0.4-0.4-0.7-0.6-1.1c-0.2-0.4,0.1-0.6,0.5-0.7
	l0.5,0.1c0.7,0.3,1.6,0.3,2.3,0c1.9-0.5,3.7-1.6,5-3.1c0.5,0.3,0.3,0.7,0.2,1.1c-0.2,0.5,0,1,0.4,1.3c0.9,0.6,1.7,1.1,2.6,1.6
	C146.5,100.5,146.8,100.6,147.1,100.6z"/>
<path class="st3" d="M73.3,2.3c0.1,0.1,0.2,0.3,0.3,0.4c0.8,0.2,1.7,0.3,2.5,0.3c1.7,0,3.4,0.2,5.1,0.5c2.5,0.4,5.1,0.7,7.6,1.1
	c0.1,0,0.2,0,0.3,0c2.7,0.7,5.3,1.5,8,2.1c2.4,0.7,4.7,1.6,6.9,2.8c4.2,1.9,8.2,4.1,12,6.7c1.9,1.3,3.7,2.7,5.5,4.1
	c0.3,0.2,0.3,0.7,0.5,1.1c-0.7-0.2-1.3-0.9-2.1-0.7h-1.2c0-0.6-0.4-0.9-0.9-1.1c-2.1-1.1-4-2.6-6-3.8c-2.7-1.6-5.6-3.1-8.5-4.3
	c-0.3-0.1-0.6-0.1-0.8-0.2c-0.1-0.6-0.6-0.8-1-0.9l-6.6-2L94.6,8l-0.8-0.2l-0.3-0.1l-0.7-0.1l-0.5-0.2l-0.8-0.1l-0.3-0.1
	c0,0-0.1,0-0.2,0c0,0,0,0,0,0c-0.2-0.9-1.1-0.8-1.7-1c-1.6-0.3-3.2-0.6-4.8-0.8C83.3,5.3,82,5.1,80.8,5s-2.3-0.1-3.5-0.3
	c-1.4-0.2-2.8-0.3-4.2-0.2c-2.7,0.1-5.4,0.3-8.1,0.8c-2.8,0.3-5.6,0.8-8.4,1.5c-2,0.4-3.9,1-5.8,1.6c-2.6,1.1-5.5,1.6-7.9,3.3
	c-0.2,0.1-0.3,0.1-0.5,0.1c0.2-0.7,0.8-0.9,1.3-1.1c1-0.5,2.1-0.9,3.1-1.4c0.4-0.2,0.8-0.3,0.7-0.9C51.7,6.5,56.1,5,60.6,4
	c3.6-0.9,7.3-1.5,11-1.7h1.2L73.3,2.3z"/>
<path class="st4" d="M73.3,2.3h-0.6l-0.4-0.1c3.6-0.4,7.2-0.4,10.8,0h-8.3C74.3,2.2,73.8,2.3,73.3,2.3z"/>
<path class="st3" d="M134.8,125.2c0-1,0.7-1.9,1.8-2.2L134.8,125.2z"/>
<path class="st4" d="M88,2.7l-4.8-0.5L88,2.7z"/>
<path class="st0" d="M72.4,2.2l0.4,0.1h-1.2L72.4,2.2z"/>
<path class="st3" d="M136.8,122.8c0-0.4-0.1-0.8,0.6-0.8L136.8,122.8z"/>
<path class="st2" d="M42.4,11.8c0.2,0,0.3-0.1,0.5-0.1c2.4-1.7,5.3-2.2,7.9-3.3c1.9-0.6,3.9-1.2,5.8-1.6c2.8-0.7,5.6-1.2,8.4-1.5
	c2.7-0.4,5.4-0.7,8.1-0.8c1.4,0,2.8,0,4.2,0.2c1.2,0.2,2.3,0.2,3.5,0.3s2.5,0.3,3.7,0.5c1.6,0.2,3.2,0.5,4.8,0.8
	c0.6,0.1,1.5,0.1,1.7,1c-0.2,0-0.4,0-0.6,0l-8.8-1.1L78.9,6h-2.5c-0.8-0.2-1.6-0.4-2.5-0.5c-1.2,0-2.4,0.4-3.6,0c-0.1,0-0.3,0-0.4,0
	l-1.6,0.2c-1.9,0.2-3.8,0.3-5.6,0.6c-1.6,0.3-3.3,0.7-4.9,1.2c-2.3,0.7-4.7,1.4-7,2.2c-2,0.8-3.9,1.8-5.8,2.8
	c-4,2.1-7.6,5.1-10.4,8.7c-0.6,0.5-0.9,1.2-0.9,2l0,0l-0.3,0.2c-4.9,2.4-9,6.1-12,10.6c-2.4,3.1-3.9,6.9-4.3,10.8
	c-0.8,0.2-1.1,1-1.4,1.6c-0.9,1.5-1.6,3-2.4,4.5c-1.1,2-2.2,4.1-3.2,6.2c-0.4,0.9-0.7,1.9-1,2.8l-0.6,0.2c-0.3,1.5-0.5,3-0.8,4.4
	c-0.2,0.9-0.5,1.8-0.6,2.7c-0.2,2-0.2,4.1-0.4,6.2C6.5,77,6.6,80.6,7,84.1c0.2,1.8,0.4,3.7,0.6,5.5c-0.2,2.7,0.3,5.5,1.4,8
	c1.3,3.5,3,6.8,4.9,10c1.5,2.4,2.9,4.8,4.6,7.1c0.5,0.7,0.9,1.7,1.9,1.9c-0.1,1.1,0.2,2.3,0.7,3.3l0.8,1.6c-0.3-0.1-0.6-0.3-0.9-0.5
	c-0.8-0.9-1.5-1.9-2.3-2.9c-1.3-1.8-2.6-3.6-3.8-5.5c-0.9-1.5-1.7-3.1-2.6-4.6c-2-3.4-3.5-7-4.7-10.7c-1-2.9-1.4-5.9-1.4-8.9
	c0-0.8,0-1.7,0-2.5c-0.1-2.1-0.4-4.3-0.5-6.4c-0.2-3.3,0.3-6.7-0.3-10c0-0.2,0-0.3,0-0.5c0.2-0.9,0.3-1.9,0.3-2.8
	c0.1-1.8,0.4-3.7,0.8-5.4c0.5-2,1.1-3.9,2-5.7c1-1.9,1.6-4,2.5-5.9c1.2-2.7,2.5-5.3,3.6-8s2.7-5.2,4-7.8c0.4-0.8,1.2-1.5,1.2-2.5
	l0,0c0.6,0,0.8-0.5,0.8-1l0,0l0.5-0.5l0,0l0.5-0.8c1.2-1.6,2.6-3.1,4.1-4.4c2.8-2.8,5.8-5.3,9-7.7c1.1-0.7,2.2-1.4,3.3-2.1
	c0.1-0.1,0.2-0.2,0.2-0.3c0.5,0,1-0.1,1-0.8l1.3-0.5l0.5-0.5h0.3l0.8-0.5L42.4,11.8z"/>
<path class="st3" d="M20,30.9c0,1-0.7,1.7-1.2,2.5c-1.4,2.6-2.9,5.1-4,7.8s-2.4,5.3-3.6,8c-0.9,2-1.6,4-2.5,5.9
	c-0.9,1.8-1.5,3.7-2,5.7c-0.5,1.8-0.7,3.6-0.8,5.4c0,0.9-0.2,1.9-0.4,2.8c0,0.2,0,0.3,0,0.5c0.5,3.3,0.1,6.7,0.3,10
	c0.1,2.1,0.3,4.3,0.5,6.4c0,0.8,0,1.7,0,2.5c-0.1,3,0.4,6.1,1.4,8.9c1.2,3.7,2.7,7.3,4.7,10.6c0.9,1.5,1.7,3.1,2.6,4.6
	c1.2,1.9,2.5,3.7,3.8,5.5c0.7,1,1.5,1.9,2.3,2.9c0.3,0.2,0.6,0.4,0.9,0.5l1.8,2.3l0.2,0.2l0,0c0.1,0.4,0.2,0.9,0.5,1.3
	c1,1.2,2.1,2.4,3.3,3.5s2.6,2.3,3.9,3.5c0.3,0.3,0.7,0.6,1,0.9c1.2,1,2.5,1.9,3.7,2.8c2.5,1.9,5.1,3.7,7.9,5.2
	c0.9,0.5,1.8,1,2.7,1.4c1.9,1,3.9,1.7,6,2.3c2.3,0.5,4.4,1.3,6.7,1.9c0.7,0.2,1.4,0.3,2.1,0.3c0.2,0,0.4-0.3,0.6-0.4
	c1.7,0.2,3.2,0.8,4.9,0.9c2.3,0.1,4.5,0.5,6.8,0.6c5.4,0.3,10.7,0,16-1c3.2-0.7,6.3-1.5,9.4-2.3c0.5-0.1,1-0.3,1-0.9
	c1.5-0.4,3.1-0.6,4.6-1.1c2.8-1,5.5-2,8.2-3.2c2.9-1.2,5.7-2.6,8.3-4.1c1.1-0.7,2.2-1.4,3.3-2.1c0.3-0.1,0.5-0.3,0.8-0.4
	c-0.1,0.8-0.9,1-1.4,1.4c-2.7,1.8-5.4,3.7-8.3,5.3c-2.6,1.4-5.3,2.6-8.1,3.7c-2,0.8-4,1.5-6.1,2.1c-3.6,1-7.2,2-10.8,3
	c-1.6,0.4-3.2,0.7-4.8,0.9c-2,0.3-4.1,0.4-6.2,0.4c-0.7,0.1-1.5,0.1-2.2,0c-0.5,0-1.1,0-1.6,0.1c-0.5,0.1-0.9,0.1-1.4,0.1
	c-1.4-0.1-2.8-0.2-4.3-0.2c-1.9,0-3.9-0.2-5.7-0.7c-1.9-0.4-3.9-0.8-5.8-1.2c-0.6-0.1-1.1-0.4-1.7-0.5c-1-0.3-2-0.5-2.9-0.8
	c-1.5-0.5-3-1.1-4.5-1.7c-3.4-1.5-6.7-3.3-9.8-5.3c-2.5-1.7-5.1-3.2-7.3-5.4s-4.5-3.9-6.7-5.9c-0.9-0.8-1.6-1.8-2.5-2.7
	c-0.1-0.2-0.3-0.3-0.4-0.5c-2.5-2.6-4.7-5.5-6.7-8.5c-1.6-2.5-3.3-5-4.7-7.6s-2.6-5.7-3.9-8.5c-0.7-1.9-1.3-3.8-1.6-5.8
	c-0.6-2.8-0.8-5.7-1.2-8.6c-0.2-1.1-0.2-2.2-0.3-3.3c-0.2-1.7-0.4-3.4-0.5-5.1c-0.1-1.4-0.1-2.8,0-4.2c0.1-1.7,0.3-3.4,0.5-5.1
	c0.2-4,0.9-7.9,2.1-11.7c1.1-3,2.4-6,3.6-9c0,0,0-0.1,0.1-0.1c0.6-2.3,2-4.3,2.9-6.4c0.4-1,1-2,1.6-3c0.6-1.2,1.3-2.4,2.1-3.5
	C18.3,33.2,18.8,31.7,20,30.9z"/>
<path class="st3" d="M39.3,13.4c0,0.7-0.5,0.8-1,0.8C38.4,13.5,38.9,13.4,39.3,13.4z"/>
<path class="st3" d="M129.9,129.3l1-1C131,129,130.6,129.3,129.9,129.3z"/>
<path class="st3" d="M20.8,29.8c0,0.5-0.1,1-0.8,1L20.8,29.8z"/>
<path class="st3" d="M21.8,28.6l-0.5,0.8C21.3,29,21.3,28.6,21.8,28.6z"/>
<path class="st3" d="M42.1,11.8l-0.8,0.5C41.4,11.8,41.8,11.8,42.1,11.8z"/>
<path class="st3" d="M132.2,127.3l0.5-0.8C132.7,126.9,132.7,127.2,132.2,127.3z"/>
<path class="st3" d="M41.1,12.3l-0.5,0.5L41.1,12.3z"/>
<path class="st3" d="M126.3,132.6l0.5-0.5L126.3,132.6z"/>
<path class="st3" d="M21.3,29.3l-0.5,0.5L21.3,29.3z"/>
<path class="st4" d="M119.9,20.5c0.8-0.2,1.4,0.5,2.1,0.7c2.9,1.5,5.6,3.4,8,5.8c1.1,1,2.1,2.1,3.1,3.1c2.7,2.9,5,6.1,7,9.5
	c0.7,1.2,1.4,2.3,2,3.5c2.9,5.6,5.1,11.7,6.5,17.9c0.6,2.5,1.1,5,1.5,7.5c0.2,1.4,0.2,2.8,0.3,4.3c0.1,1.1,0.2,2.2,0.2,3.3
	c0,3.1-0.2,6.2-0.5,9.3c-0.3,3.2-0.8,6.4-1.6,9.5c-0.4,1.9-1,3.7-1.5,5.6c-0.3-0.1-0.6-0.2-0.9-0.3c-0.9-0.5-1.8-1.1-2.6-1.6
	c-0.5-0.3-0.6-0.8-0.4-1.3c0.2-0.4,0.3-0.8-0.2-1.1l0.6-0.9l1-1.5c0.6-1.1,1.2-2.3,1.7-3.4c3.2-8.5,3.2-17.9,0.1-26.4
	c-1.1-3.5-3.3-6.5-6.4-8.5c0.1-0.4,0.2-0.7,0.4-1c0.6-1,0.9-2.3,0.9-3.5c-0.4-2.6-1.3-5.1-2.6-7.4c-0.1-0.1-0.4-0.1-0.6-0.2
	c-0.5-1.8-1.1-3.6-1.9-5.3c-2.9-6-7.6-10.9-13.5-14.1c-0.1-0.2-0.1-0.5-0.2-0.6c-0.6-0.5-1.1-1-1.7-1.4S120,21.2,119.9,20.5z"/>
<path class="st5" d="M100.6,143.8c0,0.6-0.5,0.8-1,0.9c-3.1,0.8-6.3,1.7-9.4,2.3c-5.3,1-10.6,1.3-16,1c-2.3-0.1-4.5-0.5-6.8-0.6
	c-1.7-0.1-3.3-0.7-4.9-0.9l-1-0.3l-5.8-1.6c-0.5-0.1-0.8-0.3-0.9-0.9l-0.3-2.3l-0.2-2c0-0.2,0-0.4,0-0.6l-0.5-7.3
	c-0.1-1.3-0.2-2.5-0.3-3.8v-4.9l1.2,0.2l6.2,1.1l0.3,0.1c1.8,0.3,1.5,0.3,2.3-1c0.1-0.2,0.2-0.4,0.3-0.6l2.3-3.4l3.3,0.2l2.3,0.2
	l3.3,0.1c0.4,0.1,0.9,0.1,1.3,0.2c3.8,0.1,7.6-0.1,11.4-0.5c0.5,0,0.9,0,1.4-0.1c0.5-0.2,1.1,0.1,1.3,0.6c0.5,0.8,1.1,1.6,1.6,2.4
	l1.3,2.1l3.8-0.9l3.2-0.7l1.9-0.4c0,0.6,0,1.1,0,1.5c0,1.9-0.1,3.8-0.2,5.6l-0.3,4.8c-0.1,1.2-0.2,2.4-0.3,3.5c-0.1,1-0.2,2-0.3,3
	C100.8,142.1,100.7,142.9,100.6,143.8z M79.1,129.1h-0.5h-1l-1.8,0.1l-0.8,0.2c-1.4,0.1-2.7,0.6-3.9,1.3c-2.2,1.1-4,2.9-5,5.2
	c-1.1,2.2-0.5,4.9,1.4,6.5c0.8,0.7,1.6,1.3,2.5,1.7c2.9,1.5,6.2,2.1,9.4,1.7c2.5-0.2,5-1,7.1-2.5c1.7-1.1,2.8-2.8,2.9-4.8
	c0.2-1,0-2.1-0.5-3C86.9,131.4,83.4,129.6,79.1,129.1z"/>
<path class="st5" d="M143.6,95.3l-0.6,0.9c-1.3,1.5-3.1,2.6-5,3.1h-2.3l-0.5-0.1c-1.8-0.6-3.3-1.7-4.6-3.1c-1.6-2.1-2.9-4.5-3.7-7
	c-0.4-1.1-0.7-2.3-1-3.4c0-0.3-0.1-0.7-0.1-1c-1-5.4-1-11,0.1-16.4c0.6-3.5,2.1-6.8,4.2-9.7c1.8-2.3,3.9-4,6.9-4.1l1.1,0.2
	c-0.5,0.1-0.6,0.3-0.4,0.8c1.3,2.4,2.5,4.9,3.4,7.5c1.3,3.4,2.3,6.9,3,10.4c0.1,0.4,0.2,0.9-0.3,1.1l-0.8-0.9
	c-1.9-2.1-3.8-4.2-5.7-6.3c-0.3-0.3-0.6-0.6-1-0.9v20.5c0,0,0.1,0,0.1,0l0.7-0.6c2.8-2.6,5.4-5.4,7.7-8.4c0.1,1.6,0.2,3.2,0.3,4.8
	c0,0.9,0,1.8,0,2.6c0,0.3,0.1,0.6,0.2,0.9v0.5c-0.4,0.1-0.5,0.4-0.5,0.7c-0.1,1.4-0.3,2.8-0.5,4.1C143.8,93.1,143.6,94.2,143.6,95.3
	z"/>
<path class="st5" d="M122,132.8c-1.4,1.3-3,2.5-4.7,3.4c-1.3,0.8-2.9,1.1-4.4,0.9c-0.9-0.4-1.5-1.3-1.6-2.2c0.1-1.4,0.5-2.8,1.1-4
	c1.4-2.1,3.1-3.9,5.1-5.3c0.6-0.4,0.9-1,0.9-1.7c0-0.7,0.1-1.4,0.1-2.1c0.1-1.4,0.1-2.7,0.2-4.1c0.3-1.2,0.3-1.3-0.6-1.5
	c-1.8-0.3-3.1-1.8-3-3.6c0-1.3,0.3-2.6,0.8-3.8l1.6-2.3l2-1.5l1-0.5c0.4-0.1,0.7-0.2,1.1-0.2c1.8-0.2,3.9,0.3,4.3,3.1
	c0.1,0.5,0.2,1.1,0.3,1.7l2.3,0.2l2.3,0.3l2.5,0.3c0.5,0.3,1.1,0.1,1.4-0.3c0,0,0,0,0,0c0.4-0.5,0.8-0.9,1.2-1.3l0.5-0.3l0.3-0.2
	c0.1,0,0.2,0,0.2,0h1l0.5,0.7c-1,1.7-1.9,3.4-2.9,5.1c-0.6,1-1.2,1.9-1.8,2.9c-2.4,3.1-5,6.1-7.8,8.8c-0.3,0.3-0.5,0.8-0.6,1.2
	c-0.1,1-0.4,2-0.9,3C123.7,130.6,122.9,131.7,122,132.8z M126.6,113.1H126c-0.8-0.5-1.8-0.3-2.3,0.5c-0.1,0.1-0.1,0.2-0.1,0.2
	c-0.1,0.2-0.3,0.4-0.5,0.5c-0.5,0.4-0.8,1-0.8,1.6c0,0.8-0.1,1.7-0.2,2.5c-0.1,1.4-0.2,2.8-0.3,4.3l-0.2,0.8l0.2,0.2l2.5,0.2
	c2.8-2.6,5.4-5.5,7.7-8.6c0.4-0.4,0.5-1.1,0.2-1.7l-4.3-0.3L126.6,113.1z"/>
<path class="st6" d="M136.3,107.9l-0.5,0.3c-0.5-1.2-0.9-2.4-1.5-3.6c-1-2-2.2-4-3.3-6.1c-0.5-0.7-0.6-1.5-0.3-2.3
	c1.3,1.4,2.8,2.4,4.6,3.1c-0.4,0.1-0.6,0.3-0.5,0.7c0.2,0.4,0.3,0.8,0.6,1.1c0.8,1.3,1.6,2.5,2.4,3.7c0.1,0.1,0.1,0.2,0.2,0.3
	c0.4,0.5,1.1,0.7,1.7,0.3c0.2-0.1,0.3-0.3,0.4-0.5c0.3-0.5,0.5-1.1,0.8-1.6c0.4-1,1.6-1.5,2.6-1.1c0.1,0,0.1,0,0.2,0.1
	c0.7,0.2,1.1,0.9,1,1.6c-0.2,1.2-0.4,2.3-0.6,3.4c-0.8,3.1-2.7,5.7-4.1,8.5c-0.3,0.5-0.5,1-0.8,1.4c-1.4,2.4-3.3,4.4-4.8,6.7
	c-0.1,0.2-0.5,0.3-0.7,0.4c0-0.1,0-0.2,0.1-0.4c1.1-1.6,2.2-3.2,3.2-4.8c0.5-1,0.9-2,1.3-3c0.4-1-0.3-1.8-0.7-2.5
	c0.5-1.2,1-2.4,1.4-3.6c0.3-0.6,0.1-1.4-0.3-1.9l-0.5-0.7c-0.3-0.3-0.7-0.3-1,0c0,0,0,0,0,0c-0.1,0-0.2,0-0.2,0L136.3,107.9z"/>
<path class="st7" d="M137.2,113.8c0.5,0.8,1.1,1.6,0.7,2.5c-0.3,1-0.7,2-1.3,3c-1,1.7-2.1,3.2-3.2,4.8c0,0.1-0.1,0.2-0.1,0.4
	l-0.8,0.8c-0.5,0-0.5,0.4-0.5,0.8c-0.5,0.3-1,0.7-1.4,1c-1.4,1.2-2.8,2.6-4.3,3.7c-1.1,0.8-2.3,1.4-3.5,2c-0.3,0.1-0.7,0.1-1,0.1
	c0.9-1.1,1.7-2.3,2.4-3.5c0.4-1,0.7-2,0.9-3c0-0.5,0.2-0.9,0.6-1.2c2.8-2.7,5.5-5.6,7.8-8.8c0.9,0,1.7-0.4,2.2-1.1
	C136.4,114.8,136.8,114.3,137.2,113.8z"/>
<path class="st8" d="M111.4,134.9c0.1,1,0.7,1.8,1.6,2.2c-1.9,0.7-3.8,1.5-5.8,2.1s-4.2,1.3-6.2,1.9c0.1-1,0.2-2,0.3-3
	c2.3-0.7,4.5-1.4,6.8-2.1C109.2,135.7,110.3,135.3,111.4,134.9z"/>
<path class="st4" d="M135.7,99.4h2.3C137.3,99.7,136.4,99.7,135.7,99.4z"/>
<path class="st6" d="M132.2,126c0-0.4,0-0.7,0.5-0.8L132.2,126z"/>
<path class="st9" d="M81.7,6.2l8.8,1.1c0.2,0,0.4,0,0.6,0c0,0,0.1,0,0.2,0c0,0,0,0,0,0l0.3,0.1l0.8,0.1l0.5,0.2l0.7,0.1l0.3,0.1
	L94.6,8l0.2,0.1l6.6,2c0.5,0.1,1,0.3,1,0.9c0,0.4,0,0.8,0,1.2l-2.5,0.1c-0.6,0-1.2-0.1-1.8,0c-2.4,0.2-4.8,0.4-7.2,0.7
	c-4.2,0.4-8.4,1.5-12.3,3.2c-0.5,0.2-1.1,0.2-1.6,0c-3.5-1.4-7.1-2.4-10.8-3.1c-3.1-0.6-6.3-0.9-9.4-0.9h-0.7l-2.9-0.2l0-0.8
	c0-0.8,0.5-1.1,1.2-1.3C61,7.6,67.9,6.4,74.9,6.2c0.5,0,1-0.1,1.5-0.2h2.5L81.7,6.2z"/>
<path class="st10" d="M119.9,20.5c0,0.7,0.5,1,1,1.4s1.2,0.9,1.7,1.4c0.1,0.1,0.1,0.4,0.2,0.6c-1.5-0.7-3.1-1.1-4.7-1.3
	c-1.7-0.3-3.4,0.5-4.3,2l-0.4,0.9c-0.6-1.2-1.3-2.4-1.8-3.7c-0.4-0.8-0.1-1.1,0.8-1.1c0.6,0,1.2,0,1.8,0c0.8-0.1,1.7,0.3,2.5-0.2
	c0.4,0.1,0.9,0.1,1.4,0.2c0.2,0,0.5-0.1,0.7-0.1L119.9,20.5z"/>
<path class="st2" d="M118.7,20.5c-0.2,0.1-0.4,0.1-0.7,0.1c-0.5,0-0.9-0.1-1.4-0.2c-0.2-0.4-0.5-0.7-0.8-1c-0.9-0.7-1.9-1.3-2.9-1.9
	c-1.8-1-3.7-2-5.5-3c-0.7-0.4-1.3-0.7-2-1s-1.3-0.6-2-0.9c-0.4-0.2-0.8-0.3-1.2-0.5c0-0.4,0-0.8,0-1.2c0.3,0,0.6,0.1,0.8,0.2
	c2.9,1.3,5.8,2.7,8.5,4.3c2.1,1.2,3.9,2.7,6,3.8C118.3,19.6,118.7,19.9,118.7,20.5z"/>
<path class="st2" d="M92.8,7.7l-0.5-0.2L92.8,7.7z"/>
<path class="st2" d="M94.8,8.1L94.6,8L94.8,8.1z"/>
<path class="st2" d="M93.8,7.9l-0.3-0.1L93.8,7.9z"/>
<path class="st2" d="M91.6,7.4l-0.3-0.1L91.6,7.4z"/>
<path class="st11" d="M7.7,89.6C7.4,87.8,7.2,86,7,84.1C6.6,80.6,6.5,77,6.8,73.4c0.2-2.1,0.2-4.1,0.4-6.2c0.1-0.9,0.4-1.8,0.6-2.7
	c0.3-1.4,0.5-2.9,0.8-4.4L9.1,60l3.1-0.3l1,0.1c0.4,1.6,0.8,3.3,1.3,4.9c1,3.3,2,6.6,3.2,9.8c0.4,1.3,1,2.6,1.8,3.8
	c2.1,3.6,3.3,7.8,3.4,12l-3.3,0.1h-0.8c-0.1,0-0.2,0-0.2,0H18L10.9,90l-1.8-0.1l0,0l-1.3-0.2L7.7,89.6z"/>
<path class="st6" d="M76.4,6c-0.5,0-1,0.2-1.5,0.2C67.9,6.4,61,7.7,54.4,10c-0.7,0.2-1.2,0.5-1.2,1.3c-1.6,0.6-3.1,1.3-4.6,2.1
	c-1.8,1.1-3.5,2.3-5,3.8c-1.6,1.7-3,3.6-4.4,5.5c-1-0.1-1.9-0.1-2.9,0c-0.9,0.2-1.7,0.4-2.6,0.6c0-0.8,0.3-1.5,0.9-2
	c2.8-3.6,6.3-6.6,10.3-8.8c1.9-1,3.8-2,5.8-2.8c2.3-0.9,4.6-1.6,7-2.2c1.6-0.5,3.2-0.9,4.9-1.2c1.9-0.3,3.7-0.4,5.6-0.6L70,5.5
	c0.1,0,0.3-0.1,0.4,0c1.2,0.4,2.4,0,3.6,0C74.8,5.6,75.6,5.8,76.4,6z"/>
<path class="st12" d="M33.8,23.3c0.8-0.3,1.7-0.5,2.6-0.6c1-0.1,1.9-0.1,2.9,0v0.1c-0.1,0-0.2,0-0.3,0c-1,0.9-2,1.8-2.9,2.7
	c-0.1,0.1,0,0.5,0,0.8c-1.1-0.2-2.2-0.1-3.2,0.5c-1.1,0.6-2.2,1.2-3.2,2c-2.9,2.3-5.3,5.1-7.2,8.3c-0.7,1.3-1.3,2.6-1.8,4
	c-0.4,1-0.3,2.1,0.3,3l0.1,0.4c-1.2,1.3-2,2.9-2.3,4.6c-0.1,0-0.2,0-0.2,0c-0.9-1.2-1.4-2.7-1.4-4.3c0.4-3.9,1.9-7.6,4.3-10.7
	c3-4.5,7.1-8.2,12-10.6L33.8,23.3L33.8,23.3z"/>
<path class="st6" d="M7.7,89.6l0.3,0.1l1.2,0.2l0,0c-0.1,1.4,0.1,2.7,0.6,4c0.8,2,1.6,4.1,2.5,6.1c1.5,3.1,3.2,6.1,5,8.9
	c0.2,0.3,0.6,0.4,0.9,0.6l0.5,2l1.5,0.6l0.3,0.2l0,0c-0.1,1.1,0.7,1.8,1.2,2.7c0.3,0.4,0.6,0.7,0.5,1.2c-0.6,0-1.2-0.2-1.6,0.5
	c-1-0.3-1.4-1.2-1.9-1.9c-1.7-2.2-3.1-4.7-4.6-7.1c-1.9-3.2-3.6-6.5-4.9-10C8,95.1,7.5,92.4,7.7,89.6z"/>
<path class="st8" d="M17.1,44.8c0,1.5,0.5,3,1.4,4.3c0,0.2-0.1,0.3-0.1,0.5c-1.1,1.7-2.3,3.3-3.4,5c-1.2,1.6-2.1,3.3-2.8,5.1L9.1,60
	c0.3-1,0.6-1.9,1-2.8c1-2.1,2.1-4.1,3.2-6.2c0.8-1.5,1.6-3,2.4-4.5C16.1,45.8,16.3,45,17.1,44.8z"/>
<path class="st9" d="M20.5,116.6c0.4-0.6,1-0.5,1.6-0.5c1.6,1,3,2.4,3.9,4c0.5,0.8,0.9,1.8,1.4,2.6c0,0.4,0.1,0.8,0.1,1.1
	c0.1,1.2-0.1,1.3-1.3,1.4l-2.1-1.3l0,0l-0.2-0.2l-1.9-2.3l-0.8-1.6C20.7,118.9,20.4,117.7,20.5,116.6z"/>
<path class="st6" d="M81.7,6.2L78.9,6L81.7,6.2z"/>
<path class="st6" d="M33.8,23.3l-0.3,0.2L33.8,23.3z"/>
<path class="st2" d="M24.1,124l2.1,1.3c1.2,0.3,2.2,0.9,3,1.8c1.5,1.4,2.8,3.2,4.7,4.2c0.2,0.1,0.3,0.3,0.5,0.4
	c2.1,2.2,4.7,3.6,7.1,5.4c1,0.7,2,1.3,3,1.9c1.3,0.8,2.6,1.6,4,2.4c2,1,4.1,1.8,6.3,2.3c0,0.6,0.4,0.8,0.9,0.9l5.8,1.6l1,0.3
	c-0.2,0.2-0.4,0.4-0.6,0.4c-0.7,0-1.4-0.1-2.1-0.3c-2.2-0.6-4.4-1.4-6.7-1.9c-2.1-0.6-4.1-1.4-6-2.3c-0.9-0.4-1.8-0.8-2.7-1.4
	c-2.7-1.6-5.4-3.3-7.9-5.2c-1.2-1-2.5-1.9-3.7-2.8c-0.4-0.3-0.7-0.6-1-0.9c-1.3-1.1-2.6-2.3-3.9-3.5s-2.2-2.3-3.3-3.5
	C24.4,124.9,24.2,124.4,24.1,124z"/>
<path class="st2" d="M23.9,123.7l0.2,0.2L23.9,123.7z"/>
<path class="st13" d="M143.7,74.8c0.5-0.2,0.4-0.7,0.3-1.1c-0.7-3.5-1.7-7-3-10.4c-1-2.6-2.1-5.1-3.4-7.5c-0.3-0.5-0.1-0.7,0.4-0.8
	l2,0.5c3.1,2,5.3,5,6.4,8.5c3.1,8.5,3.1,17.9-0.1,26.4c-0.5,1.2-1.1,2.3-1.7,3.4c-0.2-0.5-0.4-0.9,0-1.4c0.1-0.2,0.2-0.4,0.2-0.7
	c0.1-1.5,0.2-3.1,0.3-4.6v-0.5c0.1-0.4,0.2-0.8,0.3-1.2c0.1-0.6,0.1-1.2,0.1-1.7c0.1-1,0.1-1.9,0-2.9c-0.2-1.1-0.3-2.2-0.3-3.3
	c0.2-0.4-0.1-0.8-0.3-1.1L143.7,74.8z"/>
<path class="st13" d="M113.4,25.5l0.4-0.9c0.9-1.5,2.6-2.3,4.3-2c1.6,0.2,3.2,0.6,4.7,1.3c5.8,3.2,10.5,8.1,13.5,14
	c0.7,1.7,1.4,3.5,1.9,5.3c0,1.2,0,2.4-0.2,3.6c-0.4,1.9-2.1,3.2-4,3c-0.5-0.8-0.9-1.7-1.4-2.5c-0.3-0.6-0.8-1.1-1.2-1.6l1.3-0.4
	c1.2-0.2,2.1-1.1,2.2-2.3c0-0.5,0-1.1-0.1-1.6c-0.6-2.3-1.7-4.5-3.2-6.4c-1.4-2-3.1-3.8-5-5.4c-1.3-1-2.6-2-4-2.8
	c-0.6-0.3-1.3-0.5-2-0.6c-1.3-0.2-2.6,0.6-2.9,2c0,0.3-0.1,0.5,0,0.8c0.1,1,0.2,2,0.4,3c-1.7-0.5-3-1.8-3.6-3.5
	c-0.3-0.7-0.4-1.5-1.2-1.9L113.4,25.5z"/>
<path class="st14" d="M134,49.9c1.9,0.2,3.6-1.1,4-3c0.2-1.2,0.2-2.4,0.2-3.6c0.2,0.1,0.5,0.1,0.6,0.2c1.3,2.3,2.2,4.8,2.6,7.4
	c0.1,1.2-0.2,2.4-0.9,3.5c-0.2,0.3-0.3,0.7-0.4,1l-2-0.5l-1.1-0.2c-0.7-1.3-1.5-2.6-2.2-3.9c-0.2-0.5-0.7-0.7-1.2-0.7
	c-0.5,0-1-0.1-1.4-0.2L134,49.9z"/>
<path class="st15" d="M145.1,87.2c-0.1,1.5-0.1,3.1-0.3,4.6c0,0.2-0.1,0.5-0.2,0.7c-0.5,0.5-0.2,0.9,0,1.4l-1,1.5
	c0-1.1,0.1-2.3,0.5-3.3c0.3-1.3,0.4-2.7,0.5-4.1C144.6,87.5,144.7,87.2,145.1,87.2z"/>
<path class="st16" d="M60.8,124.2l-6.2-1.1l-1.2-0.2v4.8c-0.7-0.3-1.4-0.7-2.1-1s-1.1-0.8-1.6-1.2c-0.9-0.7-1.9-1.4-2.8-2.1
	c-1.3-1-2.6-2.1-3.8-3.2c-0.4-0.4-0.9-0.6-1.5-0.5c-0.9-2-1.8-4-2.9-5.9c-0.8-1.2-1.7-2.4-2.6-3.5c-1.5-2.1-3.3-4-5.4-5.6
	c-0.8-0.6-1.6-1.1-2.4-1.6l-0.5-0.4l0,0l-0.5-0.2c-0.1,0-0.2,0-0.2-0.1c0.1-0.7-0.4-1.2-0.6-1.7c-0.6-0.9-1.1-1.9-1.5-2.9
	c-0.5-1.6-0.7-3.2-0.7-4.8c-0.1-0.8,0.2-1.5,0.8-2l0.7,0.6c0.6,0.7,1.1,1.5,1.7,2.2c0.6,0.6,1.2,1.1,1.9,1.6
	c1.2,1.3,2.5,2.6,3.8,3.8c0-0.5,0-0.7,0-0.9c-0.4-2.2-0.8-4.5-1.1-6.7c-0.3-1.9-0.4-3.8-0.6-5.8l5-0.5c0.2-0.1,0.5-0.1,0.7-0.3
	c2.3-1.1,4.8-1.8,7.4-1.9c2.5-0.3,5-0.2,7.4-0.3c0.7,1.3,1.3,2.6,2.1,3.8c1.7,2.5,3.5,5,5.3,7.4c2.1,3,4.5,5.8,7.2,8.3
	c1.2,1,2.4,1.9,3.6,2.8c-0.1,0.2-0.2,0.3-0.3,0.5c-0.6,1.4-1.2,2.7-1.9,4.1c-0.4,0.8-1,1.5-1.3,2.3s-0.7,1.8-1.1,2.7
	c-0.3,0.7-0.9,1.4-0.9,2.2c-0.1,1.5-0.5,3-1,4.4c-0.2,0.6-0.1,1.3,0.2,1.8c-0.1,0.2-0.2,0.4-0.3,0.6c-0.9,1.4-0.6,1.4-2.3,1
	L60.8,124.2z"/>
<path class="st17" d="M117.5,106.5l-1.6,2.3l-3.3-0.8c-0.3-0.1-0.7-0.2-1-0.2c-1.4,0.2-2.5,1.1-3.2,2.2c-0.6,1.1-1.2,2.1-1.9,3.1
	c-0.3,0.5-0.7,1-0.9,1.5c-1.3,2.4-1.8,5.3-1.4,8c0.1,0.9,0.9,1.5,1.7,1.4c0.1,0,0.1,0,0.2,0c3-0.6,5.9-1.7,8.4-3.5
	c0.8-0.6,1.5-1.2,2.2-1.9c0.5-0.6,1.2-0.9,1.9-1c-0.1,1.4-0.1,2.7-0.2,4.1c-0.3,0.1-0.6,0.2-0.9,0.4c-0.6,0.4-1.2,0.9-1.8,1.4
	c-3.4,2.3-7.1,4.2-11,5.6c-1,0.3-2,0.6-3,0.8c0.1-1.9,0.1-3.8,0.2-5.6c0-0.4,0-0.9,0-1.5l-1.9,0.4l-3.2,0.7c0-0.3,0-0.6,0.1-0.9
	c1.3-3.5,2.5-7.1,4.1-10.6c1.1-2.2,2.4-4.4,3.8-6.5c0.2-0.4,0.5-0.7,0.9-0.9c1.5-1.1,3.4-1.5,5.3-1.1c1.9,0.4,3.8,1.2,5.4,2.3
	C116.8,106.2,117.2,106.4,117.5,106.5z"/>
<path class="st18" d="M120.5,104.4l-1,0.5c-0.9-0.6-1.7-1.2-2.6-1.7s-1.8-0.9-2.7-1.4c-2.8-1.7-6.2-2.2-9.4-1.5
	c-0.3,0.1-0.6,0.2-0.8,0.4c-1.1,0.6-2,1.5-2.7,2.6c-1.1,1.7-2.5,3.3-3.3,5.2c-0.3,0.8-0.6,1.7-1,2.5c-1,2.3-1.9,4.6-3,6.8
	c-0.7,1.6-1.2,3.3-2.3,4.6c-0.5-0.8-1.1-1.6-1.6-2.4c-0.2-0.5-0.8-0.8-1.3-0.6c-0.5,0.1-0.9,0.1-1.4,0.1c0.3-0.8,0.5-1.6,0.8-2.3
	c0.4-0.7,0.7-1.4,0.9-2.2c0.5-1.9,1.1-3.7,1.9-5.4c0.3-0.6,0.4-1.2,0.6-1.8c0.1-0.4-0.1-0.6-0.5-0.7c0.2-0.1,0.4-0.2,0.5-0.3
	c3.9-1.5,7.2-4.4,9.3-8.1c0.7-1.2,1.3-2.5,2-3.8c0.4,0.1,0.8,0.2,1.2,0.3c0.4,0,0.8,0,1.1,0.1c1.5,0.6,2.9,1.3,4.4,1.9
	c1.3,0.6,2.5,1.3,3.7,1.8C116.1,100.3,118.6,102.2,120.5,104.4z"/>
<path class="st19" d="M63.7,122.8c-0.3-0.6-0.4-1.2-0.2-1.8c0.5-1.4,0.9-2.9,1-4.4c0-0.7,0.6-1.4,0.9-2.2c0.4-0.9,0.7-1.8,1.1-2.7
	s1-1.5,1.3-2.3c0.7-1.3,1.3-2.7,1.9-4.1c0.1-0.2,0.2-0.3,0.3-0.5l1,0.5c2.7,1.5,5.7,2.5,8.8,2.9c-0.2,0.6-0.3,1.1-0.5,1.7
	c-0.7,1.6-1.4,3.2-2,4.9s-0.9,3.3-1.4,5l-1.3,0.1l-3.3-0.1l-2.3-0.2l-3.3-0.2L63.7,122.8z"/>
<path class="st20" d="M91.8,122.5c1.1-1.4,1.5-3.1,2.3-4.6c1.1-2.2,2-4.6,3-6.8c0.3-0.8,0.6-1.7,1-2.5c0.8-1.9,2.2-3.5,3.3-5.2
	c0.7-1.1,1.6-2,2.7-2.6c0.2-0.2,0.5-0.3,0.8-0.4c3.2-0.7,6.5-0.2,9.4,1.5c0.9,0.5,1.8,0.9,2.7,1.4s1.8,1.1,2.6,1.7l-2,1.5
	c-0.3-0.1-0.7-0.2-1-0.4c-1.7-1.1-3.5-1.8-5.4-2.3c-1.8-0.4-3.8-0.1-5.3,1.1c-0.4,0.2-0.7,0.5-0.9,0.9c-1.4,2.1-2.7,4.2-3.8,6.5
	c-1.5,3.4-2.7,7-4.1,10.6c-0.1,0.3-0.1,0.6-0.1,0.9l-3.8,0.9L91.8,122.5z"/>
<path class="st21" d="M74.8,119.9l1.3-0.1c0.5-1.7,0.8-3.4,1.4-5s1.3-3.3,2-4.9c0.2-0.5,0.3-1.1,0.5-1.7c1.4,0,2.9,0.1,4.3,0.1
	c2.4,0,4.8-0.4,7.1-1.1c0.4,0.1,0.6,0.2,0.5,0.7c-0.2,0.6-0.4,1.2-0.6,1.8c-0.8,1.7-1.4,3.5-1.9,5.4c-0.2,0.8-0.5,1.5-0.9,2.2
	c-0.3,0.8-0.6,1.6-0.8,2.3c-3.8,0.4-7.6,0.6-11.4,0.5C75.7,120,75.3,120,74.8,119.9z"/>
<path class="st22" d="M41.7,119.6c0.5-0.1,1.1,0.1,1.5,0.5c1.3,1.1,2.5,2.2,3.8,3.2c0.9,0.7,1.8,1.4,2.8,2.1c0.5,0.4,1,0.9,1.6,1.2
	s1.4,0.7,2.1,1c0.1,1.3,0.2,2.5,0.3,3.8l0.5,7.3c0,0.2,0,0.4,0,0.6c-0.5-0.1-0.9-0.2-1.3-0.3c-1.4-0.7-2.8-1.4-4.1-2.2
	c-1.7-1-3.2-2.2-4.8-3.4c-0.5-0.4-1.1-0.8-1.2-1.5c0.1-0.8,0.2-1.5,0.3-2.2C43.3,126.3,42.8,122.9,41.7,119.6z"/>
<path class="st22" d="M89.5,138.4c-0.2,2-1.2,3.7-2.9,4.8c-2.1,1.5-4.5,2.3-7.1,2.5c-3.2,0.4-6.5-0.2-9.4-1.7
	c-0.9-0.5-1.7-1.1-2.5-1.8c-1.9-1.6-2.4-4.2-1.4-6.5c1-2.3,2.8-4.1,5-5.2c1.2-0.7,2.5-1.1,3.9-1.3l0.8-0.2l1.8-0.1
	c-0.3,1.1-0.7,2.1-1,3.2c-0.2,0-0.4,0.1-0.6,0.1c-2.2,0.4-4.2,1.7-5.3,3.6c-0.9,1.4-0.8,3.2,0.3,4.5c1.1,1.3,2.6,2.2,4.2,2.7
	c4.3,1.2,8.4-0.6,10-4.4L89.5,138.4z"/>
<path class="st18" d="M101.8,129.8c1-0.2,2-0.5,3-0.8c3.9-1.4,7.6-3.2,11-5.6c0.6-0.4,1.2-0.9,1.8-1.4c0.3-0.2,0.6-0.3,0.9-0.4
	c0,0.7-0.1,1.4-0.1,2.1c0.1,0.7-0.3,1.3-0.9,1.7c-2,1.4-3.8,3.2-5.1,5.3c-0.7,0.1-1.4,0.3-2.1,0.5c-2,0.8-4,1.8-6,2.6
	c-0.9,0.3-1.9,0.6-2.9,0.8L101.8,129.8z"/>
<path class="st6" d="M54.7,143.8c-2.2-0.5-4.3-1.3-6.3-2.3c-1.4-0.7-2.7-1.6-4-2.4c-1-0.6-2-1.2-3-1.9c-2.4-1.8-5-3.2-7.1-5.4
	c-0.1-0.2-0.3-0.3-0.5-0.4c-1.9-1.1-3.1-2.8-4.7-4.2c-0.8-0.9-1.8-1.5-3-1.8c1.2-0.1,1.4-0.3,1.3-1.4c0-0.4-0.1-0.7-0.1-1.1
	c0.2-0.1,0.4-0.2,0.5-0.2c0.2,0.2,0.4,0.5,0.6,0.7c0.6,0.7,1.2,1.5,2.2,1.7l0.4,1l0.2,2.4l3.9,1.4c0.6,0.3,1.1,0.6,1.6,1
	c2.6,2.2,5.4,4.2,8.4,6c1.8,1.2,3.7,2.2,5.6,3.3c1.1,0.8,2.3,1.2,3.6,1.4L54.7,143.8z"/>
<path class="st18" d="M89.5,138.4l-4.2,0.2c0.2-1.6-0.5-3.2-1.7-4.3c-1.4-1.2-3.1-1.9-4.9-2.1c-0.7-0.1-1.3-0.1-2-0.1
	c0.3-1.1,0.7-2.1,1-3.2h1h0.5c4.3,0.5,7.8,2.3,9.8,6.3C89.4,136.3,89.6,137.4,89.5,138.4z"/>
<path class="st14" d="M54.5,141.5c-1.3-0.2-2.5-0.6-3.6-1.4c-1.9-1.1-3.8-2.1-5.7-3.3c-2.9-1.8-5.7-3.8-8.4-6c-0.5-0.4-1-0.7-1.6-1
	l0.2-2.8c0.7-0.1,1,0.5,1.4,0.9c0.6,0.6,1.1,1.3,2,1.4v1.7l4,1c0.1,0.8,0.7,1.1,1.2,1.5c1.6,1.1,3.2,2.3,4.8,3.4
	c1.3,0.8,2.7,1.5,4.1,2.2c0.4,0.2,0.9,0.3,1.3,0.3C54.3,140.1,54.4,140.8,54.5,141.5z"/>
<path class="st19" d="M101.5,134.6c1-0.2,2-0.4,2.9-0.8c2-0.8,4-1.8,6-2.6c0.7-0.2,1.4-0.4,2.1-0.5c-0.7,1.2-1,2.6-1.1,4
	c-1.1,0.4-2.2,0.8-3.3,1.1c-2.3,0.7-4.5,1.4-6.8,2.1C101.3,137,101.4,135.8,101.5,134.6z"/>
<path class="st17" d="M69.3,119.6l2.3,0.2L69.3,119.6z"/>
<path class="st18" d="M75.8,129.1l-0.8,0.2L75.8,129.1z"/>
<path class="st22" d="M79.1,129.1h-0.5H79.1z"/>
<path class="st19" d="M60.8,124.2l0.3,0.1L60.8,124.2z"/>
<path class="st8" d="M130.7,96.3c-0.3,0.8-0.1,1.6,0.3,2.3c1.1,2,2.2,4,3.3,6.1c0.6,1.1,1,2.4,1.5,3.6c-0.4,0.4-0.8,0.8-1.2,1.3
	c-0.3,0.5-0.9,0.7-1.4,0.4c0,0,0,0,0,0c-0.1-1-0.5-2-1.1-2.9c-1-1.4-2-2.8-2.9-4.3c-1.6-2.7-3.1-5.6-4.7-8.3l-3.2-5.6
	c-0.8-1.4-1.7-2.7-2.3-4.2c-0.9-1.8-2.1-3.5-3.6-4.9c-1.2-1.1-2.4-2.2-3.8-3.1c-0.4-0.3-0.7-0.7-1.3-0.6c-0.4-1.2-0.7-2.5-0.9-3.8
	c-0.1-1.2-0.7-2.4-0.1-3.7c0.4-0.8,0.6-1.6,0.7-2.5c0.2-1.3,0.7-2.5,1.3-3.6c0.7-1.5,1.8-2.9,2.4-4.5c0.2-0.5,0.5-0.9,0.9-1.2
	c0.6-0.6,1.3-1.1,1.9-1.7c1.1-1.3,2.4-2.5,3.7-3.5c0.1-0.1,0.2-0.4,0.2-0.6c0.4-0.1,0.8-0.3,1.1-0.4c1.5-0.9,2.9-1.9,4.2-3.1
	l5.1,2.6c0.1,0.5-0.1,1-0.4,1.4c-1,1.2-2,2.5-2.9,3.8c-1.1,1.6-2,3.3-3,4.9c-1.5,2.6-2.7,5.3-3.4,8.2c0,0.1-0.1,0.2-0.1,0.4
	c-0.1,2.8-0.9,5.6-0.3,8.4c0.3,1.3,0.5,2.7,0.9,4c0.2,0.5,0.5,1.1,0.9,1.5c0.4,0.6,0.9,1.2,1.3,1.8c0.4,0.5,0.7,1,1.2,1.5
	c0.2,0.2,0.6,0.3,0.9,0.4c0.3,1.1,0.7,2.3,1,3.4C127.8,91.8,129,94.1,130.7,96.3z"/>
<path class="st6" d="M125.9,85.9c-0.3-0.1-0.7-0.2-0.9-0.4c-0.4-0.5-0.8-1-1.2-1.5c-0.4-0.6-0.9-1.2-1.3-1.8c-0.4-0.4-0.7-1-0.9-1.5
	c-0.4-1.3-0.6-2.7-0.9-4c-0.7-2.8,0.2-5.6,0.3-8.4c0-0.1,0-0.2,0.1-0.4c0.7-2.9,1.9-5.6,3.4-8.2c1-1.6,2-3.3,3-4.9
	c0.9-1.3,1.9-2.6,2.9-3.8c0.3-0.4,0.5-0.9,0.4-1.4l1.3,0.3c0.5,0.1,1,0.2,1.4,0.2c0.5-0.1,1,0.2,1.2,0.7c0.7,1.3,1.4,2.6,2.2,3.9
	c-3.1,0.1-5.2,1.8-6.9,4.1c-2.1,2.9-3.6,6.2-4.2,9.7c-1.1,5.4-1.1,11-0.1,16.4C125.8,85.2,125.9,85.6,125.9,85.9z"/>
<path class="st3" d="M143.7,74.8l1.1,1.6c0.2,0.3,0.5,0.7,0.3,1.1l-0.5,0.7c-2.3,3-4.9,5.8-7.7,8.4l-0.7,0.6c0,0-0.1,0-0.1,0V66.7
	c0.4,0.3,0.7,0.6,1,0.9c1.9,2.1,3.8,4.2,5.7,6.3L143.7,74.8z"/>
<path class="st15" d="M144.6,78.3l0.5-0.7c0,1.1,0.1,2.2,0.3,3.3c0.1,1,0.1,1.9,0,2.9c0,0.6,0,1.2-0.1,1.7c-0.1,0.4-0.1,0.8-0.3,1.2
	c-0.1-0.3-0.2-0.6-0.2-0.9c0-0.9,0-1.8,0-2.6C144.8,81.5,144.7,79.9,144.6,78.3z"/>
<path class="st14" d="M110.4,75.8c0.6-0.1,0.9,0.3,1.3,0.6c1.3,1,2.6,2,3.8,3.1c1.5,1.4,2.7,3.1,3.6,4.9c0.7,1.4,1.6,2.8,2.3,4.2
	l3.2,5.6c1.6,2.8,3.1,5.6,4.7,8.3c0.9,1.5,1.9,2.9,2.9,4.3c0.6,0.9,1,1.9,1.1,2.9l-2.5-0.3c-0.4-3.5-2.2-6.4-4-9.3
	c-1-1.5-2-3-3.2-4.4c-0.7-1-1.5-1.9-2.3-2.7c-2.1-1.8-4.3-3.5-6.5-5.1c-1.6-1.2-3.3-2.3-5.1-3.3c-1.1-0.8-2.3-1.3-3.6-1.6
	c0.1-1.2,0.2-2.5,0.4-3.7c0.1-1,0.2-1.9,0.4-2.8C108,76.4,109.1,75.6,110.4,75.8z"/>
<path class="st23" d="M118.8,117.6c-0.8,0.1-1.4,0.4-1.9,1c-0.7,0.7-1.4,1.3-2.2,1.9c-2.5,1.8-5.4,2.9-8.4,3.5
	c-0.8,0.2-1.7-0.3-1.9-1.2c0-0.1,0-0.1,0-0.2c-0.5-2.7,0-5.6,1.4-8c0.3-0.5,0.6-1,0.9-1.5c0.6-1,1.3-2.1,1.9-3.1
	c0.7-1.2,1.9-2,3.2-2.2c0.3,0,0.7,0,1,0.2l3.3,0.8c-0.5,1.2-0.7,2.5-0.8,3.8c-0.1,1.8,1.2,3.3,3,3.6
	C119,116.3,119.1,116.4,118.8,117.6z"/>
<path class="st21" d="M120.5,104.4c-1.9-2.3-4.4-4.1-7.1-5.3c-1.3-0.6-2.5-1.3-3.7-1.8c-1.4-0.7-2.9-1.3-4.4-1.9
	c-0.4-0.1-0.8-0.1-1.1-0.1c-0.4,0-0.8-0.2-1.2-0.3c0.5-1.5,1-3,1.5-4.6c1,0.1,2.1,0.2,3.1,0.4c1.8,0.2,3.5,0.8,5.1,1.6
	c1.8,1.1,3.8,1.9,5.8,2.9c0.5,0.4,1,0.8,1.4,1.2c0.3,0.3,0.6,0.5,0.8,0.8c0.9,0.6,1.7,1.2,2.5,1.9c0.7,0.7,1.2,1.5,1.8,2.2
	c1.2,1.3,2.1,2.9,2.7,4.6c0.5,1,0.7,2.1,0.7,3.2l-2.3-0.2c-0.1-0.6-0.2-1.2-0.3-1.7c-0.3-2.7-2.5-3.3-4.3-3.1
	C121.2,104.3,120.9,104.3,120.5,104.4z"/>
<path class="st22" d="M128.4,109.2c0.1-1.1-0.2-2.2-0.7-3.2c-0.6-1.7-1.5-3.2-2.7-4.6c-0.7-0.7-1.2-1.6-1.8-2.2
	c-0.8-0.7-1.6-1.3-2.5-1.9c-0.3-0.2-0.6-0.5-0.8-0.8c-0.4-0.5-0.9-0.9-1.4-1.2c-1.9-1-3.9-1.8-5.8-2.9c-1.6-0.8-3.3-1.3-5.1-1.6
	c-1-0.2-2.1-0.3-3.1-0.4c0.2-0.8,0.3-1.5,0.5-2.3c0.3-1.7,0.7-3.4,1-5c1.3,0.2,2.5,0.8,3.6,1.6c1.8,1,3.4,2.1,5.1,3.3
	c2.2,1.6,4.4,3.4,6.5,5.2c0.9,0.8,1.6,1.7,2.3,2.7c1.1,1.4,2.2,2.9,3.2,4.4c1.8,2.9,3.5,5.8,4,9.3L128.4,109.2z"/>
<path class="st21" d="M126.1,113.1h0.5l1.3,0.2l4.3,0.3c0.3,0.5,0.2,1.2-0.2,1.7c-2.3,3.1-4.9,5.9-7.7,8.6l-2.5-0.2l-0.2-0.2
	l0.2-0.8c1.1,0,1.6-0.8,2-1.5C125.3,118.7,126.1,115.9,126.1,113.1z"/>
<path class="st20" d="M126.1,113.1c0.1,2.9-0.7,5.7-2.3,8.1c-0.5,0.7-1,1.6-2,1.5c0.1-1.4,0.2-2.8,0.3-4.3c0.1-0.8,0.2-1.7,0.2-2.5
	c0-0.6,0.2-1.3,0.8-1.6c0.2-0.1,0.4-0.3,0.5-0.5c0.4-0.8,1.4-1.2,2.2-0.8C125.9,113,126,113,126.1,113.1z"/>
<path class="st12" d="M137.2,113.8c-0.4,0.5-0.9,1-1.3,1.5c-0.5,0.7-1.3,1.1-2.2,1.1c0.6-1,1.2-1.9,1.8-2.9c1-1.7,1.9-3.4,2.9-5.1
	c0.5,0.5,0.6,1.2,0.3,1.9C138.2,111.4,137.7,112.6,137.2,113.8z"/>
<path class="st20" d="M127.9,113.3l-1.3-0.2L127.9,113.3z"/>
<path class="st18" d="M136.7,107.7c0.3-0.3,0.7-0.3,1,0c0,0,0,0,0,0H136.7z"/>
<path class="st8" d="M136.3,107.9l0.3-0.2L136.3,107.9z"/>
<path class="st20" d="M121.6,123.5l0.2,0.2L121.6,123.5z"/>
<path class="st22" d="M113.4,25.5v1c-0.1,0.2-0.2,0.5-0.2,0.7c-0.1,1.2,0,2.3,0.4,3.4c0.5,1.7,1.1,3.2,2,4.7
	c0.1,0.3,0.2,0.5,0.3,0.8c0.7,1.1,1.3,2.2,2,3.2c-0.3,0-0.6-0.1-0.8-0.2c-0.7-0.5-1.3-1.1-2-1.7c-1.2-1-2.3-2.1-3.6-3.2
	c-0.6-0.5-1.3-0.8-1.9-1.2c-1.6-1.4-3.3-2.6-5.2-3.5c-0.4-0.2-0.9-0.5-1.3-0.8c-1-0.6-2-1.3-3-1.9c-0.2-0.1-0.4-0.1-0.6-0.1
	c-0.8-0.2-1.6-0.3-2.4-0.6c-0.3-0.1-0.4-0.4-0.7-0.7l5.7,1.1l1.6,0.3c0-3.1-1-10.7-1.4-11.4H101c-4.4,0-8.7,0.4-13,1.1
	c-2.8,0.4-5.5,1.2-8.1,2.4c-1.3,0.7-2.9,0.7-4.2,0c-7.2-2.8-14.8-3.7-22.4-3.6c-0.2,0-0.4,0.1-0.6,0.1v1.4c-0.1,0.6-0.2,1.2-0.3,1.9
	c-0.2,2.2-0.4,4.3-0.6,6.5c-0.7,0.2-1.3,0.5-2,0.8c-2.3,1.6-4.7,3.4-7,5.1c-0.5,0.3-1,0.5-1.5,0.7c0.1-0.5,0.2-0.9,0.3-1.4
	c0.6-1.8,0.6-3.7,0.1-5.5c0.3-0.1,0.8-0.1,1-0.3c1.4-1.4,2.7-2.8,3.8-4.3c1.6-2,3.5-3.8,5.7-5.1c1.2-0.9,2.6-1.4,3.9-2.2
	c0.3-0.1,0.4-0.5,0.6-0.7c3.2,0,6.3,0.3,9.4,0.9c3.7,0.7,7.4,1.7,10.9,3.1c0.5,0.2,1.1,0.2,1.6,0c3.9-1.7,8.1-2.8,12.3-3.2
	c2.4-0.3,4.8-0.5,7.2-0.7c0.6-0.1,1.2,0,1.8,0c-0.3,0.6-0.1,0.8,0.5,1c2.2,0.9,4.3,1.8,6.5,2.7c0.9,0.4,1.8,1,2.7,1.3
	c1.6,0.6,2.8,1.8,4.2,2.7c0.2,0.1,0.2,0.4,0.3,0.6c-0.6,0-1.2,0-1.8,0c-1,0-1.2,0.3-0.8,1.1C112.1,23.1,112.8,24.3,113.4,25.5z"/>
<path class="st14" d="M56.8,12.3c-0.2,0.3-0.3,0.6-0.6,0.7c-1.3,0.8-2.7,1.3-3.9,2.2c-2.2,1.4-4.1,3.1-5.7,5.1
	c-1.2,1.5-2.5,3-3.8,4.3c-0.2,0.2-0.7,0.2-1,0.3c-0.4-0.9-1.1-1.6-2.1-2l-0.4-0.2c0,0-0.1,0-0.1,0c0,0,0,0,0,0v-0.1
	c1.4-1.9,2.8-3.7,4.4-5.5c1.5-1.4,3.2-2.7,5-3.8c1.5-0.8,3-1.5,4.6-2.1c0,0.3,0,0.5,0,0.8c0.1,0.1,0.2,0.2,0.3,0.2
	c0.8,0,1.7,0,2.6,0L56.8,12.3z"/>
<path class="st8" d="M114.2,20.7c-0.1-0.2-0.2-0.5-0.3-0.6c-1.4-0.9-2.6-2.1-4.2-2.7c-0.9-0.3-1.8-0.9-2.7-1.3
	c-2.2-0.9-4.3-1.8-6.5-2.7c-0.5-0.2-0.8-0.4-0.5-1l2.5-0.1c0.4,0.2,0.8,0.3,1.2,0.5c0.7,0.3,1.3,0.6,2,0.9s1.3,0.6,2,1
	c1.8,1,3.7,1.9,5.5,3c1,0.6,1.9,1.2,2.9,1.8c0.3,0.3,0.6,0.6,0.8,1C115.9,21,115,20.6,114.2,20.7z"/>
<path class="st22" d="M56.1,12.3c-0.9,0-1.7,0-2.6,0c-0.1,0-0.2-0.1-0.3-0.2L56.1,12.3z"/>
<path class="st22" d="M38.8,129.3c-0.9-0.1-1.4-0.8-2-1.4c-0.4-0.4-0.7-1-1.4-0.9c-0.1-1.7-0.5-3.5-1.2-5.1c-0.3-0.8-0.6-1.6-1-2.4
	c-2-4-4.9-7.4-8.7-9.9c-1.9-1.2-3.9-2-6.1-2.4c-0.1-0.3,0-0.7-0.2-1c-0.9-1.2-1.3-2.7-2.3-3.9c-0.7-1.1-1.3-2.3-1.8-3.6
	C12.8,96,11.7,93,10.9,90l7.1,0.2c0.3,2.3,1,4.5,2.1,6.5c0.5,1,1.3,1.9,1.2,3.1c-1.4-0.1-2.8-0.6-4.3-0.4c-0.1,1.4,0,2.8,0.3,4.1
	c0.6,0,1.3,0.1,1.9,0.3c1.8,0.5,3.5,1.1,5.3,1.7c2.6,1.5,4.9,3.3,6.9,5.5c1.1,1.2,2,2.5,3,3.7c0.1,0.3,0.3,0.5,0.4,0.8
	c1.9,2.9,3.2,6.2,3.8,9.6C39,126.5,39.1,127.9,38.8,129.3z"/>
<path class="st24" d="M25.9,91.5l-0.7-0.6L25,90.7c0-0.1,0-0.1-0.1-0.1l-0.1-0.1l-2-0.3c-0.1-4.2-1.3-8.4-3.4-12
	c-0.7-1.2-1.3-2.5-1.8-3.8c-1.1-3.3-2.2-6.6-3.2-9.8c-0.5-1.6-0.9-3.2-1.3-4.9l0,0l2.3-0.2H16c0.6,2.2,1.1,4.4,1.9,6.5
	c0.9,2.8,2.2,5.4,3.6,7.9c2,3.3,2.8,6.9,3.6,10.6c0.4,1.9,0.7,3.9,1,5.8C26.1,90.7,26,91.1,25.9,91.5z"/>
<path class="st22" d="M16,59.5h-0.5l-2.3,0.2l0,0l-1-0.1c0.7-1.8,1.7-3.6,2.8-5.1c1.1-1.7,2.3-3.3,3.4-5c0.1-0.1,0.1-0.3,0.1-0.5
	c0.1,0,0.2,0,0.2,0c1.2,0.8,2.7,1.1,4.1,0.8c0.7-0.1,1.5-0.3,2.2-0.5c0.5,0.4,0,0.8-0.1,1.1c-1.3,2.4-2.4,4.9-3.4,7.5
	c-0.1,0.7-0.6,1.2-1.3,1.3v0.1L16,59.5z"/>
<path class="st19" d="M25,90.7l0.2,0.2c-0.6,0.5-0.9,1.2-0.8,2c0,1.6,0.2,3.3,0.6,4.8c0.4,1,0.9,2,1.5,2.9c0.3,0.5,0.8,1,0.6,1.7
	l-1.8-1c-0.4-0.2-0.8-0.4-1.2-0.6c-0.9-0.3-1.9-0.6-2.8-1c0-1.2-0.8-2.1-1.2-3.1c-1.1-2-1.8-4.2-2.1-6.4h1.5
	c0.4,0.1,0.8,0.2,1.2,0.2c1.3,0,2.7,0,4,0l0.1,0.1C24.8,90.6,24.9,90.7,25,90.7z"/>
<path class="st14" d="M10.9,90c0.7,3.1,1.8,6,3.3,8.8c0.5,1.2,1.1,2.4,1.8,3.6c0.9,1.2,1.4,2.7,2.3,3.9c0.2,0.2,0.1,0.6,0.2,1
	l-0.8,0.1l0.3,2.1c-0.3-0.2-0.7-0.3-0.9-0.6c-1.8-2.9-3.5-5.8-5-8.9c-0.9-2-1.7-4-2.5-6.1c-0.5-1.3-0.7-2.6-0.6-4L10.9,90z"/>
<path class="st22" d="M24.8,90.5c-1.4,0-2.7,0-4,0c-0.4,0-0.8-0.1-1.2-0.2l3.3-0.1L24.8,90.5z"/>
<path class="st14" d="M9.1,89.9l-1.2-0.2L9.1,89.9z"/>
<path class="st22" d="M18.8,90.2h-0.2C18.6,90.2,18.7,90.2,18.8,90.2z"/>
<path class="st13" d="M25.1,49.3c-0.7,0.2-1.5,0.4-2.2,0.5c-1.4,0.3-2.9,0-4.1-0.8c0.3-1.7,1.1-3.3,2.3-4.6c1,0.9,2.4,1.1,3.5,0.5
	c1.2-0.5,2.4-1.1,3.5-1.8c3.5-2.5,6.3-5.8,8.3-9.6c0.6-1.1,1-2.3,1.3-3.5c0.3-0.9,0.2-2-0.4-2.8L36,26.2c0-0.3-0.1-0.6,0-0.8
	c1-0.9,2-1.8,3-2.7c0,0,0.2,0,0.3,0c0,0,0.1,0,0.1,0c0,0,0,0,0,0l0.4,0.2c0.9,0.4,1.6,1.1,2.1,2c0.5,1.8,0.5,3.7-0.1,5.5
	c-0.1,0.5-0.2,0.9-0.3,1.4c-0.6,1.4-1.3,2.8-1.9,4.3l0.8,0.3l2,0.8l1,0.4l1.7,0.8l6.7,3.5L49,46.3l-8.4-3.8L39.4,42l-1.8-0.7
	l-1.1-0.5l-5.1,4.8C29.5,47.1,27.3,48.3,25.1,49.3z"/>
<path class="st25" d="M37.3,27.3c0.6,0.8,0.7,1.8,0.4,2.8c-0.3,1.2-0.7,2.4-1.3,3.5c-2,3.8-4.8,7.1-8.3,9.6
	c-1.1,0.7-2.2,1.3-3.4,1.8c-1.2,0.6-2.6,0.3-3.5-0.5c0-0.1-0.1-0.3-0.1-0.4c0.3-0.2,0.7-0.4,1-0.7c0.3-0.3,0.6-0.6,0.8-1
	c1.1-1.2,2.1-2.5,3.2-3.7c1.5-1.6,3-3.2,4.5-4.8c0.9-0.9,2-1.8,2.9-2.7s1.5-1.9,2.3-2.8C36.3,28,36.7,27.6,37.3,27.3z"/>
<path class="st8" d="M37.3,27.3c-0.5,0.3-1,0.7-1.5,1.1c-0.8,0.9-1.5,1.9-2.3,2.8c-0.8,0.9-2,1.8-2.9,2.8c-1.5,1.6-3,3.2-4.5,4.8
	c-1.1,1.2-2.1,2.5-3.2,3.7c-0.2,0.4-0.5,0.7-0.8,1c-0.3,0.2-0.7,0.5-1,0.7c-0.6-0.9-0.7-2-0.3-3c0.4-1.4,1-2.7,1.8-4
	c1.9-3.2,4.3-6,7.2-8.3c1-0.8,2.1-1.4,3.2-2c0.9-0.6,2-0.8,3.1-0.6L37.3,27.3z"/>
<path class="st24" d="M18.1,109.5l-0.3-2.1l0.8-0.1c2.2,0.4,4.2,1.2,6.1,2.4c3.7,2.5,6.7,5.9,8.7,9.9c0.4,0.8,0.7,1.6,1,2.4
	c-0.3,0.2-0.5,0.5-0.7,0.8c-0.5,0.9-1,1.9-1.6,2.8c-0.1,0.2-0.5,0.3-0.8,0.4l-0.4-1c0-0.3-0.1-0.7-0.2-1c-1.3-3.7-3.5-7-6.5-9.5
	c-1.1-1-2.3-1.8-3.7-2.3l0,0l-0.3-0.2l-1.5-0.6L18.1,109.5z"/>
<path class="st14" d="M20.4,112.2c1.4,0.5,2.7,1.3,3.7,2.3c3,2.5,5.2,5.8,6.5,9.5c0.1,0.3,0.1,0.7,0.2,1c-1-0.1-1.6-1-2.2-1.7
	c-0.2-0.3-0.4-0.5-0.6-0.7c-0.1,0-0.3,0.1-0.5,0.2c-0.5-0.9-0.9-1.8-1.4-2.6c-0.9-1.6-2.3-3-3.9-4c0.1-0.5-0.2-0.8-0.5-1.2
	C21,114.1,20.3,113.4,20.4,112.2z"/>
<path class="st14" d="M20.1,112.1l0.3,0.2L20.1,112.1z"/>
<path class="st10" d="M118.2,31.9c-0.2-1-0.4-2-0.4-3c-0.1-1.4,0.9-2.6,2.2-2.7c0.2,0,0.5,0,0.7,0c0.7,0.1,1.4,0.3,2,0.6
	c1.4,0.8,2.7,1.8,4,2.8c1.9,1.6,3.6,3.4,5,5.3c1.5,1.8,2.6,4,3.2,6.3c0.1,0.5,0.2,1.1,0.1,1.6c-0.1,1.2-1,2.3-2.2,2.4l-2-0.3
	c0-0.2-0.1-0.4-0.2-0.6c-1.5-1.7-3-3.4-4.5-5c-1.8-1.8-3.7-3.6-5.6-5.3c-0.4-0.3-0.9-0.5-1.4-0.7L118.2,31.9z"/>
<path class="st5" d="M130.6,45l2,0.3l-1.3,0.4c0.4,0.6,0.8,1.1,1.2,1.6c0.5,0.8,0.9,1.7,1.4,2.5l-1.8,0l-1.3-0.3l-5.1-2.6
	c-1.4-1.2-2.8-2.4-4.3-3.5l-3.5-4.1c-0.7-1.1-1.4-2.2-2-3.2c-0.1-0.3-0.3-0.5-0.3-0.8c1.3-0.1,2.4-0.7,3.3-1.6
	c0.2,0.2,0.3,0.5,0.5,0.7c1.7,2.9,3.9,5.5,6.4,7.6C127.3,43.5,128.9,44.5,130.6,45z"/>
<path class="st24" d="M119,33.9c-0.9,0.9-2.1,1.4-3.3,1.6c-0.9-1.5-1.5-3.1-2-4.7c-0.4-1.1-0.5-2.3-0.4-3.4c0-0.2,0.1-0.5,0.2-0.7
	c0.8,0.4,0.9,1.2,1.2,1.9c0.6,1.7,1.9,2.9,3.6,3.5c0.3,0.5,0.5,1,0.8,1.5C119,33.6,119,33.7,119,33.9z"/>
<path class="st11" d="M106.1,83.1c-0.3,1.7-0.7,3.4-1,5c-0.2,0.8-0.3,1.5-0.5,2.3c-0.5,1.6-1,3.1-1.6,4.6c-0.7,1.3-1.3,2.5-2,3.8
	c-2,3.7-5.3,6.5-9.2,8.1c-0.2,0.1-0.4,0.2-0.5,0.3c-2.3,0.7-4.7,1.1-7.1,1.1c-1.4,0-2.9,0-4.3-0.1c-3.1-0.4-6.1-1.3-8.8-2.9l-1-0.5
	c-1.2-0.9-2.4-1.8-3.6-2.8c-2.7-2.5-5.1-5.3-7.2-8.3c-1.8-2.5-3.6-4.9-5.3-7.4c-0.8-1.2-1.4-2.5-2.1-3.8c-0.3-1.6-0.5-3.3,0.5-4.8
	c0.9-0.3,1.5,0.3,2,0.8c3,3,5.9,5.9,8.8,8.9c0.4,0.4,0.7,0.8,1.2,1.2c0.5-1.5,0.1-3.2-0.9-4.3c-1.2-1.4-2.5-2.8-3.7-4.1
	c0.7-0.1,1.4-0.2,2.1-0.3c0.5,0,1,0,1.5-0.1c0.8,0,1.7,0,2.5-0.1c1.1-0.1,2.3,0.1,3.2-0.7l1,0.8l0.3-0.7c1.1,0.2,2-0.4,3-0.7
	c1.6-0.3,3-1.1,4-2.3c1-1.1,1.9-2.2,2.8-3.4c1.7-2.5,3.2-5.2,4.4-7.9c0.1-0.3,0.1-0.6,0.2-0.9l2,1.6l5.8,5.3
	c0.4,0.4,1.1,0.5,1.6,0.2c0.6-0.3,1.2-0.7,1.7-1.1c0.9-0.9,1.8-1.9,2.6-3c0.8-1.1,1.3-2.3,2-3.5c0.6-1,1.2-2,1.9-3
	c1.5-1.9,4.1-2.6,6.4-1.6c0,0.2,0,0.3,0,0.5c-0.5,3.5-1,7-1.4,10.5c-0.3,2.1-0.4,4.3-0.6,6.4c-0.1,1-0.3,1.9-0.4,2.8
	C106.3,80.6,106.2,81.9,106.1,83.1z"/>
<path class="st19" d="M59.8,80.3c1.3,1.4,2.5,2.7,3.7,4.1c1.1,1.2,1.4,2.8,0.9,4.3c-0.5-0.5-0.8-0.8-1.2-1.2c-2.9-3-5.9-5.9-8.8-8.9
	c-0.5-0.5-1.1-1.1-2-0.8c-1,1.5-0.8,3.1-0.5,4.8c-2.5,0.1-5,0-7.4,0.3c-2.6,0.1-5.1,0.8-7.4,1.9c-0.2,0.1-0.5,0.2-0.7,0.3l-5,0.5
	l-0.3-2c0-0.5,0-1,0-1.5L31,78.1l2.9,0.2c0.3,0,0.7,0,1,0c1.4-0.2,2.7-0.4,4.1-0.5c1.5-0.2,3.1-0.4,4.6-0.5c2.2,0,4.4,0,6.7-0.2
	c1.7-0.3,3.5-0.4,5.2-0.5h0.1l0.2,0.2l0.4,0.3l2.3,2.2L59.8,80.3z"/>
<path class="st13" d="M31.2,83.6l0.3,2c0.2,1.9,0.3,3.8,0.6,5.8c0.3,2.3,0.7,4.5,1.1,6.7c0,0.2,0,0.4,0,0.9
	c-1.3-1.2-2.6-2.4-3.8-3.8c0-0.6,0-1.3-0.1-1.9c-0.3-1.5-0.5-3.1-0.9-4.6c-0.5-2.7-1-5.4-1.6-8.1c-0.5-1.8-1-3.6-1.7-5.4
	c-0.6-1.6-1.3-3.2-2-4.8c-0.6-1.3-1.5-2.5-2.1-3.8c-0.8-1.7-1.5-3.4-2.1-5.1c-0.2-0.6-0.6-1.3-0.3-2l1.6-0.4v-0.1l0.8,0.1
	c0,0.6,0.1,1.2,0.3,1.8c0.7,1.4,1.5,2.8,2.3,4.2c0.9,1.6,1.9,3.2,2.6,4.9c1.5,3.4,2.6,6.9,3.4,10.5c0.1,0.7,0.4,1.5,0.6,2.2
	c0,0.4,0.4,0.8,0.8,0.8C31.1,83.6,31.1,83.6,31.2,83.6z"/>
<path class="st15" d="M20.3,59.3l-1.6,0.4c-0.3,0.7,0.1,1.3,0.3,2c0.6,1.7,1.3,3.5,2.1,5.1c0.6,1.3,1.5,2.5,2.1,3.8
	c0.7,1.6,1.4,3.1,2,4.8c0.7,1.8,1.2,3.6,1.7,5.4c0.6,2.7,1.1,5.4,1.6,8.1c0.3,1.5,0.6,3.1,0.9,4.6c0.1,0.6,0.1,1.3,0.1,1.9
	c-0.6-0.5-1.3-1-1.9-1.6c-0.6-0.7-1.1-1.4-1.7-2.2c0.1-0.4,0.2-0.8,0.2-1.2c-0.3-2-0.6-3.9-1-5.8c-0.8-3.7-1.6-7.3-3.6-10.6
	c-1.5-2.5-2.7-5.2-3.7-8c-0.7-2.1-1.3-4.3-1.9-6.5L20.3,59.3z"/>
<path class="st5" d="M38.8,129.3c0.3-1.4,0.2-2.8-0.2-4.2c-0.6-3.4-1.9-6.7-3.8-9.6c-0.2-0.2-0.3-0.5-0.4-0.8
	c0.5-0.6,0.8-1.4,0.8-2.1c0-0.9,0.3-1.7,0.9-2.3c0.9,1.1,1.8,2.3,2.6,3.5c1.1,1.9,1.9,3.9,2.9,5.9c1.2,3.2,1.7,6.7,1.5,10.1
	c0,0.8-0.2,1.5-0.3,2.2l-4-1L38.8,129.3z"/>
<path class="st12" d="M36.2,110.2c-0.6,0.6-0.9,1.5-0.9,2.3c0,0.8-0.3,1.5-0.8,2.1c-1-1.2-2-2.5-3-3.7c-2-2.2-4.3-4-6.9-5.5
	c0-0.5,0.1-1,0.1-1.4c0-0.7,0-1.3,0-2s0.3-0.7,0.8-0.7l1.8,1c0.1,0,0.2,0.1,0.2,0.1l0.5,0.2l0,0l0.5,0.4c0.8,0.5,1.6,1,2.4,1.6
	C32.9,106.2,34.7,108.1,36.2,110.2z"/>
<path class="st19" d="M28.4,103.1l-0.5-0.4L28.4,103.1z"/>
<path class="st19" d="M27.9,102.6l-0.5-0.2L27.9,102.6z"/>
<path class="st5" d="M76.6,132.2c0.7,0,1.3,0,2,0.1c1.8,0.1,3.5,0.9,4.9,2.1c1.2,1.1,1.9,2.7,1.7,4.3c-1.6,3.8-5.7,5.7-10,4.4
	c-1.6-0.4-3.1-1.4-4.2-2.7c-1.1-1.3-1.2-3.1-0.3-4.5c1.2-1.9,3.1-3.2,5.3-3.6C76.2,132.3,76.4,132.3,76.6,132.2z"/>
<path class="st5" d="M31.1,126c0.3-0.1,0.7-0.2,0.8-0.4c0.6-0.9,1.1-1.9,1.6-2.8c0.2-0.3,0.4-0.6,0.7-0.8c0.7,1.6,1.1,3.3,1.2,5.1
	l-0.2,2.8l-4-1.4L31.1,126z"/>
<path class="st7" d="M106.8,76.5c0.2-2.1,0.4-4.3,0.6-6.4c0.4-3.5,0.9-7,1.4-10.5c0-0.2,0-0.3,0-0.5c-2.2-1-4.9-0.4-6.4,1.6
	c-0.7,1-1.4,2-1.9,3c-0.7,1.2-1.3,2.4-2,3.5c-0.8,1.1-1.6,2.1-2.6,3c-0.5,0.4-1.1,0.8-1.7,1.1c-0.5,0.3-1.2,0.2-1.6-0.2l-5.8-5.3
	c0-0.6,0-1.3,0.1-1.9c0.3-1.2,0.8-2.3,1.1-3.5c0.4-1.8,0.7-3.5,1.1-5.3c0-0.2,0-0.4-0.1-0.6c-0.2-0.6-0.2-1.2,0.1-1.7
	c0.5-1.2,0.7-2.5,0.7-3.8c-0.1-1.4,0.3-2.8,1-4c0.1-0.1,0-0.2,0.1-0.2c0.2-0.3,0.5-0.7,0.8-0.9c1.8-1,3.6-2,5.7-1.3
	c0.1,0,0.2,0,0.4,0c0.7-0.2,1.4-0.2,2.1,0c1.9,0.3,3.7,1.2,5.1,2.6c-0.1,0.2-0.2,0.3-0.2,0.5c-0.5,1.3,0.1,2.7,1.3,3.3
	c1.2,0.6,2.2,0.3,3-1.1c0.4,0.4,0.7,1,1.2,1.1c1,0.4,2.1,0.8,3.1,1c2.2,0.1,4.3,0.4,6.4,0.8c0.3,0,0.5,0,0.8,0
	c-0.1,0.2-0.1,0.5-0.2,0.6c-1.4,1.1-2.6,2.2-3.7,3.5c-0.6,0.6-1.3,1.1-1.9,1.7c-0.4,0.3-0.7,0.7-0.9,1.2c-0.6,1.7-1.7,3-2.4,4.5
	c-0.6,1.1-1.1,2.3-1.3,3.6c-0.1,0.9-0.4,1.7-0.7,2.5c-0.5,1.3,0,2.5,0.1,3.7c0.2,1.3,0.5,2.5,0.9,3.8
	C109.1,75.6,108,76.4,106.8,76.5z"/>
<path class="st25" d="M120.5,50.6c-0.3,0-0.5,0-0.8,0c-2.1-0.5-4.3-0.7-6.4-0.8c-1.1-0.2-2.1-0.6-3.1-1c-0.5-0.1-0.8-0.7-1.2-1.1
	c0.2-1.2-0.4-2.3-1.4-2.9c-0.9-0.5-2-0.4-2.7,0.3c-1.4-1.4-3.2-2.3-5.1-2.6c-0.7-0.2-1.4-0.2-2.1,0c-0.1,0-0.2,0-0.4,0
	c-2.2-0.7-4,0.3-5.7,1.3c-0.3,0.3-0.6,0.6-0.8,0.9c0,0.1,0,0.2-0.1,0.2c-0.7,1.2-1.1,2.6-1,4c0,1.3-0.2,2.6-0.7,3.8
	c-0.3,0.5-0.3,1.1-0.1,1.7c0.1,0.2,0.1,0.4,0,0.6c-0.3,1.8-0.6,3.5-1.1,5.3c-0.3,1.2-0.8,2.3-1.1,3.5c-0.1,0.6-0.1,1.3-0.1,1.9
	l-2-1.6l-1.3-1.5c0.3-1.5,0.6-3,0.7-4.6c0.1-2,0.3-4,0.5-6c0-0.8,0-1.6,0-2.4c0-0.4,0.1-0.8,0.1-1.1c0.1-1.4,0.2-2.8,0.2-4.3
	c0.1-1.2,0.1-2.3,0.3-3.5c0.2-0.7,0.4-1.4,0.7-2c0.2-0.3,0.4-0.5,0.7-0.7c1.3-0.8,2.6-1.8,3.7-2.8c1.4-1.4,3-1.2,4.5-1
	c2.1,0.3,4.1,0.7,6.2,0.9c0.5,0,1,0.1,1.4,0.4c1.1,0.7,2.2,1.5,3.3,2.2s2.1,1.3,3.2,1.9c0.1,0.1,0.3,0,0.4,0c-1,2.8,0.5,5.9,3.4,6.8
	c0,0,0.1,0,0.1,0c1.6,0.8,3.5,0.1,4.2-1.5c0.1-0.1,0.1-0.2,0.1-0.3c0.3,0,0.6,0,0.9-0.1c1.2-0.4,2.3-0.8,3.4-1.2
	c1.4,1.2,2.8,2.4,4.3,3.5c-1.3,1.2-2.7,2.3-4.2,3.1C121.3,50.4,120.9,50.5,120.5,50.6z"/>
<path class="st19" d="M109.6,39.7c-0.1,0-0.3,0-0.4,0c-1.1-0.6-2.2-1.2-3.2-1.9s-2.2-1.5-3.3-2.2c-0.4-0.2-0.9-0.4-1.4-0.4
	c-2.1-0.2-4.1-0.6-6.2-0.9c-1.5-0.2-3.2-0.4-4.5,1c-1.2,1-2.4,2-3.7,2.8c-0.3,0.2-0.5,0.4-0.7,0.7c-0.3,0.6-0.6,1.3-0.7,2
	c-0.2,1.2-0.2,2.3-0.3,3.5c-0.1,1.4-0.2,2.8-0.2,4.3c0,0.4-0.1,0.7-0.1,1.1c0,0.8,0,1.6,0,2.4c-0.3,2-0.4,4-0.5,6
	c-0.2,1.5-0.4,3.1-0.7,4.6l-1-0.8l-0.3-0.3L82,61.4h-0.1l-0.2-0.2l-0.1-0.1l-0.2-0.2l-0.8-0.7l-0.3-0.5c0.3-1.4,0.5-2.8,0.8-4.2
	c0.4-1.3,0.5-2.7,0.3-4c0-0.2,0.1-0.3,0.1-0.5c0-1.3,0-2.7-0.1-4c0-0.7-0.3-1.4-0.2-2.1c0.1-1.8,0.2-3.5,0.5-5.3
	c0.3-1.7,0.5-3.4,0.5-5.1c0-0.3,0.2-0.6,0.3-0.8c0.8-1.3,1.7-2.6,2.4-4c0.3-0.6,0.6-1.2,0.7-1.9c0-0.5,0.4-0.9,0.9-1
	c1-0.3,1.9-0.8,2.9-1.1c0.6-0.2,1.3-0.4,1.9-0.6c0.7-0.2,1.5-0.2,2.2-0.3l0.7,0.1l0.8,0.2l0.5,0.1l0.8,0.2h0.1h0.1
	c0.2,0.2,0.4,0.6,0.7,0.7c0.8,0.3,1.6,0.4,2.4,0.6c0.2,0,0.4,0,0.6,0.1c1,0.6,2,1.2,3,1.9c0.4,0.3,0.8,0.6,1.3,0.8
	c1.9,0.9,3.6,2.1,5.2,3.5c0.6,0.5,1.3,0.7,1.9,1.2c1.2,1,2.4,2.1,3.6,3.2c0.7,0.6,1.3,1.2,2,1.7c0.3,0.1,0.5,0.2,0.8,0.2l3.5,4.1
	c-1.1,0.4-2.3,0.8-3.4,1.2c-0.3,0.1-0.6,0.1-0.9,0.1c0.3-2.3-0.9-4.6-3-5.7C112.4,38.2,110.5,38.3,109.6,39.7z"/>
<path class="st20" d="M40.3,36.5l-0.8-0.3c0.7-1.5,1.3-2.9,1.9-4.3c0.5-0.2,1.1-0.4,1.6-0.7c2.3-1.7,4.6-3.4,7-5.1
	c0.6-0.3,1.3-0.6,2-0.8V27c2.4-0.5,4.8-1.1,7.1-1.6s4.5-0.8,6.7-1.1c0.1,0.8,0.9,0.8,1.3,1.2c2.3,1.9,4,4.5,4.7,7.4
	c0.4,2,0.7,4,1.3,6c0.3,0.9,0.4,1.8,0.5,2.7c0.2,3.7,0,7.5-0.5,11.2l-4.6-4.3c0-0.5,0-1,0.1-1.5c0.2-1,0.2-2.1,0-3.1
	c-0.3-1.4-0.3-2.9-0.6-4.4c-0.2-1.5-0.5-2.9-1-4.3c-0.8-2.2-2.1-4.2-3.8-5.9c-1.4-1.3-3.3-2-5.2-1.8c-1.6,0.1-3.2,0.4-4.8,1
	c-1.9,0.7-3.7,1.6-5.5,2.5c-1.7,0.9-3.3,2-4.7,3.4C42.2,35.2,41.3,35.9,40.3,36.5z"/>
<path class="st24" d="M94.4,25.1L93.7,25c-0.2-0.1-0.5-0.2-0.7-0.2c-1.5-0.3-3-0.5-4.4-0.8c0-0.9-0.7-1.1-1.4-1.4
	c-0.5-0.2-0.9-0.4-1.3-0.7c-1.1-0.8-2.3-1.5-3.6-1.9c-0.8-0.3-1.5-0.6-2.3-1c2.6-1.1,5.3-1.9,8.1-2.3c4.3-0.7,8.6-1.1,13-1.1h1.5
	c0.4,0.7,1.3,8.4,1.4,11.4l-1.6-0.3l-5.7-1.1h-0.1h-0.1l-0.8-0.2l-0.5-0.1L94.4,25.1z"/>
<path class="st13" d="M65.7,24.3c-2.2,0.4-4.5,0.7-6.7,1.1s-4.7,1-7.1,1.6v-1.7c0.2-2.2,0.4-4.3,0.6-6.5c0.1-0.6,0.2-1.3,0.3-1.9
	c1.8,0.2,3.5,0.5,5.3,0.5c1.8,0.1,3.5,0.3,5.2,0.8c2.4,0.5,4.6,1.3,6.8,2.4c1.1,0.6,2.1,1.4,2.1,2.9L71,23.7c-0.4,0-0.8,0-1.2,0
	C68.4,23.9,67,24.1,65.7,24.3z"/>
<path class="st15" d="M72.1,23.5c0.1-1.5-1-2.3-2.1-2.9c-2.1-1.1-4.4-1.9-6.7-2.4c-1.7-0.5-3.4-0.7-5.2-0.8c-1.8,0-3.5-0.3-5.3-0.5
	v-1.4c0.2-0.1,0.4-0.1,0.6-0.1c7.7-0.1,15.2,0.8,22.4,3.6c1.3,0.7,2.9,0.7,4.2,0c0.8,0.3,1.5,0.7,2.3,1c1.3,0.4,2.5,1.1,3.6,1.9
	c0.4,0.3,0.9,0.5,1.3,0.7c0.7,0.3,1.3,0.6,1.4,1.4l-1-0.1l-0.8-0.1l-1.5-0.1L84,23.6h-2.5c-0.5-0.1-1.1-0.1-1.6-0.2
	c-2.1,0-4.2,0.1-6.3,0.2L72.1,23.5z"/>
<path class="st12" d="M39.7,23l-0.4-0.2L39.7,23z"/>
<path class="st9" d="M25.4,101.4c-0.5,0-0.8,0.1-0.8,0.7s0,1.3,0,2c0,0.5,0,1-0.1,1.4c-1.8-0.6-3.5-1.2-5.3-1.7
	c-0.6-0.1-1.3-0.2-1.9-0.3c-0.4-1.3-0.5-2.7-0.3-4.1c1.5-0.3,2.9,0.3,4.3,0.4c1,0.3,1.9,0.6,2.8,1C24.6,100.9,25,101.2,25.4,101.4z"
	/>
<path class="st11" d="M13.2,59.8l2.3-0.2L13.2,59.8z"/>
<path class="st22" d="M25,90.7c0,0-0.1-0.1-0.1-0.1C25,90.6,25,90.6,25,90.7z"/>
<path class="st18" d="M21.1,59.3l-0.8-0.1c0.7-0.1,1.2-0.6,1.3-1.3c0.9-2.6,2.1-5.1,3.4-7.5c0.2-0.3,0.6-0.7,0.1-1.1
	c2.2-1,4.4-2.3,6.4-3.8c0.2,0.4,0.2,0.8-0.1,1.2c-1.7,2.6-3,5.5-3.8,8.6c-0.5,1.2-0.7,2.4-0.7,3.7L21.1,59.3z"/>
<path class="st26" d="M40.6,42.5l8.4,3.8l2.8-4.3l-6.7-3.5c0.6-0.4,1.2-0.9,1.8-1.3c1.2-0.6,2.5-1.1,3.8-1.3
	c1.3-0.4,2.8,0.1,3.5,1.2c0.8,1.1,1.4,2.2,2,3.5c0.3,0.7,0.4,1.4,0.4,2.1c0.2,1.3,0.3,2.6,0.3,3.9c0,1-0.1,2-0.5,3
	c-0.6,1.4-1.3,2.7-2.1,4c-0.8-0.1-1.2,0.5-1.7,1c-1.2,0.2-2.2,0.8-3.5,0.9c-1.9,0.2-3.7,1-5.8,0.3c-1.7-0.6-3.6-0.5-5.2-1.8
	s-2.2-2.2-1.6-4.3c0.5-2.4,1.7-4.6,3.3-6.4C40.3,43.1,40.5,42.8,40.6,42.5z"/>
<path class="st23" d="M37.7,41.2l1.8,0.7c-0.5,0.4-1,0.9-1.4,1.4c-0.4,0.5-0.8,1.1-1.1,1.7c-1.5,2.4-2.5,5-3.1,7.8
	c-0.4,1.1-0.2,2.3,0.5,3.3c1,1.1,2.2,2,3.6,2.5c2.4,0.9,5.1,1.3,7.7,1.2c1.1-0.1,2.2,0,3.3,0c0.4,0,0.8-0.1,1.2-0.2
	c0.9-0.3,1.8-0.6,2.8-0.9c0.2,1,0.8,1.9,1.5,2.6c0.2,0.2,0.4,0.5,0.6,0.8c0,0.7-0.5,0.8-1,1s-1.1,0-1.3,0.6c-1.6-1-1.6-1-2.7,0
	c-0.8-0.1-1.7-0.1-2.5,0c-1.7,0.3-3.4,0.4-5.1,0.2c-1.4-0.1-2.7-0.3-4.1-0.6c-1.6-0.4-3.2-1.1-4.6-2c-0.4-0.2-0.9-0.4-1.3-0.4l0.2-2
	l-2-0.1c-0.2-1.1-0.2-2.2,0-3.2c0.5-1.6,0.8-3.4,1.4-4.9c0.7-1.6,1.5-3.1,2.4-4.5C35.1,44.4,36.3,42.7,37.7,41.2z"/>
<path class="st23" d="M43.4,37.7l-1-0.4c0.1-0.3,0.2-0.5,0.4-0.8c0.8-0.7,1.6-1.2,2.5-1.8c2.3-1.2,4.4-2.7,7-3.2
	c0.4-0.1,0.8-0.2,1.2-0.4c1.3-0.6,2.9-0.7,4.3-0.2c0.7,0.1,1.3,0.4,1.8,0.8c0.9,1,1.8,2.1,2.5,3.3c0.6,1.1,1.1,2.2,1.5,3.3
	c0.8,2.3,1.1,4.7,1,7.1c-1,0.5-1.6,1.4-1.7,2.4c-0.1,1.1-0.2,2.3-0.1,3.4c0,0.7,0.3,1.4,0.8,2c0.8,1,1.5,2.1,2.3,3.2
	c0,1.1-0.7,1.8-1.2,2.7c-0.3,0.6-0.9,1-0.8,1.8l-5.3-4.4l-0.2-0.2L58,56c0.8-1.3,1.6-2.7,2.4-4c0-0.1,0.1-0.2,0.1-0.2
	c0.4-2.3,1-4.7,0.8-7.1c-0.1-1.1-0.2-2.2-0.4-3.2c-0.7-2.7-2-5.2-3.8-7.3c-0.7-0.8-1.7-1.2-2.7-1.1c-1.7,0.1-3.3,0.5-4.8,1.2
	C47.3,35.3,45.1,36.1,43.4,37.7z"/>
<path class="st17" d="M64.4,45.3c0.1-2.4-0.2-4.8-1-7.1c-0.4-1.2-0.9-2.3-1.4-3.3c-0.7-1.2-1.6-2.3-2.5-3.3
	c-0.5-0.4-1.2-0.7-1.8-0.8c-1.4-0.5-3-0.4-4.3,0.2c-0.4,0.2-0.8,0.3-1.2,0.4c-2.6,0.5-4.7,2-7,3.2c-0.9,0.5-1.7,1.1-2.5,1.8
	c-0.2,0.2-0.3,0.5-0.4,0.8l-2-0.8c1-0.6,1.9-1.2,2.8-1.9c1.4-1.4,3-2.5,4.7-3.4c1.8-0.9,3.6-1.8,5.5-2.5c1.5-0.6,3.1-0.9,4.8-1
	c1.9-0.2,3.8,0.5,5.2,1.8c1.7,1.7,3,3.7,3.8,5.9c0.5,1.4,0.8,2.8,1,4.3c0.2,1.4,0.3,2.9,0.6,4.4c0.2,1,0.2,2.1,0,3.1
	c-0.1,0.5-0.1,1-0.1,1.5l-1.1-1L64.4,45.3z"/>
<path class="st27" d="M43.4,37.7c1.8-1.7,4-2.5,6.1-3.5c1.5-0.7,3.1-1.1,4.8-1.2c1,0,2,0.4,2.7,1.2c1.8,2.1,3.1,4.6,3.8,7.3
	c0.2,1.1,0.4,2.1,0.4,3.2c0.3,2.4-0.4,4.8-0.8,7.1c0,0.1,0,0.2-0.1,0.2c-0.8,1.3-1.6,2.7-2.4,4l-3.5-2.6c0.8-1.3,1.5-2.6,2.1-4
	c0.3-1,0.5-2,0.5-3c0-1.3-0.1-2.6-0.3-3.9c0-0.7-0.2-1.4-0.4-2.1c-0.6-1.2-1.2-2.4-2-3.5c-0.8-1.2-2.2-1.7-3.5-1.2
	c-1.3,0.3-2.6,0.7-3.8,1.4c-0.6,0.4-1.2,0.9-1.8,1.3L43.4,37.7z"/>
<path class="st27" d="M52.8,58.8c-0.9,0.3-1.8,0.6-2.8,0.9c-0.4,0.1-0.7,0.1-1.1,0.2c-1.1,0-2.2-0.1-3.3,0c-2.6,0.1-5.2-0.3-7.7-1.2
	c-1.4-0.5-2.6-1.4-3.6-2.5c-0.7-0.9-0.9-2.2-0.5-3.3c0.6-2.8,1.6-5.4,3.1-7.8c0.3-0.6,0.7-1.1,1.1-1.7c0.5-0.5,0.9-0.9,1.4-1.4
	l1.2,0.5c-0.1,0.3-0.3,0.6-0.5,0.9c-1.7,1.8-2.8,4-3.3,6.4c-0.5,2.1-0.1,3,1.6,4.3s3.4,1.2,5.2,1.8c2,0.7,3.8-0.2,5.8-0.3
	c1.2-0.1,2.3-0.8,3.5-0.9C52.8,55.9,52.8,57.3,52.8,58.8z"/>
<path class="st17" d="M37.7,41.2c-1.4,1.5-2.5,3.2-3.5,5c-0.9,1.5-1.7,3-2.4,4.5c-0.6,1.6-0.9,3.3-1.4,4.9c-0.2,1.1-0.2,2.2,0,3.2
	h-3.5c0-1.3,0.2-2.5,0.7-3.7c0.8-3,2.1-5.9,3.8-8.6c0.3-0.3,0.3-0.8,0.1-1.2l5.1-4.8L37.7,41.2z"/>
<path class="st22" d="M119,33.9c0-0.2,0-0.3-0.1-0.5c0.5,0.2,1,0.4,1.4,0.7c1.9,1.7,3.8,3.5,5.6,5.3c1.6,1.6,3,3.3,4.5,5
	c0.1,0.2,0.2,0.4,0.2,0.6c-1.8-0.6-3.4-1.5-4.7-2.8c-2.5-2.2-4.7-4.8-6.4-7.6C119.3,34.3,119.2,34.1,119,33.9z"/>
<path class="st24" d="M82.4,61.9l1,0.8l1.3,1.5c0,0.3-0.1,0.6-0.2,0.9c-1.2,2.8-2.7,5.4-4.4,7.9c-0.8,1.2-1.8,2.3-2.8,3.4
	c-1,1.2-2.4,2-4,2.3c-1,0.3-2,0.8-3,0.7c-0.2-0.8-0.3-1.5-0.5-2.2c1.5-0.2,2.9-0.7,4.1-1.4c1.5-1.1,2.8-2.6,3.7-4.2
	c1.6-2.5,2.8-5.2,4.1-7.8C82.2,63.1,82.3,62.5,82.4,61.9z"/>
<path class="st21" d="M70,77.1c0.2,0.7,0.3,1.5,0.5,2.2L70.1,80l-1-0.8l-1.8-1.7l-2.1-2c-0.2-0.2-0.4-0.4-0.6-0.6l-6-5.7
	c0.2-0.2,0.3-0.4,0.5-0.6c0.4-0.3,0.8-0.6,1.3-0.9c0.4,0.3,0.8,0.7,1.1,1l7.2,6.6L70,77.1z"/>
<path class="st24" d="M67.3,77.5l1.8,1.7c-0.9,0.8-2.1,0.6-3.2,0.7C65.1,80,64.3,80,63.4,80c-0.5,0-1,0-1.5,0.1
	c-0.7,0.1-1.4,0.2-2.1,0.3l-1.3-1.2c0.2-0.6,0.7-0.6,1.2-0.5c0.4,0.2,0.9,0.2,1.3,0.1c1.3-0.4,2.7-0.6,4-0.4c0.6,0,1.1-0.1,1.7-0.3
	C67,78,67.1,77.7,67.3,77.5z"/>
<path class="st28" d="M26.9,59h3.5l2,0.1c-0.1,0.7-0.1,1.4-0.2,2c-0.2,2-0.5,3.9-0.7,5.8l-0.4,5.8L31,78.1l0.1,4.1c0,0.5,0,1,0,1.5
	c-0.4,0.1-0.8-0.2-0.9-0.7c0,0,0,0,0,0c-0.2-0.7-0.4-1.4-0.6-2.2c-0.8-3.6-1.9-7.1-3.4-10.5c-0.7-1.7-1.7-3.3-2.6-4.9
	c-0.8-1.4-1.6-2.8-2.3-4.2c-0.2-0.6-0.3-1.2-0.3-1.8L26.9,59z"/>
<path class="st28" d="M58.6,69.2l6,5.7c0.2,0.2,0.4,0.4,0.6,0.6c-0.2,0.7-0.8,0.7-1.3,0.7c-1.1,0.2-2.2,0.2-3.3,0.3L56.2,77
	l-0.4-0.3c0-0.1-0.1-0.1-0.2-0.2h-0.1l-3.7-4.1l-2.4-4c-0.2-1.5-0.1-3.1,0.4-4.5c1-1,1-1,2.7,0L58.6,69.2z"/>
<path class="st21" d="M51.8,72.4l3.8,4.2c-1.8,0.2-3.5,0.3-5.2,0.5c-2.2,0.2-4.4,0.3-6.7,0.2c-1.5,0.1-3.1,0.3-4.6,0.5
	c-1.4,0.2-2.7,0.4-4.1,0.5c-0.3,0-0.7,0-1,0L31,78c0-1.8,0.1-3.6,0.1-5.3c0.7,0.1,1.3,0.2,2,0.3c3.3,0.1,6.6,0.2,9.9,0.2
	c1,0,1.9,0,2.8,0c1.3,0,2.5-0.1,3.7-0.3C50.4,72.7,51.2,73,51.8,72.4z"/>
<path class="st15" d="M56.2,77l4.3-0.4c1.1-0.1,2.2-0.2,3.3-0.3c0.5-0.1,1.1,0,1.3-0.7l2.1,2c-0.2,0.2-0.3,0.5-0.4,0.5
	c-0.6,0.2-1.1,0.2-1.7,0.3c-1.3-0.1-2.7,0-4,0.4c-0.4,0.1-0.9,0.1-1.3-0.1c-0.6-0.1-1-0.1-1.2,0.5L56.2,77z"/>
<path class="st15" d="M55.7,76.5c0.1,0,0.1,0.1,0.2,0.2L55.7,76.5z"/>
<path class="st5" d="M104.9,45.1c0.7-0.7,1.9-0.8,2.7-0.3c1,0.6,1.6,1.7,1.4,2.9c-0.9,1.4-1.8,1.7-3,1.1c-1.2-0.6-1.8-2-1.3-3.3
	C104.7,45.4,104.8,45.3,104.9,45.1z"/>
<path class="st5" d="M109.6,39.7c0.9-1.4,2.8-1.5,4.6-0.7c2.1,1.1,3.3,3.3,3,5.7c-0.6,1.6-2.4,2.5-4,1.9c-0.1,0-0.1-0.1-0.2-0.1
	C110.2,45.6,108.7,42.5,109.6,39.7z"/>
<path class="st22" d="M85.2,23.7l1.5,0.1l0.8,0.1l1,0.1c1.5,0.3,3,0.5,4.4,0.8c0.2,0.1,0.5,0.1,0.7,0.2c-0.7,0.1-1.5,0.2-2.2,0.3
	c-0.7,0.2-1.3,0.4-1.9,0.6c-1,0.4-1.9,0.8-2.9,1.1c-0.5,0.1-0.9,0.5-0.9,1c-0.1,0.7-0.3,1.3-0.7,1.9c-0.8,1.4-1.6,2.7-2.4,4
	c-0.2,0.2-0.3,0.5-0.3,0.8c0,1.7-0.2,3.4-0.5,5.1c-0.3,1.7-0.4,3.5-0.5,5.2c0,0.7,0.2,1.4,0.2,2.1c0.1,1.3,0.1,2.7,0.1,4
	c0,0.2-0.1,0.3-0.1,0.5c0.2,1.3,0.1,2.7-0.3,4c-0.2,1.4-0.5,2.8-0.8,4.2l-3.5-3.3c0.4-1.6,0.7-3.2,0.9-4.9c0.2-2.3,0.1-4.6,0-7
	c0-0.6-0.2-1.3-0.2-1.9c0-1.3,0.1-2.5,0.2-3.8c0-0.3-0.1-0.7-0.1-1c0-1.9-1.2-3.7-0.6-5.7c0-0.1,0-0.3,0-0.4
	c-0.5-2.5-1.4-4.9-2.8-7.1c-0.3-0.7-1-1.1-1.7-1c-0.5,0-1.1,0-1.7,0l1.1-0.2h1.5h7.8H84L85.2,23.7z"/>
<path class="st13" d="M76.9,56.5l3.5,3.3l0.3,0.5c-0.2,0.5-0.4,0.9-0.6,1.4c-1,2.3-2.1,4.5-3.1,6.7c-0.3,0.6-0.5,1.3-1.3,1.4
	c-0.4-1.1-0.9-2.2-1.5-3.3c-1.3-1.7-2.8-3.3-4.2-4.9l-4.3-5.1c-0.8-1.1-1.5-2.2-2.3-3.2c-0.5-0.6-0.8-1.3-0.8-2
	c-0.1-1.1,0-2.3,0.1-3.4c0.1-1.1,0.8-2,1.7-2.4l2.9,2.3l1.1,1l4.6,4.3C74.4,54.1,75.6,55.3,76.9,56.5z"/>
<path class="st15" d="M75.7,69.7c0.8-0.1,1-0.8,1.3-1.4c1-2.2,2.1-4.5,3.1-6.7c0.2-0.5,0.4-0.9,0.6-1.4l0.8,0.7
	c0,0.1,0.1,0.1,0.2,0.2l0.1,0.1l0.2,0.2h0.1l0.2,0.2l0.3,0.3c-0.1,0.6-0.3,1.2-0.5,1.8c-1.3,2.6-2.6,5.3-4.1,7.8
	c-0.9,1.7-2.2,3.1-3.7,4.2c-1.3,0.7-2.7,1.2-4.1,1.4l-1.3-1.8c0.7-0.2,1.3-0.4,2-0.6c1.9-0.6,3.4-2,4.2-3.9l0.9,0.5L75.7,69.7z"/>
<path class="st22" d="M95.7,25.3l0.8,0.2L95.7,25.3z"/>
<path class="st22" d="M94.4,25.1l0.8,0.2L94.4,25.1z"/>
<path class="st24" d="M81.6,61.1c-0.1,0-0.1-0.1-0.2-0.2L81.6,61.1z"/>
<path class="st24" d="M81.9,61.3l-0.2-0.2L81.9,61.3z"/>
<path class="st24" d="M82.1,61.6l-0.2-0.2L82.1,61.6z"/>
<path class="st21" d="M76.9,56.5c-1.3-1.2-2.5-2.4-3.8-3.6c0.5-3.7,0.6-7.5,0.5-11.2c0-0.9-0.2-1.8-0.5-2.7c-0.6-2-0.8-4-1.3-6
	c-0.8-2.9-2.4-5.5-4.7-7.4c-0.4-0.4-1.3-0.4-1.3-1.2c1.3-0.2,2.7-0.4,4-0.5c0.4,0,0.8,0,1.2,0c0.5,0,1.1,0,1.7,0
	c0.7-0.1,1.4,0.3,1.7,1c1.3,2.2,2.3,4.6,2.8,7.1c0,0.1,0,0.3,0,0.4c-0.6,2,0.6,3.8,0.6,5.7c0,0.3,0.1,0.7,0.1,1
	c0,1.3-0.2,2.5-0.2,3.8c0,0.6,0.2,1.3,0.2,1.9c0,2.3,0.1,4.7,0,7C77.6,53.3,77.3,54.9,76.9,56.5z"/>
<path class="st10" d="M81.4,23.5h-7.9c2.1-0.1,4.2-0.1,6.3-0.2C80.4,23.3,80.9,23.4,81.4,23.5z"/>
<path class="st24" d="M85.2,23.7l-1.3-0.1L85.2,23.7z"/>
<path class="st24" d="M87.5,23.9l-0.8-0.1L87.5,23.9z"/>
<path class="st28" d="M74.9,70.8c-0.8,1.8-2.3,3.3-4.2,3.9c-0.7,0.2-1.3,0.4-2,0.6l-7.2-6.6c-0.4-0.3-0.8-0.7-1.1-1l-5.5-5.5
	c-0.2-0.3-0.4-0.5-0.6-0.8c-0.7-0.7-1.3-1.6-1.5-2.6c0-1.4,0-2.9,0.1-4.3c0.4-0.5,0.8-1.1,1.7-1l3.5,2.6l0.2,0.2l0.2,0.2l5.3,4.4
	l4.6,4c0.4,0.3,0.7,0.7,1.1,1L74.9,70.8z"/>
<path class="st17" d="M49.8,63.9c-0.5,1.5-0.6,3-0.4,4.5l-3.7,0.2c-0.4,0-0.8,0-1.3,0c-0.8-0.1-1.5-0.1-2.3-0.2
	c-0.4,0-0.8,0-1.1-0.1c-1.5-0.1-2.9-0.4-4.4-0.4c-1.2,0-2.4-0.3-3.6-0.7c-0.5-0.1-1-0.3-1.6-0.3c0.2-1.9,0.5-3.9,0.7-5.8
	c0.4,0.1,0.9,0.3,1.3,0.5c1.4,0.9,3,1.6,4.6,2c1.3,0.3,2.7,0.5,4.1,0.6c1.7,0.2,3.4,0.1,5.1-0.2C48.2,63.8,49,63.8,49.8,63.9z"/>
<path class="st17" d="M54.8,62.2l5.5,5.5c-0.4,0.3-0.8,0.6-1.3,0.9c-0.2,0.2-0.4,0.4-0.5,0.6l-6.1-5.4c0.2-0.6,0.8-0.5,1.3-0.6
	S54.8,62.9,54.8,62.2z"/>
<path class="st20" d="M68.3,64.8l-4.6-4c0-0.7,0.5-1.2,0.8-1.8c0.5-0.8,1.2-1.6,1.2-2.7l4.3,5.2L69.2,63
	C68.9,63.6,68.6,64.2,68.3,64.8z"/>
<path class="st27" d="M58.3,56.4l-0.2-0.2L58.3,56.4z"/>
<path class="st20" d="M31.5,66.9c0.5,0.1,1.1,0.2,1.6,0.3c1.1,0.4,2.3,0.7,3.6,0.7c1.5,0,2.9,0.3,4.4,0.4c0.4,0,0.8,0,1.1,0.1
	c0.8,0.1,1.5,0.2,2.3,0.2c0.4,0,0.8,0,1.3,0l3.7-0.2l2.4,4c-0.6,0.7-1.4,0.4-2.1,0.5c-1.2,0.3-2.5,0.4-3.7,0.3c-1,0-1.9,0-2.8,0
	c-3.3,0-6.6-0.1-9.9-0.2c-0.7,0-1.3-0.1-2-0.3L31.5,66.9z"/>
<path class="st21" d="M68.3,64.8c0.3-0.6,0.6-1.2,0.9-1.8l0.8-1.5c1.4,1.6,2.9,3.2,4.2,4.9c0.6,1,1.1,2.1,1.5,3.3
	c0,0.5,0.1,0.9,0.1,1.6l-0.9-0.5l-5.5-5C69,65.5,68.6,65.2,68.3,64.8z"/>
</svg>
