<svg xmlns="http://www.w3.org/2000/svg" xmlns:xlink="http://www.w3.org/1999/xlink" width="104" height="28" viewBox="0 0 104 28">
    <defs>
        <path id="a" d="M0 .094h103.57V27.13H0"/>
        <path id="c" d="M0 .094h103.57V27.13H0z"/>
    </defs>
    <g fill="none" fill-rule="evenodd">
        <g>
            <mask id="b" fill="#fff">
                <use xlink:href="#a"/>
            </mask>
            <path fill="#FF8700" d="M12.272.094C5.494.094 0 5.611 0 12.415c0 5.144 3.14 9.549 7.598 11.394v-7.846l-1.75 1.473-1.961-2.327 3.843-4.043V6.614h3.162v2.47l4.003-3.858s6.451 5.136 9.649 7.19C24.544 5.61 19.05.093 12.272.093" mask="url(#b)"/>
        </g>
        <path fill="#FF8700" d="M100.866 13.248c-.89 0-1.707-.311-2.357-.829h-.03v14.408h4.797V12.419h-.052a3.771 3.771 0 0 1-2.358.83"/>
        <path fill="#FFF" d="M103.57 9.414a2.68 2.68 0 0 1-2.675 2.687 2.68 2.68 0 0 1-2.676-2.687 2.68 2.68 0 0 1 2.676-2.686 2.68 2.68 0 0 1 2.675 2.686M21.784 26.825H11.251V10.751h4.788v12.067h5.745zM33.625 20.306c0-.79-.277-1.462-.832-2.015a2.747 2.747 0 0 0-2.013-.828c-.877 0-1.597.333-2.161.997a2.776 2.776 0 0 0-.685 1.846c0 .691.228 1.307.685 1.847.554.664 1.275.996 2.16.996.797 0 1.47-.273 2.02-.822.551-.547.826-1.221.826-2.021zm4.303 6.52H33.49v-1.632c-.422.533-.849.922-1.28 1.165-.754.424-1.611.636-2.572.636-1.554 0-2.937-.536-4.149-1.61-1.445-1.28-2.168-2.975-2.168-5.086 0-2.146.74-3.86 2.222-5.14 1.176-1.019 2.528-1.528 4.054-1.528.889 0 1.724.185 2.505.554.45.217.912.574 1.388 1.07v-1.232h4.437v12.803z"/>
        <path fill="#FF8700" d="M62.164 26.825h-4.438v-6.442c0-1.082-.112-1.82-.337-2.217-.333-.587-.831-.88-1.497-.88-.737 0-1.303.32-1.7.96-.278.451-.417 1.163-.417 2.137v6.442h-4.438v-6.442c0-1.082-.09-1.785-.27-2.11-.359-.648-.912-.973-1.658-.973-.693 0-1.232.28-1.618.839-.145.198-.248.47-.31.817-.064.347-.095.823-.095 1.427v6.442h-4.437V14.023h4.437v1.544c.522-.505 1-.876 1.432-1.111.783-.423 1.657-.636 2.62-.636 1.234 0 2.26.32 3.081.961.414.325.81.786 1.188 1.381.343-.559.726-1.001 1.148-1.326a4.874 4.874 0 0 1 3.053-1.03c.937 0 1.77.227 2.5.677.783.497 1.296 1.17 1.54 2.018.144.514.216 1.156.216 1.923v8.401z"/>
        <g>
            <mask id="d" fill="#fff">
                <use xlink:href="#c"/>
            </mask>
            <path fill="#FF8700" d="M78.496 21.999c0 2.338-1.102 3.89-3.304 4.658-.917.315-2.037.473-3.359.473-2.598 0-4.463-.64-5.597-1.922-.719-.813-1.078-1.882-1.078-3.21v-7.975h4.436v7.122c0 .786.188 1.364.564 1.734.402.397.96.596 1.675.596.706 0 1.26-.2 1.662-.596.376-.37.564-.948.564-1.734v-7.122h4.437v7.976z" mask="url(#d)"/>
        </g>
        <path fill="#FF8700" d="M91.308 20.313c0-.796-.277-1.472-.833-2.03a2.738 2.738 0 0 0-2.012-.834c-.877 0-1.598.334-2.162 1.004a2.81 2.81 0 0 0-.684 1.86c0 .697.228 1.316.684 1.86.555.67 1.276 1.004 2.162 1.004.796 0 1.47-.276 2.02-.828.55-.552.825-1.23.825-2.036zm4.303 6.513h-4.438v-1.632c-.422.533-.848.921-1.279 1.165-.755.424-1.612.636-2.573.636-1.554 0-2.936-.536-4.148-1.61-1.446-1.28-2.169-2.976-2.169-5.086 0-2.146.74-3.86 2.223-5.14 1.176-1.019 2.528-1.528 4.054-1.528.889 0 1.724.19 2.505.568.449.217.91.574 1.387 1.07V6.713h4.438v20.113z"/>
    </g>
</svg>
