<?xml version="1.0" encoding="utf-8"?>
<!-- Generator: Adobe Illustrator 22.0.1, SVG Export Plug-In . SVG Version: 6.00 Build 0)  -->
<svg version="1.1" id="Layer_1" xmlns="http://www.w3.org/2000/svg" xmlns:xlink="http://www.w3.org/1999/xlink" x="0px" y="0px"
	 viewBox="0 0 56 52.2" style="enable-background:new 0 0 56 52.2;" xml:space="preserve">
<style type="text/css">
	.st0{fill:#FEF9F7;}
</style>
<title>simpliphpy</title>
<g id="Layer_2_1_">
	<g id="Layer_1-2">
		<path class="st0" d="M36.7,17.1H19.4c1.4,1.1,2.3,1.9,3.3,2.6c4.9,3.7,9.9,7.4,14.8,11.1c1.1,0.8,2.2,1.7,2.9,2.8
			c0.6,1,1.2,2.4,0.8,3.4c-0.3,0.7-1.9,1.3-2.9,1.4c-5.2,0.1-10.5,0.1-15.7,0.1c-1.6,0.1-3.2,0.1-4.8-0.1c-0.8-0.1-1.9-0.6-2.3-1.2
			c-0.3-0.5-0.1-1.8,0.4-2.3c1.9-2,3.9-3.9,6.1-5.6c0.6-0.4,2.2,0.5,3.8,1L20.4,35H37c-0.9-0.8-1.5-1.5-2.2-2
			c-5.1-3.9-10.3-7.7-15.4-11.6c-1.5-1.1-2.8-2.3-4-3.7c-1.5-1.9-0.6-3.9,1.8-4c7.1-0.1,14.3-0.1,21.4,0c2.4,0,3.4,1.9,1.9,3.9
			C38.9,20,36.9,22,35,24.2l-3.5-2.5L36.7,17.1z"/>
	</g>
</g>
</svg>
