<svg xmlns="http://www.w3.org/2000/svg" width="38" height="56" viewBox="0 0 38 56">
  <metadata><?xpacket begin="﻿" id="W5M0MpCehiHzreSzNTczkc9d"?>
<x:xmpmeta xmlns:x="adobe:ns:meta/" x:xmptk="Adobe XMP Core 5.6-c138 79.159824, 2016/09/14-01:09:01        ">
   <rdf:RDF xmlns:rdf="http://www.w3.org/1999/02/22-rdf-syntax-ns#">
      <rdf:Description rdf:about=""/>
   </rdf:RDF>
</x:xmpmeta>
                                                                                                    
                                                                                                    
                                                                                                    
                                                                                                    
                                                                                                    
                                                                                                    
                                                                                                    
                                                                                                    
                                                                                                    
                                                                                                    
                                                                                                    
                                                                                                    
                                                                                                    
                                                                                                    
                                                                                                    
                                                                                                    
                                                                                                    
                                                                                                    
                                                                                                    
                                                                                                    
                           
<?xpacket end="w"?></metadata>
<defs>
    <style>
      .cls-1 {
        fill: #070707;
        fill-rule: evenodd;
      }
    </style>
  </defs>
  <path id="g_copy" data-name="g copy" class="cls-1" d="M-0.013,20.6q0,9.178,4.408,14.652a14.13,14.13,0,0,0,11.562,5.474,11.434,11.434,0,0,0,8.853-3.866v1.229q0,8.31-8.094,8.31a11.165,11.165,0,0,1-8.961-4.011L2.661,49.539a15.031,15.031,0,0,0,6.161,4.227,22.054,22.054,0,0,0,8.329,1.626A25.574,25.574,0,0,0,27.7,53.351,15.422,15.422,0,0,0,34.657,47.5a16.486,16.486,0,0,0,2.4-8.979V0.9H26L25.569,4.3A11.74,11.74,0,0,0,16.03.182,14.765,14.765,0,0,0,7.539,2.657a15.706,15.706,0,0,0-5.6,7.028A26.4,26.4,0,0,0-.013,20.163V20.6Zm14.056-8.112a5.739,5.739,0,0,1,5.095-2.909q3.9,0,5.673,2.674V28.69Q23,31.328,19.065,31.328a5.7,5.7,0,0,1-5.059-2.8A13.9,13.9,0,0,1,12.2,20.922Q12.2,15.394,14.043,12.485Z"/>
</svg>
