<?xml version="1.0" encoding="utf-8"?>
<!-- Generator: Adobe Illustrator 22.0.1, SVG Export Plug-In . SVG Version: 6.00 Build 0)  -->
<svg version="1.1" id="Color_logo__x28_CMYK_-_Print_x29_"
	 xmlns="http://www.w3.org/2000/svg" xmlns:xlink="http://www.w3.org/1999/xlink" x="0px" y="0px" viewBox="0 0 158 78.7"
	 style="enable-background:new 0 0 158 78.7;" xml:space="preserve">
<style type="text/css">
	.st0{fill:#FFFFFF;}
	.st1{fill:#F7D93E;}
</style>
<g id="Logo__x28_blue_bg_x29__3_">
	<path class="st0" d="M102.6,48.7v11.7h-5.5V49c0-2-1.1-4.2-3.6-4.2c-2.9,0-4.2,2.5-4.2,4.7v10.8h-5.2V40.2h5.2v1.9
		c1.3-1.4,3-2.2,5-2.2C99.2,39.9,102.6,43.9,102.6,48.7z M33.5,30.4l11.6,15.1L33.5,60.4h9.8l6.6-8.6l6.6,8.6h9.8L42.8,30.4
		C42.8,30.4,33.5,30.4,33.5,30.4z M124.5,30.4v29.9h-5.8l-0.3-1.4c-1.3,1.1-2.9,1.7-4.9,1.7c-5.9,0-9.8-4.2-9.8-10.4
		c0-6.2,3.9-10.4,9.8-10.4c2,0,3.6,0.6,4.9,1.7V30.4H124.5z M119,50.3c0-3.5-1.4-5.8-4.9-5.8s-5.2,2.3-5.2,5.8
		c0,3.5,1.7,5.8,5.2,5.8S119,53.7,119,50.3z M83,50.3c0,0.8-0.1,1.5-0.2,2.2h-14c0.6,2.3,2.1,3.6,4.4,3.6c2.1,0,3.8-0.8,5-2.3
		l3.3,3.3c-1.9,2.3-4.8,3.6-8.3,3.6c-5.9,0-9.8-4.2-9.8-10.4c0-6.2,3.9-10.4,9.8-10.4S83,44.1,83,50.3z M77.6,48.1
		c-0.6-2.3-2.1-3.6-4.4-3.6c-2.3,0-3.8,1.2-4.4,3.6H77.6z"/>
	<polygon class="st1" points="57,45.1 68.1,30.7 57,16.3 52.3,22.4 58.9,30.7 52.3,39.1 	"/>
</g>
</svg>
