<?xml version="1.0" encoding="UTF-8"?>
<svg enable-background="new 0 0 404.9 151.8" version="1.1" viewBox="0 0 404.9 151.8" xml:space="preserve" xmlns="http://www.w3.org/2000/svg">
<style type="text/css">
	.st0{fill:#2D2E63;}
	.st1{fill:#FFFFFF;}
	.st2{fill:#353C7A;}
	.st3{fill:#2E326D;}
	.st4{fill:#4A4A79;}
	.st5{fill:#C5D6EE;}
	.st6{fill:#3C4987;}
	.st7{fill:#364A9E;}
	.st8{fill:#384B93;}
	.st9{fill:#CAD9F0;}
	.st10{fill:#616CAA;}
	.st11{fill:#C6D7EF;}
	.st12{fill:#E2E9F5;}
	.st13{fill:#FAFBFC;}
	.st14{fill:#3C5799;}
	.st15{fill:#E8EEF8;}
	.st16{fill:#3A4FA2;}
	.st17{fill:#4F87C3;}
	.st18{fill:#4873B8;}
	.st19{fill:#3B57A7;}
	.st20{fill:#4779BB;}
	.st21{fill:#4169B2;}
	.st22{fill:#405EAB;}
	.st23{fill:#529ACE;}
	.st24{fill:#D7E3F4;}
	.st25{fill:#3950A2;}
	.st26{fill:#5CB8DE;}
	.st27{fill:#56A8D6;}
	.st28{fill:#FEFEFE;}
</style>
<title>globe_1</title>
<circle class="st0" cx="75.3" cy="75.3" r="75.3"/>
<path class="st1" d="m232.4 54.7-6.6 6.2-0.7-0.6c-5-4.7-12-6.8-18.8-5.6-5.8 0.6-10.9 3.9-14 8.8-1.5 2.4-2.5 5-2.9 7.8-1 5-0.7 10.2 1.1 15 3.2 8.2 9.3 12.7 18 13.7 5 0.4 10-0.4 14.7-2.2v-15h-10.5v-8.1c0.9-0.2 16.9-0.3 19.4-0.1 0.3 0.9 0.4 26.2 0.1 28.8-1.3 0.6-2.6 1.2-4 1.7-6 2.4-12.4 3.5-18.8 3.4-8.3-0.3-15.5-3-21.3-9.2-4-4.2-6.6-9.6-7.6-15.3-1.3-6.5-0.8-13.3 1.5-19.6 4.1-10.6 11.8-16.9 23.1-18.5 9.4-1.6 18.9 1.3 25.9 7.7 0.4 0.3 0.9 0.7 1.4 1.1z"/>
<path class="st1" d="m311.1 45.4h9v19.7c0.6-0.3 1.1-0.6 1.6-0.8 5.2-3 11.5-3.9 17.3-2.4 5.5 1.3 10.3 4.8 13.1 9.7 4.7 8.2 4.7 18.3 0 26.5-3.4 5.8-9.5 9.7-16.2 10.2-3.7 0.4-7.4 0-10.9-1.2-7-2.4-11.1-7.4-13-14.4-0.7-2.7-1-5.5-1-8.3v-38c0.1-0.3 0.1-0.6 0.1-1zm35.4 39.4c0.1-3-0.6-6-2-8.7-2.1-4.3-6.5-6.9-11.3-6.7-4.9-0.2-9.4 2.6-11.3 7.1-2.5 5.1-2.5 11.2 0 16.3 1.9 4.5 6.3 7.3 11.2 7.2 4.8 0.2 9.3-2.5 11.4-6.8 1.5-2.5 2.1-5.4 2-8.4z"/>
<path class="st1" d="m404.6 88.2h-33.3c0.8 4.5 2.9 8.2 6.9 10.3 6.3 3.3 12.1 1.9 17.3-2.6l5.6 5.9c0 0.1-0.1 0.2-0.1 0.2-8.1 7.6-20.5 8.6-29.7 2.3-4.5-3.2-7.6-8-8.7-13.4-1.5-6.1-0.7-12.6 2.2-18.3 4.1-7.8 10.6-11.6 19.4-11.4 9.6 0.3 17.1 6.4 19.6 15.8 1.1 3.7 1.3 7.5 0.8 11.2zm-33.1-8.3h24c-0.9-6-6-10.5-12.1-10.4-6-0.1-11.1 4.4-11.9 10.4z"/>
<path class="st1" d="m304.1 84.8c0 4.5-1.2 9-3.4 12.9-3.4 6.1-9.6 10-16.5 10.6-4.3 0.5-8.7-0.2-12.6-2.2-5.2-2.6-9.1-7.2-10.8-12.7-2-5.8-1.9-12.1 0.3-17.9 4.2-11.4 16.9-17.2 28.3-13 7.3 2.7 12.6 9 14 16.7 0.4 1.8 0.5 3.7 0.7 5.6zm-21.5 15.3c4.6-0.1 8.7-2.9 10.5-7.2 2.6-5.2 2.5-11.3-0.2-16.5-3.2-6.2-10.7-8.7-16.9-5.5-2.6 1.3-4.7 3.5-5.9 6.2-2.1 4.7-2.2 10.1-0.2 14.9 2 5.2 6.4 8.1 12.7 8.1z"/>
<path class="st1" d="m251.8 107.6h-9v-62.1h9v62.1z"/>
<path class="st0" d="m134.4 125.7c-1.3 1.4-2.4 2.9-3.8 4.2-29.4 29.2-76.8 29.1-106.1-0.2-2.3-2.3-4.5-4.8-6.5-7.4-7.4-9.6-12.3-20.8-14.2-32.8-3.7-24 2.7-45.2 18.9-63.4 6.7-7.4 14.9-13.4 24-17.4 0.2-0.1 0.5-0.2 0.7-0.3 0.1 0.6-0.3 0.7-0.7 0.9-1 0.5-2.1 0.9-3.1 1.4-0.5 0.3-1.1 0.5-1.3 1.1h-0.3c-0.4 0-0.7 0-0.8 0.5h-0.3l-0.5 0.5-1.3 0.5c-0.5 0.1-1 0.1-1 0.8-0.1 0.1-0.1 0.2-0.2 0.3l-3.3 2.1c-3.2 2.3-6.2 4.9-9 7.7-1.5 1.3-2.9 2.8-4 4.4-0.5 0-0.5 0.4-0.5 0.8l-0.5 0.5-0.8 1c-1.2 0.9-1.7 2.3-2.7 3.4-0.8 1.1-1.5 2.3-2.1 3.5-0.6 1-1.1 2-1.6 3-0.9 2.2-2.2 4.2-2.9 6.5 0 0 0 0.1-0.1 0.1-1.2 3-2.5 6-3.6 9-1.2 3.8-1.9 7.8-2.1 11.8-0.1 1.7-0.4 3.4-0.5 5.1-0.1 1.4-0.1 2.8 0 4.2 0.1 1.7 0.3 3.4 0.5 5.1 0.1 1.1 0.1 2.2 0.3 3.3 0.4 2.9 0.6 5.7 1.2 8.6 0.3 2 0.9 3.9 1.6 5.8 1.3 2.8 2.4 5.8 3.9 8.5s3.1 5.1 4.7 7.6c2 3 4.2 5.9 6.7 8.5 0.1 0.2 0.3 0.3 0.4 0.5 0.8 0.9 1.6 1.9 2.5 2.7 2.2 2 4.5 3.9 6.7 5.9s4.9 3.6 7.3 5.4c3.1 2.1 6.4 3.8 9.8 5.3 1.5 0.7 3 1.2 4.5 1.7 0.9 0.3 1.9 0.6 2.9 0.8 0.6 0.2 1.1 0.4 1.7 0.5 1.9 0.4 3.9 0.8 5.8 1.2s3.8 0.6 5.7 0.7c1.4 0 2.8 0.2 4.3 0.2 0.5 0 0.9 0 1.4-0.1s1.1-0.1 1.6-0.1c0.7 0.1 1.5 0.1 2.2 0 2.1 0 4.1-0.2 6.2-0.4 1.6-0.2 3.2-0.5 4.8-0.9l10.8-3c2-0.6 4.1-1.3 6.1-2.1 2.8-1.1 5.5-2.3 8.2-3.7 2.9-1.6 5.6-3.4 8.3-5.3 0.5-0.3 1.3-0.5 1.4-1.4l0.5-0.3 0.5-0.5 3.1-2.8c0.7 0.1 1.1-0.3 1-1l1.3-1c0.5 0 0.5-0.4 0.5-0.8l1.8-0.7z"/>
<path class="st0" d="m88 2.7c3.2 0.3 6.3 1 9.4 1.9 20.4 5.8 35.8 18 46.2 36.5 4.4 8.1 7.3 16.9 8.4 26 1.1 8.2 0.8 16.6-0.8 24.7-0.4 1.7-0.9 3.4-1.3 5.1-0.3 1-0.4 2-0.8 3-0.7 2-1.5 3.9-2.2 5.8-0.1-0.5-0.2-0.9-0.1-1.4 0.3-1.2 0.4-2.4 0.4-3.7 0.5-1.9 1.1-3.7 1.5-5.6 0.7-3.1 1.3-6.3 1.6-9.6 0.3-3.1 0.5-6.2 0.5-9.3 0-1.1-0.2-2.2-0.2-3.3-0.1-1.4-0.1-2.9-0.3-4.3-0.4-2.5-0.9-5-1.5-7.5-1.4-6.2-3.6-12.2-6.5-17.9-0.6-1.2-1.3-2.3-2-3.5-2-3.4-4.3-6.6-7-9.5-1.2-1.1-2.3-2.1-3.3-3.1-2.3-2.3-5-4.3-8-5.8-0.2-0.4-0.2-0.9-0.5-1.1-1.8-1.4-3.6-2.8-5.5-4.1-3.8-2.6-7.8-4.9-12-6.7-2.2-1.1-4.5-2.1-6.9-2.8-2.7-0.6-5.4-1.4-8-2.1h-0.3c-2.5-0.3-5.1-0.7-7.6-1.1-1.6-0.2-3.3-0.3-5.1-0.3-0.8 0-1.7-0.1-2.5-0.3-0.1 0-0.2-0.2-0.3-0.4 0.5 0 1-0.1 1.5-0.1h8.4l4.8 0.5z"/>
<path class="st2" d="m147.1 100.6c0 1.2-0.1 2.5-0.4 3.7 0 0.5 0 0.9 0.1 1.4-0.7 1.6-1.4 3.3-2.1 4.8-1.7 3.5-3.7 6.8-6 9.9-0.4 0.5-0.9 1.1-1.4 1.5-0.6 0-0.6 0.4-0.6 0.8l-0.2 0.2c-1 0.2-1.8 1.1-1.8 2.2l-0.4 0.6-1.8 0.8-0.5 0.8-1.3 1-1 1-3.1 2.8-0.5 0.5-0.5 0.3c-0.3 0.1-0.5 0.2-0.8 0.4l-3.3 2.1c-2.7 1.6-5.5 3-8.3 4.1-2.7 1.2-5.4 2.2-8.2 3.2-1.5 0.5-3.1 0.8-4.6 1.1 0.1-0.9 0.2-1.7 0.3-2.6 2.1-0.6 4.2-1.3 6.2-1.9s3.9-1.4 5.8-2.1c1.5 0.2 3.1-0.1 4.4-0.9 1.7-0.9 3.3-2.1 4.7-3.4 0.3 0 0.7 0 1-0.1 1.2-0.6 2.4-1.2 3.5-2 1.5-1.1 2.8-2.5 4.3-3.7 0.4-0.4 0.9-0.7 1.4-1l0.5-0.8 0.8-0.8c0.3-0.1 0.6-0.2 0.7-0.4 1.6-2.3 3.5-4.3 4.8-6.7 0.3-0.5 0.5-0.9 0.8-1.4 1.5-2.8 3.3-5.4 4.1-8.5 0.3-1.1 0.5-2.3 0.6-3.4 0.1-0.7-0.3-1.4-1-1.6-1-0.5-2.2-0.1-2.7 0.8 0 0 0 0.1-0.1 0.2-0.3 0.5-0.5 1.1-0.8 1.6-0.3 0.6-1 0.9-1.6 0.6-0.2-0.1-0.4-0.2-0.5-0.4-0.1-0.1-0.2-0.2-0.2-0.3-0.8-1.2-1.6-2.5-2.4-3.7-0.2-0.4-0.4-0.7-0.6-1.1s0.1-0.6 0.5-0.7l0.5 0.1c0.7 0.3 1.6 0.3 2.3 0 1.9-0.5 3.7-1.6 5-3.1 0.5 0.3 0.3 0.7 0.2 1.1-0.2 0.5 0 1 0.4 1.3 0.9 0.6 1.7 1.1 2.6 1.6 0.6 0 0.9 0.1 1.2 0.1z"/>
<path class="st3" d="m73.3 2.3c0.1 0.1 0.2 0.3 0.3 0.4 0.8 0.2 1.7 0.3 2.5 0.3 1.7 0 3.4 0.2 5.1 0.5 2.5 0.4 5.1 0.7 7.6 1.1h0.3c2.7 0.7 5.3 1.5 8 2.1 2.4 0.7 4.7 1.6 6.9 2.8 4.2 1.9 8.2 4.1 12 6.7 1.9 1.3 3.7 2.7 5.5 4.1 0.3 0.2 0.3 0.7 0.5 1.1-0.7-0.2-1.3-0.9-2.1-0.7h-1.2c0-0.6-0.4-0.9-0.9-1.1-2.1-1.1-4-2.6-6-3.8-2.7-1.6-5.6-3.1-8.5-4.3-0.3-0.1-0.6-0.1-0.8-0.2-0.1-0.6-0.6-0.8-1-0.9l-6.6-2-0.3-0.4-0.8-0.2-0.3-0.1-0.7-0.1-0.5-0.2-0.8-0.1-0.3-0.1h-0.2c-0.2-0.9-1.1-0.8-1.7-1-1.6-0.3-3.2-0.6-4.8-0.8-1.2-0.1-2.5-0.3-3.7-0.4s-2.3-0.1-3.5-0.3c-1.4-0.2-2.8-0.3-4.2-0.2-2.7 0.1-5.4 0.3-8.1 0.8-2.8 0.3-5.6 0.8-8.4 1.5-2 0.4-3.9 1-5.8 1.6-2.6 1.1-5.5 1.6-7.9 3.3-0.2 0.1-0.3 0.1-0.5 0.1 0.2-0.7 0.8-0.9 1.3-1.1 1-0.5 2.1-0.9 3.1-1.4 0.4-0.2 0.8-0.3 0.7-0.9 4.2-1.9 8.6-3.4 13.1-4.4 3.6-0.9 7.3-1.5 11-1.7h1.2 0.5z"/>
<path class="st4" d="m73.3 2.3h-0.6l-0.4-0.1c3.6-0.4 7.2-0.4 10.8 0h-8.3c-0.5 0-1 0.1-1.5 0.1z"/>
<path class="st3" d="m134.8 125.2c0-1 0.7-1.9 1.8-2.2l-1.8 2.2z"/>
<path class="st4" d="m88 2.7-4.8-0.5 4.8 0.5z"/>
<path class="st0" d="m72.4 2.2 0.4 0.1h-1.2l0.8-0.1z"/>
<path class="st3" d="m136.8 122.8c0-0.4-0.1-0.8 0.6-0.8l-0.6 0.8z"/>
<path class="st2" d="m42.4 11.8c0.2 0 0.3-0.1 0.5-0.1 2.4-1.7 5.3-2.2 7.9-3.3 1.9-0.6 3.9-1.2 5.8-1.6 2.8-0.7 5.6-1.2 8.4-1.5 2.7-0.4 5.4-0.7 8.1-0.8 1.4 0 2.8 0 4.2 0.2 1.2 0.2 2.3 0.2 3.5 0.3s2.5 0.3 3.7 0.5c1.6 0.2 3.2 0.5 4.8 0.8 0.6 0.1 1.5 0.1 1.7 1h-0.6l-8.8-1.1-2.7-0.2h-2.5c-0.8-0.2-1.6-0.4-2.5-0.5-1.2 0-2.4 0.4-3.6 0h-0.4l-1.6 0.2c-1.9 0.2-3.8 0.3-5.6 0.6-1.6 0.3-3.3 0.7-4.9 1.2-2.3 0.7-4.7 1.4-7 2.2-2 0.8-3.9 1.8-5.8 2.8-4 2.1-7.6 5.1-10.4 8.7-0.6 0.5-0.9 1.2-0.9 2l-0.3 0.2c-4.9 2.4-9 6.1-12 10.6-2.4 3.1-3.9 6.9-4.3 10.8-0.8 0.2-1.1 1-1.4 1.6-0.9 1.5-1.6 3-2.4 4.5-1.1 2-2.2 4.1-3.2 6.2-0.4 0.9-0.7 1.9-1 2.8l-0.6 0.2c-0.3 1.5-0.5 3-0.8 4.4-0.2 0.9-0.5 1.8-0.6 2.7-0.2 2-0.2 4.1-0.4 6.2-0.2 3.6-0.1 7.2 0.3 10.7 0.2 1.8 0.4 3.7 0.6 5.5-0.2 2.7 0.3 5.5 1.4 8 1.3 3.5 3 6.8 4.9 10 1.5 2.4 2.9 4.8 4.6 7.1 0.5 0.7 0.9 1.7 1.9 1.9-0.1 1.1 0.2 2.3 0.7 3.3l0.8 1.6c-0.3-0.1-0.6-0.3-0.9-0.5-0.8-0.9-1.5-1.9-2.3-2.9-1.3-1.8-2.6-3.6-3.8-5.5-0.9-1.5-1.7-3.1-2.6-4.6-2-3.4-3.5-7-4.7-10.7-1-2.9-1.4-5.9-1.4-8.9v-2.5c-0.1-2.1-0.4-4.3-0.5-6.4-0.2-3.3 0.3-6.7-0.3-10v-0.5c0.2-0.9 0.3-1.9 0.3-2.8 0.1-1.8 0.4-3.7 0.8-5.4 0.5-2 1.1-3.9 2-5.7 1-1.9 1.6-4 2.5-5.9 1.2-2.7 2.5-5.3 3.6-8s2.7-5.2 4-7.8c0.4-0.8 1.2-1.5 1.2-2.5 0.6 0 0.8-0.5 0.8-1l0.5-0.5 0.5-0.8c1.2-1.6 2.6-3.1 4.1-4.4 2.8-2.8 5.8-5.3 9-7.7l3.3-2.1c0.1-0.1 0.2-0.2 0.2-0.3 0.5 0 1-0.1 1-0.8l1.3-0.5 0.5-0.5h0.3l0.8-0.5h0.3z"/>
<path class="st3" d="m20 30.9c0 1-0.7 1.7-1.2 2.5-1.4 2.6-2.9 5.1-4 7.8s-2.4 5.3-3.6 8c-0.9 2-1.6 4-2.5 5.9-0.9 1.8-1.5 3.7-2 5.7-0.5 1.8-0.7 3.6-0.8 5.4 0 0.9-0.2 1.9-0.4 2.8v0.5c0.5 3.3 0.1 6.7 0.3 10 0.1 2.1 0.3 4.3 0.5 6.4v2.5c-0.1 3 0.4 6.1 1.4 8.9 1.2 3.7 2.7 7.3 4.7 10.6 0.9 1.5 1.7 3.1 2.6 4.6 1.2 1.9 2.5 3.7 3.8 5.5 0.7 1 1.5 1.9 2.3 2.9 0.3 0.2 0.6 0.4 0.9 0.5l1.8 2.3 0.2 0.2c0.1 0.4 0.2 0.9 0.5 1.3 1 1.2 2.1 2.4 3.3 3.5s2.6 2.3 3.9 3.5c0.3 0.3 0.7 0.6 1 0.9 1.2 1 2.5 1.9 3.7 2.8 2.5 1.9 5.1 3.7 7.9 5.2 0.9 0.5 1.8 1 2.7 1.4 1.9 1 3.9 1.7 6 2.3 2.3 0.5 4.4 1.3 6.7 1.9 0.7 0.2 1.4 0.3 2.1 0.3 0.2 0 0.4-0.3 0.6-0.4 1.7 0.2 3.2 0.8 4.9 0.9 2.3 0.1 4.5 0.5 6.8 0.6 5.4 0.3 10.7 0 16-1 3.2-0.7 6.3-1.5 9.4-2.3 0.5-0.1 1-0.3 1-0.9 1.5-0.4 3.1-0.6 4.6-1.1 2.8-1 5.5-2 8.2-3.2 2.9-1.2 5.7-2.6 8.3-4.1l3.3-2.1c0.3-0.1 0.5-0.3 0.8-0.4-0.1 0.8-0.9 1-1.4 1.4-2.7 1.8-5.4 3.7-8.3 5.3-2.6 1.4-5.3 2.6-8.1 3.7-2 0.8-4 1.5-6.1 2.1l-10.8 3c-1.6 0.4-3.2 0.7-4.8 0.9-2 0.3-4.1 0.4-6.2 0.4-0.7 0.1-1.5 0.1-2.2 0-0.5 0-1.1 0-1.6 0.1s-0.9 0.1-1.4 0.1c-1.4-0.1-2.8-0.2-4.3-0.2-1.9 0-3.9-0.2-5.7-0.7-1.9-0.4-3.9-0.8-5.8-1.2-0.6-0.1-1.1-0.4-1.7-0.5-1-0.3-2-0.5-2.9-0.8-1.5-0.5-3-1.1-4.5-1.7-3.4-1.5-6.7-3.3-9.8-5.3-2.5-1.7-5.1-3.2-7.3-5.4s-4.5-3.9-6.7-5.9c-0.9-0.8-1.6-1.8-2.5-2.7-0.1-0.2-0.3-0.3-0.4-0.5-2.5-2.6-4.7-5.5-6.7-8.5-1.6-2.5-3.3-5-4.7-7.6s-2.6-5.7-3.9-8.5c-0.7-1.9-1.3-3.8-1.6-5.8-0.6-2.8-0.8-5.7-1.2-8.6-0.2-1.1-0.2-2.2-0.3-3.3-0.2-1.7-0.4-3.4-0.5-5.1-0.1-1.4-0.1-2.8 0-4.2 0.1-1.7 0.3-3.4 0.5-5.1 0.2-4 0.9-7.9 2.1-11.7 1.1-3 2.4-6 3.6-9 0 0 0-0.1 0.1-0.1 0.6-2.3 2-4.3 2.9-6.4 0.4-1 1-2 1.6-3 0.6-1.2 1.3-2.4 2.1-3.5 1.1-1.5 1.6-3 2.8-3.8z"/>
<path class="st3" d="m39.3 13.4c0 0.7-0.5 0.8-1 0.8 0.1-0.7 0.6-0.8 1-0.8z"/>
<path class="st3" d="m129.9 129.3 1-1c0.1 0.7-0.3 1-1 1z"/>
<path class="st3" d="m20.8 29.8c0 0.5-0.1 1-0.8 1l0.8-1z"/>
<path class="st3" d="m21.8 28.6-0.5 0.8c0-0.4 0-0.8 0.5-0.8z"/>
<path class="st3" d="m42.1 11.8-0.8 0.5c0.1-0.5 0.5-0.5 0.8-0.5z"/>
<path class="st3" d="m132.2 127.3 0.5-0.8c0 0.4 0 0.7-0.5 0.8z"/>
<path class="st3" d="m41.1 12.3-0.5 0.5 0.5-0.5z"/>
<path class="st3" d="m126.3 132.6 0.5-0.5-0.5 0.5z"/>
<path class="st3" d="m21.3 29.3-0.5 0.5 0.5-0.5z"/>
<path class="st4" d="m119.9 20.5c0.8-0.2 1.4 0.5 2.1 0.7 2.9 1.5 5.6 3.4 8 5.8 1.1 1 2.1 2.1 3.1 3.1 2.7 2.9 5 6.1 7 9.5 0.7 1.2 1.4 2.3 2 3.5 2.9 5.6 5.1 11.7 6.5 17.9 0.6 2.5 1.1 5 1.5 7.5 0.2 1.4 0.2 2.8 0.3 4.3 0.1 1.1 0.2 2.2 0.2 3.3 0 3.1-0.2 6.2-0.5 9.3-0.3 3.2-0.8 6.4-1.6 9.5-0.4 1.9-1 3.7-1.5 5.6-0.3-0.1-0.6-0.2-0.9-0.3-0.9-0.5-1.8-1.1-2.6-1.6-0.5-0.3-0.6-0.8-0.4-1.3 0.2-0.4 0.3-0.8-0.2-1.1l1.6-2.4c0.6-1.1 1.2-2.3 1.7-3.4 3.2-8.5 3.2-17.9 0.1-26.4-1.1-3.5-3.3-6.5-6.4-8.5 0.1-0.4 0.2-0.7 0.4-1 0.6-1 0.9-2.3 0.9-3.5-0.4-2.6-1.3-5.1-2.6-7.4-0.1-0.1-0.4-0.1-0.6-0.2-0.5-1.8-1.1-3.6-1.9-5.3-2.9-6-7.6-10.9-13.5-14.1-0.1-0.2-0.1-0.5-0.2-0.6-0.6-0.5-1.1-1-1.7-1.4s-0.7-0.8-0.8-1.5z"/>
<path class="st5" d="m100.6 143.8c0 0.6-0.5 0.8-1 0.9-3.1 0.8-6.3 1.7-9.4 2.3-5.3 1-10.6 1.3-16 1-2.3-0.1-4.5-0.5-6.8-0.6-1.7-0.1-3.3-0.7-4.9-0.9l-1-0.3-5.8-1.6c-0.5-0.1-0.8-0.3-0.9-0.9l-0.3-2.3-0.2-2v-0.6l-0.5-7.3c-0.1-1.3-0.2-2.5-0.3-3.8v-4.9l1.2 0.2 6.2 1.1 0.3 0.1c1.8 0.3 1.5 0.3 2.3-1l0.3-0.6 2.3-3.4 3.3 0.2 2.3 0.2 3.3 0.1c0.4 0.1 0.9 0.1 1.3 0.2 3.8 0.1 7.6-0.1 11.4-0.5 0.5 0 0.9 0 1.4-0.1 0.5-0.2 1.1 0.1 1.3 0.6 0.5 0.8 1.1 1.6 1.6 2.4l1.3 2.1 3.8-0.9 3.2-0.7 1.9-0.4v1.5c0 1.9-0.1 3.8-0.2 5.6l-0.3 4.8c-0.1 1.2-0.2 2.4-0.3 3.5l-0.3 3c-0.3 1.3-0.4 2.1-0.5 3zm-21.5-14.7h-1.5l-1.8 0.1-0.8 0.2c-1.4 0.1-2.7 0.6-3.9 1.3-2.2 1.1-4 2.9-5 5.2-1.1 2.2-0.5 4.9 1.4 6.5 0.8 0.7 1.6 1.3 2.5 1.7 2.9 1.5 6.2 2.1 9.4 1.7 2.5-0.2 5-1 7.1-2.5 1.7-1.1 2.8-2.8 2.9-4.8 0.2-1 0-2.1-0.5-3-2-4.1-5.5-5.9-9.8-6.4z"/>
<path class="st5" d="m143.6 95.3-0.6 0.9c-1.3 1.5-3.1 2.6-5 3.1h-2.3l-0.5-0.1c-1.8-0.6-3.3-1.7-4.6-3.1-1.6-2.1-2.9-4.5-3.7-7-0.4-1.1-0.7-2.3-1-3.4 0-0.3-0.1-0.7-0.1-1-1-5.4-1-11 0.1-16.4 0.6-3.5 2.1-6.8 4.2-9.7 1.8-2.3 3.9-4 6.9-4.1l1.1 0.2c-0.5 0.1-0.6 0.3-0.4 0.8 1.3 2.4 2.5 4.9 3.4 7.5 1.3 3.4 2.3 6.9 3 10.4 0.1 0.4 0.2 0.9-0.3 1.1l-0.8-0.9-5.7-6.3c-0.3-0.3-0.6-0.6-1-0.9v20.5h0.1l0.7-0.6c2.8-2.6 5.4-5.4 7.7-8.4l0.3 4.8v2.6c0 0.3 0.1 0.6 0.2 0.9v0.5c-0.4 0.1-0.5 0.4-0.5 0.7-0.1 1.4-0.3 2.8-0.5 4.1-0.5 1.6-0.7 2.7-0.7 3.8z"/>
<path class="st5" d="m122 132.8c-1.4 1.3-3 2.5-4.7 3.4-1.3 0.8-2.9 1.1-4.4 0.9-0.9-0.4-1.5-1.3-1.6-2.2 0.1-1.4 0.5-2.8 1.1-4 1.4-2.1 3.1-3.9 5.1-5.3 0.6-0.4 0.9-1 0.9-1.7s0.1-1.4 0.1-2.1c0.1-1.4 0.1-2.7 0.2-4.1 0.3-1.2 0.3-1.3-0.6-1.5-1.8-0.3-3.1-1.8-3-3.6 0-1.3 0.3-2.6 0.8-3.8l1.6-2.3 2-1.5 1-0.5c0.4-0.1 0.7-0.2 1.1-0.2 1.8-0.2 3.9 0.3 4.3 3.1 0.1 0.5 0.2 1.1 0.3 1.7l2.3 0.2 2.3 0.3 2.5 0.3c0.5 0.3 1.1 0.1 1.4-0.3 0.4-0.5 0.8-0.9 1.2-1.3l0.5-0.3 0.3-0.2h0.2 1l0.5 0.7c-1 1.7-1.9 3.4-2.9 5.1-0.6 1-1.2 1.9-1.8 2.9-2.4 3.1-5 6.1-7.8 8.8-0.3 0.3-0.5 0.8-0.6 1.2-0.1 1-0.4 2-0.9 3-0.7 1.1-1.5 2.2-2.4 3.3zm4.6-19.7h-0.6c-0.8-0.5-1.8-0.3-2.3 0.5-0.1 0.1-0.1 0.2-0.1 0.2-0.1 0.2-0.3 0.4-0.5 0.5-0.5 0.4-0.8 1-0.8 1.6 0 0.8-0.1 1.7-0.2 2.5-0.1 1.4-0.2 2.8-0.3 4.3l-0.2 0.8 0.2 0.2 2.5 0.2c2.8-2.6 5.4-5.5 7.7-8.6 0.4-0.4 0.5-1.1 0.2-1.7l-4.3-0.3-1.3-0.2z"/>
<path class="st6" d="m136.3 107.9-0.5 0.3c-0.5-1.2-0.9-2.4-1.5-3.6-1-2-2.2-4-3.3-6.1-0.5-0.7-0.6-1.5-0.3-2.3 1.3 1.4 2.8 2.4 4.6 3.1-0.4 0.1-0.6 0.3-0.5 0.7 0.2 0.4 0.3 0.8 0.6 1.1 0.8 1.3 1.6 2.5 2.4 3.7 0.1 0.1 0.1 0.2 0.2 0.3 0.4 0.5 1.1 0.7 1.7 0.3 0.2-0.1 0.3-0.3 0.4-0.5 0.3-0.5 0.5-1.1 0.8-1.6 0.4-1 1.6-1.5 2.6-1.1 0.1 0 0.1 0 0.2 0.1 0.7 0.2 1.1 0.9 1 1.6-0.2 1.2-0.4 2.3-0.6 3.4-0.8 3.1-2.7 5.7-4.1 8.5-0.3 0.5-0.5 1-0.8 1.4-1.4 2.4-3.3 4.4-4.8 6.7-0.1 0.2-0.5 0.3-0.7 0.4 0-0.1 0-0.2 0.1-0.4 1.1-1.6 2.2-3.2 3.2-4.8 0.5-1 0.9-2 1.3-3s-0.3-1.8-0.7-2.5c0.5-1.2 1-2.4 1.4-3.6 0.3-0.6 0.1-1.4-0.3-1.9l-0.5-0.7c-0.3-0.3-0.7-0.3-1 0h-0.2l-0.7 0.5z"/>
<path class="st7" d="m137.2 113.8c0.5 0.8 1.1 1.6 0.7 2.5-0.3 1-0.7 2-1.3 3-1 1.7-2.1 3.2-3.2 4.8 0 0.1-0.1 0.2-0.1 0.4l-0.8 0.8c-0.5 0-0.5 0.4-0.5 0.8-0.5 0.3-1 0.7-1.4 1-1.4 1.2-2.8 2.6-4.3 3.7-1.1 0.8-2.3 1.4-3.5 2-0.3 0.1-0.7 0.1-1 0.1 0.9-1.1 1.7-2.3 2.4-3.5 0.4-1 0.7-2 0.9-3 0-0.5 0.2-0.9 0.6-1.2 2.8-2.7 5.5-5.6 7.8-8.8 0.9 0 1.7-0.4 2.2-1.1 0.7-0.5 1.1-1 1.5-1.5z"/>
<path class="st8" d="m111.4 134.9c0.1 1 0.7 1.8 1.6 2.2-1.9 0.7-3.8 1.5-5.8 2.1s-4.2 1.3-6.2 1.9l0.3-3c2.3-0.7 4.5-1.4 6.8-2.1 1.1-0.3 2.2-0.7 3.3-1.1z"/>
<path class="st4" d="m135.7 99.4h2.3c-0.7 0.3-1.6 0.3-2.3 0z"/>
<path class="st6" d="m132.2 126c0-0.4 0-0.7 0.5-0.8l-0.5 0.8z"/>
<path class="st9" d="m81.7 6.2 8.8 1.1h0.6 0.2l0.3 0.1 0.8 0.1 0.5 0.2 0.7 0.1 0.3 0.1 0.7 0.1 0.2 0.1 6.6 2c0.5 0.1 1 0.3 1 0.9v1.2l-2.5 0.1c-0.6 0-1.2-0.1-1.8 0-2.4 0.2-4.8 0.4-7.2 0.7-4.2 0.4-8.4 1.5-12.3 3.2-0.5 0.2-1.1 0.2-1.6 0-3.5-1.4-7.1-2.4-10.8-3.1-3.1-0.6-6.3-0.9-9.4-0.9h-0.7l-2.9-0.2v-0.8c0-0.8 0.5-1.1 1.2-1.3 6.6-2.3 13.5-3.5 20.5-3.7 0.5 0 1-0.1 1.5-0.2h2.5l2.8 0.2z"/>
<path class="st10" d="m119.9 20.5c0 0.7 0.5 1 1 1.4s1.2 0.9 1.7 1.4c0.1 0.1 0.1 0.4 0.2 0.6-1.5-0.7-3.1-1.1-4.7-1.3-1.7-0.3-3.4 0.5-4.3 2l-0.4 0.9c-0.6-1.2-1.3-2.4-1.8-3.7-0.4-0.8-0.1-1.1 0.8-1.1h1.8c0.8-0.1 1.7 0.3 2.5-0.2 0.4 0.1 0.9 0.1 1.4 0.2 0.2 0 0.5-0.1 0.7-0.1l1.1-0.1z"/>
<path class="st2" d="m118.7 20.5c-0.2 0.1-0.4 0.1-0.7 0.1-0.5 0-0.9-0.1-1.4-0.2-0.2-0.4-0.5-0.7-0.8-1-0.9-0.7-1.9-1.3-2.9-1.9-1.8-1-3.7-2-5.5-3-0.7-0.4-1.3-0.7-2-1s-1.3-0.6-2-0.9c-0.4-0.2-0.8-0.3-1.2-0.5v-1.2c0.3 0 0.6 0.1 0.8 0.2 2.9 1.3 5.8 2.7 8.5 4.3 2.1 1.2 3.9 2.7 6 3.8 0.8 0.4 1.2 0.7 1.2 1.3z"/>
<path class="st2" d="m92.8 7.7-0.5-0.2 0.5 0.2z"/>
<path class="st2" d="m94.8 8.1-0.2-0.1 0.2 0.1z"/>
<path class="st2" d="m93.8 7.9-0.3-0.1 0.3 0.1z"/>
<path class="st2" d="m91.6 7.4-0.3-0.1 0.3 0.1z"/>
<path class="st11" d="m7.7 89.6c-0.3-1.8-0.5-3.6-0.7-5.5-0.4-3.5-0.5-7.1-0.2-10.7 0.2-2.1 0.2-4.1 0.4-6.2 0.1-0.9 0.4-1.8 0.6-2.7 0.3-1.4 0.5-2.9 0.8-4.4l0.5-0.1 3.1-0.3 1 0.1c0.4 1.6 0.8 3.3 1.3 4.9 1 3.3 2 6.6 3.2 9.8 0.4 1.3 1 2.6 1.8 3.8 2.1 3.6 3.3 7.8 3.4 12l-3.3 0.1h-0.8-0.2-0.6l-7.1-0.4-1.8-0.1-1.3-0.2-0.1-0.1z"/>
<path class="st6" d="m76.4 6c-0.5 0-1 0.2-1.5 0.2-7 0.2-13.9 1.5-20.5 3.8-0.7 0.2-1.2 0.5-1.2 1.3-1.6 0.6-3.1 1.3-4.6 2.1-1.8 1.1-3.5 2.3-5 3.8-1.6 1.7-3 3.6-4.4 5.5-1-0.1-1.9-0.1-2.9 0-0.9 0.2-1.7 0.4-2.6 0.6 0-0.8 0.3-1.5 0.9-2 2.8-3.6 6.3-6.6 10.3-8.8 1.9-1 3.8-2 5.8-2.8 2.3-0.9 4.6-1.6 7-2.2 1.6-0.5 3.2-0.9 4.9-1.2 1.9-0.3 3.7-0.4 5.6-0.6l1.8-0.2c0.1 0 0.3-0.1 0.4 0 1.2 0.4 2.4 0 3.6 0 0.8 0.1 1.6 0.3 2.4 0.5z"/>
<path class="st12" d="m33.8 23.3c0.8-0.3 1.7-0.5 2.6-0.6 1-0.1 1.9-0.1 2.9 0v0.1h-0.3c-1 0.9-2 1.8-2.9 2.7-0.1 0.1 0 0.5 0 0.8-1.1-0.2-2.2-0.1-3.2 0.5-1.1 0.6-2.2 1.2-3.2 2-2.9 2.3-5.3 5.1-7.2 8.3-0.7 1.3-1.3 2.6-1.8 4-0.4 1-0.3 2.1 0.3 3l0.1 0.4c-1.2 1.3-2 2.9-2.3 4.6h-0.2c-0.9-1.2-1.4-2.7-1.4-4.3 0.4-3.9 1.9-7.6 4.3-10.7 3-4.5 7.1-8.2 12-10.6l0.3-0.2z"/>
<path class="st6" d="m7.7 89.6 0.3 0.1 1.2 0.2c-0.1 1.4 0.1 2.7 0.6 4 0.8 2 1.6 4.1 2.5 6.1 1.5 3.1 3.2 6.1 5 8.9 0.2 0.3 0.6 0.4 0.9 0.6l0.5 2 1.5 0.6 0.3 0.2c-0.1 1.1 0.7 1.8 1.2 2.7 0.3 0.4 0.6 0.7 0.5 1.2-0.6 0-1.2-0.2-1.6 0.5-1-0.3-1.4-1.2-1.9-1.9-1.7-2.2-3.1-4.7-4.6-7.1-1.9-3.2-3.6-6.5-4.9-10-1.2-2.6-1.7-5.3-1.5-8.1z"/>
<path class="st8" d="m17.1 44.8c0 1.5 0.5 3 1.4 4.3 0 0.2-0.1 0.3-0.1 0.5-1.1 1.7-2.3 3.3-3.4 5-1.2 1.6-2.1 3.3-2.8 5.1l-3.1 0.3c0.3-1 0.6-1.9 1-2.8 1-2.1 2.1-4.1 3.2-6.2l2.4-4.5c0.4-0.7 0.6-1.5 1.4-1.7z"/>
<path class="st9" d="m20.5 116.6c0.4-0.6 1-0.5 1.6-0.5 1.6 1 3 2.4 3.9 4 0.5 0.8 0.9 1.8 1.4 2.6 0 0.4 0.1 0.8 0.1 1.1 0.1 1.2-0.1 1.3-1.3 1.4l-2.1-1.3-0.2-0.2-1.9-2.3-0.8-1.6c-0.5-0.9-0.8-2.1-0.7-3.2z"/>
<path class="st6" d="m81.7 6.2-2.8-0.2 2.8 0.2z"/>
<path class="st6" d="m33.8 23.3-0.3 0.2 0.3-0.2z"/>
<path class="st2" d="m24.1 124 2.1 1.3c1.2 0.3 2.2 0.9 3 1.8 1.5 1.4 2.8 3.2 4.7 4.2 0.2 0.1 0.3 0.3 0.5 0.4 2.1 2.2 4.7 3.6 7.1 5.4 1 0.7 2 1.3 3 1.9 1.3 0.8 2.6 1.6 4 2.4 2 1 4.1 1.8 6.3 2.3 0 0.6 0.4 0.8 0.9 0.9l5.8 1.6 1 0.3c-0.2 0.2-0.4 0.4-0.6 0.4-0.7 0-1.4-0.1-2.1-0.3-2.2-0.6-4.4-1.4-6.7-1.9-2.1-0.6-4.1-1.4-6-2.3-0.9-0.4-1.8-0.8-2.7-1.4-2.7-1.6-5.4-3.3-7.9-5.2-1.2-1-2.5-1.9-3.7-2.8-0.4-0.3-0.7-0.6-1-0.9-1.3-1.1-2.6-2.3-3.9-3.5s-2.2-2.3-3.3-3.5c-0.2-0.2-0.4-0.7-0.5-1.1z"/>
<path class="st2" d="m23.9 123.7 0.2 0.2-0.2-0.2z"/>
<path class="st13" d="m143.7 74.8c0.5-0.2 0.4-0.7 0.3-1.1-0.7-3.5-1.7-7-3-10.4-1-2.6-2.1-5.1-3.4-7.5-0.3-0.5-0.1-0.7 0.4-0.8l2 0.5c3.1 2 5.3 5 6.4 8.5 3.1 8.5 3.1 17.9-0.1 26.4-0.5 1.2-1.1 2.3-1.7 3.4-0.2-0.5-0.4-0.9 0-1.4 0.1-0.2 0.2-0.4 0.2-0.7 0.1-1.5 0.2-3.1 0.3-4.6v-0.5l0.3-1.2c0.1-0.6 0.1-1.2 0.1-1.7 0.1-1 0.1-1.9 0-2.9-0.2-1.1-0.3-2.2-0.3-3.3 0.2-0.4-0.1-0.8-0.3-1.1l-1.2-1.6z"/>
<path class="st13" d="m113.4 25.5 0.4-0.9c0.9-1.5 2.6-2.3 4.3-2 1.6 0.2 3.2 0.6 4.7 1.3 5.8 3.2 10.5 8.1 13.5 14 0.7 1.7 1.4 3.5 1.9 5.3 0 1.2 0 2.4-0.2 3.6-0.4 1.9-2.1 3.2-4 3-0.5-0.8-0.9-1.7-1.4-2.5-0.3-0.6-0.8-1.1-1.2-1.6l1.3-0.4c1.2-0.2 2.1-1.1 2.2-2.3 0-0.5 0-1.1-0.1-1.6-0.6-2.3-1.7-4.5-3.2-6.4-1.4-2-3.1-3.8-5-5.4-1.3-1-2.6-2-4-2.8-0.6-0.3-1.3-0.5-2-0.6-1.3-0.2-2.6 0.6-2.9 2 0 0.3-0.1 0.5 0 0.8 0.1 1 0.2 2 0.4 3-1.7-0.5-3-1.8-3.6-3.5-0.3-0.7-0.4-1.5-1.2-1.9l0.1-1.1z"/>
<path class="st14" d="m134 49.9c1.9 0.2 3.6-1.1 4-3 0.2-1.2 0.2-2.4 0.2-3.6 0.2 0.1 0.5 0.1 0.6 0.2 1.3 2.3 2.2 4.8 2.6 7.4 0.1 1.2-0.2 2.4-0.9 3.5-0.2 0.3-0.3 0.7-0.4 1l-2-0.5-1.1-0.2c-0.7-1.3-1.5-2.6-2.2-3.9-0.2-0.5-0.7-0.7-1.2-0.7s-1-0.1-1.4-0.2h1.8z"/>
<path class="st15" d="m145.1 87.2c-0.1 1.5-0.1 3.1-0.3 4.6 0 0.2-0.1 0.5-0.2 0.7-0.5 0.5-0.2 0.9 0 1.4l-1 1.5c0-1.1 0.1-2.3 0.5-3.3 0.3-1.3 0.4-2.7 0.5-4.1 0-0.5 0.1-0.8 0.5-0.8z"/>
<path class="st16" d="m60.8 124.2-6.2-1.1-1.2-0.2v4.8c-0.7-0.3-1.4-0.7-2.1-1s-1.1-0.8-1.6-1.2c-0.9-0.7-1.9-1.4-2.8-2.1-1.3-1-2.6-2.1-3.8-3.2-0.4-0.4-0.9-0.6-1.5-0.5-0.9-2-1.8-4-2.9-5.9-0.8-1.2-1.7-2.4-2.6-3.5-1.5-2.1-3.3-4-5.4-5.6-0.8-0.6-1.6-1.1-2.4-1.6l-0.5-0.4-0.5-0.2c-0.1 0-0.2 0-0.2-0.1 0.1-0.7-0.4-1.2-0.6-1.7-0.6-0.9-1.1-1.9-1.5-2.9-0.5-1.6-0.7-3.2-0.7-4.8-0.1-0.8 0.2-1.5 0.8-2l0.7 0.6c0.6 0.7 1.1 1.5 1.7 2.2 0.6 0.6 1.2 1.1 1.9 1.6 1.2 1.3 2.5 2.6 3.8 3.8v-0.9c-0.4-2.2-0.8-4.5-1.1-6.7-0.3-1.9-0.4-3.8-0.6-5.8l5-0.5c0.2-0.1 0.5-0.1 0.7-0.3 2.3-1.1 4.8-1.8 7.4-1.9 2.5-0.3 5-0.2 7.4-0.3 0.7 1.3 1.3 2.6 2.1 3.8 1.7 2.5 3.5 5 5.3 7.4 2.1 3 4.5 5.8 7.2 8.3 1.2 1 2.4 1.9 3.6 2.8-0.1 0.2-0.2 0.3-0.3 0.5-0.6 1.4-1.2 2.7-1.9 4.1-0.4 0.8-1 1.5-1.3 2.3s-0.7 1.8-1.1 2.7c-0.3 0.7-0.9 1.4-0.9 2.2-0.1 1.5-0.5 3-1 4.4-0.2 0.6-0.1 1.3 0.2 1.8l-0.3 0.6c-0.9 1.4-0.6 1.4-2.3 1l-0.5-0.5z"/>
<path class="st17" d="m117.5 106.5-1.6 2.3-3.3-0.8c-0.3-0.1-0.7-0.2-1-0.2-1.4 0.2-2.5 1.1-3.2 2.2-0.6 1.1-1.2 2.1-1.9 3.1-0.3 0.5-0.7 1-0.9 1.5-1.3 2.4-1.8 5.3-1.4 8 0.1 0.9 0.9 1.5 1.7 1.4h0.2c3-0.6 5.9-1.7 8.4-3.5 0.8-0.6 1.5-1.2 2.2-1.9 0.5-0.6 1.2-0.9 1.9-1-0.1 1.4-0.1 2.7-0.2 4.1-0.3 0.1-0.6 0.2-0.9 0.4-0.6 0.4-1.2 0.9-1.8 1.4-3.4 2.3-7.1 4.2-11 5.6-1 0.3-2 0.6-3 0.8 0.1-1.9 0.1-3.8 0.2-5.6v-1.5l-1.9 0.4-3.2 0.7c0-0.3 0-0.6 0.1-0.9 1.3-3.5 2.5-7.1 4.1-10.6 1.1-2.2 2.4-4.4 3.8-6.5 0.2-0.4 0.5-0.7 0.9-0.9 1.5-1.1 3.4-1.5 5.3-1.1s3.8 1.2 5.4 2.3c0.4 0 0.8 0.2 1.1 0.3z"/>
<path class="st18" d="m120.5 104.4-1 0.5c-0.9-0.6-1.7-1.2-2.6-1.7s-1.8-0.9-2.7-1.4c-2.8-1.7-6.2-2.2-9.4-1.5-0.3 0.1-0.6 0.2-0.8 0.4-1.1 0.6-2 1.5-2.7 2.6-1.1 1.7-2.5 3.3-3.3 5.2-0.3 0.8-0.6 1.7-1 2.5-1 2.3-1.9 4.6-3 6.8-0.7 1.6-1.2 3.3-2.3 4.6-0.5-0.8-1.1-1.6-1.6-2.4-0.2-0.5-0.8-0.8-1.3-0.6-0.5 0.1-0.9 0.1-1.4 0.1 0.3-0.8 0.5-1.6 0.8-2.3 0.4-0.7 0.7-1.4 0.9-2.2 0.5-1.9 1.1-3.7 1.9-5.4 0.3-0.6 0.4-1.2 0.6-1.8 0.1-0.4-0.1-0.6-0.5-0.7 0.2-0.1 0.4-0.2 0.5-0.3 3.9-1.5 7.2-4.4 9.3-8.1 0.7-1.2 1.3-2.5 2-3.8l1.2 0.3c0.4 0 0.8 0 1.1 0.1 1.5 0.6 2.9 1.3 4.4 1.9 1.3 0.6 2.5 1.3 3.7 1.8 2.8 1.3 5.3 3.2 7.2 5.4z"/>
<path class="st19" d="m63.7 122.8c-0.3-0.6-0.4-1.2-0.2-1.8 0.5-1.4 0.9-2.9 1-4.4 0-0.7 0.6-1.4 0.9-2.2 0.4-0.9 0.7-1.8 1.1-2.7s1-1.5 1.3-2.3c0.7-1.3 1.3-2.7 1.9-4.1 0.1-0.2 0.2-0.3 0.3-0.5l1 0.5c2.7 1.5 5.7 2.5 8.8 2.9-0.2 0.6-0.3 1.1-0.5 1.7-0.7 1.6-1.4 3.2-2 4.9s-0.9 3.3-1.4 5l-1.3 0.1-3.3-0.1-2.3-0.2-3.3-0.2-2 3.4z"/>
<path class="st20" d="m91.8 122.5c1.1-1.4 1.5-3.1 2.3-4.6 1.1-2.2 2-4.6 3-6.8 0.3-0.8 0.6-1.7 1-2.5 0.8-1.9 2.2-3.5 3.3-5.2 0.7-1.1 1.6-2 2.7-2.6 0.2-0.2 0.5-0.3 0.8-0.4 3.2-0.7 6.5-0.2 9.4 1.5 0.9 0.5 1.8 0.9 2.7 1.4s1.8 1.1 2.6 1.7l-2 1.5c-0.3-0.1-0.7-0.2-1-0.4-1.7-1.1-3.5-1.8-5.4-2.3-1.8-0.4-3.8-0.1-5.3 1.1-0.4 0.2-0.7 0.5-0.9 0.9-1.4 2.1-2.7 4.2-3.8 6.5-1.5 3.4-2.7 7-4.1 10.6-0.1 0.3-0.1 0.6-0.1 0.9l-3.8 0.9-1.4-2.2z"/>
<path class="st21" d="m74.8 119.9 1.3-0.1c0.5-1.7 0.8-3.4 1.4-5s1.3-3.3 2-4.9c0.2-0.5 0.3-1.1 0.5-1.7 1.4 0 2.9 0.1 4.3 0.1 2.4 0 4.8-0.4 7.1-1.1 0.4 0.1 0.6 0.2 0.5 0.7l-0.6 1.8c-0.8 1.7-1.4 3.5-1.9 5.4-0.2 0.8-0.5 1.5-0.9 2.2-0.3 0.8-0.6 1.6-0.8 2.3-3.8 0.4-7.6 0.6-11.4 0.5-0.6-0.1-1-0.1-1.5-0.2z"/>
<path class="st22" d="m41.7 119.6c0.5-0.1 1.1 0.1 1.5 0.5 1.3 1.1 2.5 2.2 3.8 3.2 0.9 0.7 1.8 1.4 2.8 2.1 0.5 0.4 1 0.9 1.6 1.2s1.4 0.7 2.1 1c0.1 1.3 0.2 2.5 0.3 3.8l0.5 7.3v0.6c-0.5-0.1-0.9-0.2-1.3-0.3-1.4-0.7-2.8-1.4-4.1-2.2-1.7-1-3.2-2.2-4.8-3.4-0.5-0.4-1.1-0.8-1.2-1.5 0.1-0.8 0.2-1.5 0.3-2.2 0.1-3.4-0.4-6.8-1.5-10.1z"/>
<path class="st22" d="m89.5 138.4c-0.2 2-1.2 3.7-2.9 4.8-2.1 1.5-4.5 2.3-7.1 2.5-3.2 0.4-6.5-0.2-9.4-1.7-0.9-0.5-1.7-1.1-2.5-1.8-1.9-1.6-2.4-4.2-1.4-6.5s2.8-4.1 5-5.2c1.2-0.7 2.5-1.1 3.9-1.3l0.8-0.2 1.8-0.1c-0.3 1.1-0.7 2.1-1 3.2-0.2 0-0.4 0.1-0.6 0.1-2.2 0.4-4.2 1.7-5.3 3.6-0.9 1.4-0.8 3.2 0.3 4.5s2.6 2.2 4.2 2.7c4.3 1.2 8.4-0.6 10-4.4l4.2-0.2z"/>
<path class="st18" d="m101.8 129.8c1-0.2 2-0.5 3-0.8 3.9-1.4 7.6-3.2 11-5.6 0.6-0.4 1.2-0.9 1.8-1.4 0.3-0.2 0.6-0.3 0.9-0.4 0 0.7-0.1 1.4-0.1 2.1 0.1 0.7-0.3 1.3-0.9 1.7-2 1.4-3.8 3.2-5.1 5.3-0.7 0.1-1.4 0.3-2.1 0.5-2 0.8-4 1.8-6 2.6-0.9 0.3-1.9 0.6-2.9 0.8l0.4-4.8z"/>
<path class="st6" d="m54.7 143.8c-2.2-0.5-4.3-1.3-6.3-2.3-1.4-0.7-2.7-1.6-4-2.4-1-0.6-2-1.2-3-1.9-2.4-1.8-5-3.2-7.1-5.4-0.1-0.2-0.3-0.3-0.5-0.4-1.9-1.1-3.1-2.8-4.7-4.2-0.8-0.9-1.8-1.5-3-1.8 1.2-0.1 1.4-0.3 1.3-1.4 0-0.4-0.1-0.7-0.1-1.1 0.2-0.1 0.4-0.2 0.5-0.2 0.2 0.2 0.4 0.5 0.6 0.7 0.6 0.7 1.2 1.5 2.2 1.7l0.4 1 0.2 2.4 3.9 1.4c0.6 0.3 1.1 0.6 1.6 1 2.6 2.2 5.4 4.2 8.4 6 1.8 1.2 3.7 2.2 5.6 3.3 1.1 0.8 2.3 1.2 3.6 1.4l0.4 2.2z"/>
<path class="st18" d="m89.5 138.4-4.2 0.2c0.2-1.6-0.5-3.2-1.7-4.3-1.4-1.2-3.1-1.9-4.9-2.1-0.7-0.1-1.3-0.1-2-0.1 0.3-1.1 0.7-2.1 1-3.2h1.5c4.3 0.5 7.8 2.3 9.8 6.3 0.4 1.1 0.6 2.2 0.5 3.2z"/>
<path class="st14" d="m54.5 141.5c-1.3-0.2-2.5-0.6-3.6-1.4-1.9-1.1-3.8-2.1-5.7-3.3-2.9-1.8-5.7-3.8-8.4-6-0.5-0.4-1-0.7-1.6-1l0.2-2.8c0.7-0.1 1 0.5 1.4 0.9 0.6 0.6 1.1 1.3 2 1.4v1.7l4 1c0.1 0.8 0.7 1.1 1.2 1.5 1.6 1.1 3.2 2.3 4.8 3.4 1.3 0.8 2.7 1.5 4.1 2.2 0.4 0.2 0.9 0.3 1.3 0.3l0.3 2.1z"/>
<path class="st19" d="m101.5 134.6c1-0.2 2-0.4 2.9-0.8 2-0.8 4-1.8 6-2.6 0.7-0.2 1.4-0.4 2.1-0.5-0.7 1.2-1 2.6-1.1 4-1.1 0.4-2.2 0.8-3.3 1.1-2.3 0.7-4.5 1.4-6.8 2.1 0-0.9 0.1-2.1 0.2-3.3z"/>
<path class="st17" d="m69.3 119.6 2.3 0.2-2.3-0.2z"/>
<path class="st18" d="m75.8 129.1-0.8 0.2 0.8-0.2z"/>
<path class="st22" d="m79.1 129.1h-0.5 0.5z"/>
<path class="st19" d="m60.8 124.2 0.3 0.1-0.3-0.1z"/>
<path class="st8" d="m130.7 96.3c-0.3 0.8-0.1 1.6 0.3 2.3 1.1 2 2.2 4 3.3 6.1 0.6 1.1 1 2.4 1.5 3.6-0.4 0.4-0.8 0.8-1.2 1.3-0.3 0.5-0.9 0.7-1.4 0.4-0.1-1-0.5-2-1.1-2.9-1-1.4-2-2.8-2.9-4.3-1.6-2.7-3.1-5.6-4.7-8.3l-3.2-5.6c-0.8-1.4-1.7-2.7-2.3-4.2-0.9-1.8-2.1-3.5-3.6-4.9-1.2-1.1-2.4-2.2-3.8-3.1-0.4-0.3-0.7-0.7-1.3-0.6-0.4-1.2-0.7-2.5-0.9-3.8-0.1-1.2-0.7-2.4-0.1-3.7 0.4-0.8 0.6-1.6 0.7-2.5 0.2-1.3 0.7-2.5 1.3-3.6 0.7-1.5 1.8-2.9 2.4-4.5 0.2-0.5 0.5-0.9 0.9-1.2 0.6-0.6 1.3-1.1 1.9-1.7 1.1-1.3 2.4-2.5 3.7-3.5 0.1-0.1 0.2-0.4 0.2-0.6 0.4-0.1 0.8-0.3 1.1-0.4 1.5-0.9 2.9-1.9 4.2-3.1l5.1 2.6c0.1 0.5-0.1 1-0.4 1.4-1 1.2-2 2.5-2.9 3.8-1.1 1.6-2 3.3-3 4.9-1.5 2.6-2.7 5.3-3.4 8.2 0 0.1-0.1 0.2-0.1 0.4-0.1 2.8-0.9 5.6-0.3 8.4 0.3 1.3 0.5 2.7 0.9 4 0.2 0.5 0.5 1.1 0.9 1.5 0.4 0.6 0.9 1.2 1.3 1.8 0.4 0.5 0.7 1 1.2 1.5 0.2 0.2 0.6 0.3 0.9 0.4 0.3 1.1 0.7 2.3 1 3.4 0.9 2 2.1 4.3 3.8 6.5z"/>
<path class="st6" d="m125.9 85.9c-0.3-0.1-0.7-0.2-0.9-0.4l-1.2-1.5c-0.4-0.6-0.9-1.2-1.3-1.8-0.4-0.4-0.7-1-0.9-1.5-0.4-1.3-0.6-2.7-0.9-4-0.7-2.8 0.2-5.6 0.3-8.4 0-0.1 0-0.2 0.1-0.4 0.7-2.9 1.9-5.6 3.4-8.2 1-1.6 2-3.3 3-4.9 0.9-1.3 1.9-2.6 2.9-3.8 0.3-0.4 0.5-0.9 0.4-1.4l1.3 0.3c0.5 0.1 1 0.2 1.4 0.2 0.5-0.1 1 0.2 1.2 0.7 0.7 1.3 1.4 2.6 2.2 3.9-3.1 0.1-5.2 1.8-6.9 4.1-2.1 2.9-3.6 6.2-4.2 9.7-1.1 5.4-1.1 11-0.1 16.4 0.1 0.3 0.2 0.7 0.2 1z"/>
<path class="st3" d="m143.7 74.8 1.1 1.6c0.2 0.3 0.5 0.7 0.3 1.1l-0.5 0.7c-2.3 3-4.9 5.8-7.7 8.4l-0.7 0.6h-0.1v-20.5c0.4 0.3 0.7 0.6 1 0.9l5.7 6.3 0.9 0.9z"/>
<path class="st15" d="m144.6 78.3 0.5-0.7c0 1.1 0.1 2.2 0.3 3.3 0.1 1 0.1 1.9 0 2.9 0 0.6 0 1.2-0.1 1.7-0.1 0.4-0.1 0.8-0.3 1.2-0.1-0.3-0.2-0.6-0.2-0.9v-2.6c0-1.7-0.1-3.3-0.2-4.9z"/>
<path class="st14" d="m110.4 75.8c0.6-0.1 0.9 0.3 1.3 0.6 1.3 1 2.6 2 3.8 3.1 1.5 1.4 2.7 3.1 3.6 4.9 0.7 1.4 1.6 2.8 2.3 4.2l3.2 5.6c1.6 2.8 3.1 5.6 4.7 8.3 0.9 1.5 1.9 2.9 2.9 4.3 0.6 0.9 1 1.9 1.1 2.9l-2.5-0.3c-0.4-3.5-2.2-6.4-4-9.3-1-1.5-2-3-3.2-4.4-0.7-1-1.5-1.9-2.3-2.7-2.1-1.8-4.3-3.5-6.5-5.1-1.6-1.2-3.3-2.3-5.1-3.3-1.1-0.8-2.3-1.3-3.6-1.6 0.1-1.2 0.2-2.5 0.4-3.7 0.1-1 0.2-1.9 0.4-2.8 1.1-0.1 2.2-0.9 3.5-0.7z"/>
<path class="st23" d="m118.8 117.6c-0.8 0.1-1.4 0.4-1.9 1-0.7 0.7-1.4 1.3-2.2 1.9-2.5 1.8-5.4 2.9-8.4 3.5-0.8 0.2-1.7-0.3-1.9-1.2v-0.2c-0.5-2.7 0-5.6 1.4-8 0.3-0.5 0.6-1 0.9-1.5 0.6-1 1.3-2.1 1.9-3.1 0.7-1.2 1.9-2 3.2-2.2 0.3 0 0.7 0 1 0.2l3.3 0.8c-0.5 1.2-0.7 2.5-0.8 3.8-0.1 1.8 1.2 3.3 3 3.6 0.7 0.1 0.8 0.2 0.5 1.4z"/>
<path class="st21" d="m120.5 104.4c-1.9-2.3-4.4-4.1-7.1-5.3-1.3-0.6-2.5-1.3-3.7-1.8-1.4-0.7-2.9-1.3-4.4-1.9-0.4-0.1-0.8-0.1-1.1-0.1-0.4 0-0.8-0.2-1.2-0.3 0.5-1.5 1-3 1.5-4.6 1 0.1 2.1 0.2 3.1 0.4 1.8 0.2 3.5 0.8 5.1 1.6 1.8 1.1 3.8 1.9 5.8 2.9 0.5 0.4 1 0.8 1.4 1.2 0.3 0.3 0.6 0.5 0.8 0.8 0.9 0.6 1.7 1.2 2.5 1.9 0.7 0.7 1.2 1.5 1.8 2.2 1.2 1.3 2.1 2.9 2.7 4.6 0.5 1 0.7 2.1 0.7 3.2l-2.3-0.2c-0.1-0.6-0.2-1.2-0.3-1.7-0.3-2.7-2.5-3.3-4.3-3.1-0.3 0.1-0.6 0.1-1 0.2z"/>
<path class="st22" d="m128.4 109.2c0.1-1.1-0.2-2.2-0.7-3.2-0.6-1.7-1.5-3.2-2.7-4.6-0.7-0.7-1.2-1.6-1.8-2.2-0.8-0.7-1.6-1.3-2.5-1.9-0.3-0.2-0.6-0.5-0.8-0.8-0.4-0.5-0.9-0.9-1.4-1.2-1.9-1-3.9-1.8-5.8-2.9-1.6-0.8-3.3-1.3-5.1-1.6-1-0.2-2.1-0.3-3.1-0.4 0.2-0.8 0.3-1.5 0.5-2.3 0.3-1.7 0.7-3.4 1-5 1.3 0.2 2.5 0.8 3.6 1.6 1.8 1 3.4 2.1 5.1 3.3 2.2 1.6 4.4 3.4 6.5 5.2 0.9 0.8 1.6 1.7 2.3 2.7 1.1 1.4 2.2 2.9 3.2 4.4 1.8 2.9 3.5 5.8 4 9.3l-2.3-0.4z"/>
<path class="st21" d="m126.1 113.1h0.5l1.3 0.2 4.3 0.3c0.3 0.5 0.2 1.2-0.2 1.7-2.3 3.1-4.9 5.9-7.7 8.6l-2.5-0.2-0.2-0.2 0.2-0.8c1.1 0 1.6-0.8 2-1.5 1.5-2.5 2.3-5.3 2.3-8.1z"/>
<path class="st20" d="m126.1 113.1c0.1 2.9-0.7 5.7-2.3 8.1-0.5 0.7-1 1.6-2 1.5 0.1-1.4 0.2-2.8 0.3-4.3 0.1-0.8 0.2-1.7 0.2-2.5 0-0.6 0.2-1.3 0.8-1.6 0.2-0.1 0.4-0.3 0.5-0.5 0.4-0.8 1.4-1.2 2.2-0.8 0.1 0 0.2 0 0.3 0.1z"/>
<path class="st12" d="m137.2 113.8c-0.4 0.5-0.9 1-1.3 1.5-0.5 0.7-1.3 1.1-2.2 1.1 0.6-1 1.2-1.9 1.8-2.9 1-1.7 1.9-3.4 2.9-5.1 0.5 0.5 0.6 1.2 0.3 1.9-0.5 1.1-1 2.3-1.5 3.5z"/>
<path class="st20" d="m127.9 113.3-1.3-0.2 1.3 0.2z"/>
<path class="st18" d="m136.7 107.7c0.3-0.3 0.7-0.3 1 0h-1z"/>
<path class="st8" d="m136.3 107.9 0.3-0.2-0.3 0.2z"/>
<path class="st20" d="m121.6 123.5 0.2 0.2-0.2-0.2z"/>
<path class="st22" d="m113.4 25.5v1c-0.1 0.2-0.2 0.5-0.2 0.7-0.1 1.2 0 2.3 0.4 3.4 0.5 1.7 1.1 3.2 2 4.7 0.1 0.3 0.2 0.5 0.3 0.8 0.7 1.1 1.3 2.2 2 3.2-0.3 0-0.6-0.1-0.8-0.2-0.7-0.5-1.3-1.1-2-1.7-1.2-1-2.3-2.1-3.6-3.2-0.6-0.5-1.3-0.8-1.9-1.2-1.6-1.4-3.3-2.6-5.2-3.5-0.4-0.2-0.9-0.5-1.3-0.8-1-0.6-2-1.3-3-1.9-0.2-0.1-0.4-0.1-0.6-0.1-0.8-0.2-1.6-0.3-2.4-0.6-0.3-0.1-0.4-0.4-0.7-0.7l5.7 1.1 1.6 0.3c0-3.1-1-10.7-1.4-11.4h-1.3c-4.4 0-8.7 0.4-13 1.1-2.8 0.4-5.5 1.2-8.1 2.4-1.3 0.7-2.9 0.7-4.2 0-7.2-2.8-14.8-3.7-22.4-3.6-0.2 0-0.4 0.1-0.6 0.1v1.4c-0.1 0.6-0.2 1.2-0.3 1.9-0.2 2.2-0.4 4.3-0.6 6.5-0.7 0.2-1.3 0.5-2 0.8-2.3 1.6-4.7 3.4-7 5.1-0.5 0.3-1 0.5-1.5 0.7 0.1-0.5 0.2-0.9 0.3-1.4 0.6-1.8 0.6-3.7 0.1-5.5 0.3-0.1 0.8-0.1 1-0.3 1.4-1.4 2.7-2.8 3.8-4.3 1.6-2 3.5-3.8 5.7-5.1 1.2-0.9 2.6-1.4 3.9-2.2 0.3-0.1 0.4-0.5 0.6-0.7 3.2 0 6.3 0.3 9.4 0.9 3.7 0.7 7.4 1.7 10.9 3.1 0.5 0.2 1.1 0.2 1.6 0 3.9-1.7 8.1-2.8 12.3-3.2 2.4-0.3 4.8-0.5 7.2-0.7 0.6-0.1 1.2 0 1.8 0-0.3 0.6-0.1 0.8 0.5 1 2.2 0.9 4.3 1.8 6.5 2.7 0.9 0.4 1.8 1 2.7 1.3 1.6 0.6 2.8 1.8 4.2 2.7 0.2 0.1 0.2 0.4 0.3 0.6h-1.8c-1 0-1.2 0.3-0.8 1.1 0.6 1.3 1.3 2.5 1.9 3.7z"/>
<path class="st14" d="m56.8 12.3c-0.2 0.3-0.3 0.6-0.6 0.7-1.3 0.8-2.7 1.3-3.9 2.2-2.2 1.4-4.1 3.1-5.7 5.1-1.2 1.5-2.5 3-3.8 4.3-0.2 0.2-0.7 0.2-1 0.3-0.4-0.9-1.1-1.6-2.1-2l-0.4-0.2h-0.1v-0.1c1.4-1.9 2.8-3.7 4.4-5.5 1.5-1.4 3.2-2.7 5-3.8 1.5-0.8 3-1.5 4.6-2.1v0.8c0.1 0.1 0.2 0.2 0.3 0.2h2.6l0.7 0.1z"/>
<path class="st8" d="m114.2 20.7c-0.1-0.2-0.2-0.5-0.3-0.6-1.4-0.9-2.6-2.1-4.2-2.7-0.9-0.3-1.8-0.9-2.7-1.3-2.2-0.9-4.3-1.8-6.5-2.7-0.5-0.2-0.8-0.4-0.5-1l2.5-0.1c0.4 0.2 0.8 0.3 1.2 0.5 0.7 0.3 1.3 0.6 2 0.9s1.3 0.6 2 1c1.8 1 3.7 1.9 5.5 3 1 0.6 1.9 1.2 2.9 1.8 0.3 0.3 0.6 0.6 0.8 1-1 0.5-1.9 0.1-2.7 0.2z"/>
<path class="st22" d="m56.1 12.3h-2.6c-0.1 0-0.2-0.1-0.3-0.2l2.9 0.2z"/>
<path class="st22" d="m38.8 129.3c-0.9-0.1-1.4-0.8-2-1.4-0.4-0.4-0.7-1-1.4-0.9-0.1-1.7-0.5-3.5-1.2-5.1-0.3-0.8-0.6-1.6-1-2.4-2-4-4.9-7.4-8.7-9.9-1.9-1.2-3.9-2-6.1-2.4-0.1-0.3 0-0.7-0.2-1-0.9-1.2-1.3-2.7-2.3-3.9-0.7-1.1-1.3-2.3-1.8-3.6-1.3-2.7-2.4-5.7-3.2-8.7l7.1 0.2c0.3 2.3 1 4.5 2.1 6.5 0.5 1 1.3 1.9 1.2 3.1-1.4-0.1-2.8-0.6-4.3-0.4-0.1 1.4 0 2.8 0.3 4.1 0.6 0 1.3 0.1 1.9 0.3 1.8 0.5 3.5 1.1 5.3 1.7 2.6 1.5 4.9 3.3 6.9 5.5 1.1 1.2 2 2.5 3 3.7 0.1 0.3 0.3 0.5 0.4 0.8 1.9 2.9 3.2 6.2 3.8 9.6 0.4 1.4 0.5 2.8 0.2 4.2z"/>
<path class="st24" d="m25.9 91.5-0.7-0.6-0.2-0.2c0-0.1 0-0.1-0.1-0.1l-0.1-0.1-2-0.3c-0.1-4.2-1.3-8.4-3.4-12-0.7-1.2-1.3-2.5-1.8-3.8-1.1-3.3-2.2-6.6-3.2-9.8-0.5-1.6-0.9-3.2-1.3-4.9l2.3-0.2h0.6c0.6 2.2 1.1 4.4 1.9 6.5 0.9 2.8 2.2 5.4 3.6 7.9 2 3.3 2.8 6.9 3.6 10.6 0.4 1.9 0.7 3.9 1 5.8 0 0.4-0.1 0.8-0.2 1.2z"/>
<path class="st22" d="m16 59.5h-0.5l-2.3 0.2-1-0.1c0.7-1.8 1.7-3.6 2.8-5.1 1.1-1.7 2.3-3.3 3.4-5 0.1-0.1 0.1-0.3 0.1-0.5h0.2c1.2 0.8 2.7 1.1 4.1 0.8 0.7-0.1 1.5-0.3 2.2-0.5 0.5 0.4 0 0.8-0.1 1.1-1.3 2.4-2.4 4.9-3.4 7.5-0.1 0.7-0.6 1.2-1.3 1.3v0.1l-4.2 0.2z"/>
<path class="st19" d="m25 90.7 0.2 0.2c-0.6 0.5-0.9 1.2-0.8 2 0 1.6 0.2 3.3 0.6 4.8 0.4 1 0.9 2 1.5 2.9 0.3 0.5 0.8 1 0.6 1.7l-1.8-1-1.2-0.6c-0.9-0.3-1.9-0.6-2.8-1 0-1.2-0.8-2.1-1.2-3.1-1.1-2-1.8-4.2-2.1-6.4h1.5c0.4 0.1 0.8 0.2 1.2 0.2h4l0.1 0.1c0 0.1 0.1 0.2 0.2 0.2z"/>
<path class="st14" d="m10.9 90c0.7 3.1 1.8 6 3.3 8.8 0.5 1.2 1.1 2.4 1.8 3.6 0.9 1.2 1.4 2.7 2.3 3.9 0.2 0.2 0.1 0.6 0.2 1l-0.8 0.1 0.3 2.1c-0.3-0.2-0.7-0.3-0.9-0.6-1.8-2.9-3.5-5.8-5-8.9-0.9-2-1.7-4-2.5-6.1-0.5-1.3-0.7-2.6-0.6-4l1.9 0.1z"/>
<path class="st22" d="m24.8 90.5h-4c-0.4 0-0.8-0.1-1.2-0.2l3.3-0.1 1.9 0.3z"/>
<path class="st14" d="m9.1 89.9-1.2-0.2 1.2 0.2z"/>
<path class="st22" d="m18.8 90.2h-0.2 0.2z"/>
<path class="st13" d="m25.1 49.3c-0.7 0.2-1.5 0.4-2.2 0.5-1.4 0.3-2.9 0-4.1-0.8 0.3-1.7 1.1-3.3 2.3-4.6 1 0.9 2.4 1.1 3.5 0.5 1.2-0.5 2.4-1.1 3.5-1.8 3.5-2.5 6.3-5.8 8.3-9.6 0.6-1.1 1-2.3 1.3-3.5 0.3-0.9 0.2-2-0.4-2.8l-1.3-1c0-0.3-0.1-0.6 0-0.8l3-2.7h0.3 0.1l0.4 0.2c0.9 0.4 1.6 1.1 2.1 2 0.5 1.8 0.5 3.7-0.1 5.5-0.1 0.5-0.2 0.9-0.3 1.4-0.6 1.4-1.3 2.8-1.9 4.3l0.8 0.3 3 1.2 1.7 0.8 6.7 3.5-2.8 4.4-8.4-3.8-1.2-0.5-1.8-0.7-1.1-0.5-5.1 4.8c-1.9 1.5-4.1 2.7-6.3 3.7z"/>
<path class="st25" d="m37.3 27.3c0.6 0.8 0.7 1.8 0.4 2.8-0.3 1.2-0.7 2.4-1.3 3.5-2 3.8-4.8 7.1-8.3 9.6-1.1 0.7-2.2 1.3-3.4 1.8-1.2 0.6-2.6 0.3-3.5-0.5 0-0.1-0.1-0.3-0.1-0.4 0.3-0.2 0.7-0.4 1-0.7s0.6-0.6 0.8-1c1.1-1.2 2.1-2.5 3.2-3.7 1.5-1.6 3-3.2 4.5-4.8 0.9-0.9 2-1.8 2.9-2.7s1.5-1.9 2.3-2.8c0.5-0.4 0.9-0.8 1.5-1.1z"/>
<path class="st8" d="m37.3 27.3c-0.5 0.3-1 0.7-1.5 1.1-0.8 0.9-1.5 1.9-2.3 2.8s-2 1.8-2.9 2.8c-1.5 1.6-3 3.2-4.5 4.8-1.1 1.2-2.1 2.5-3.2 3.7-0.2 0.4-0.5 0.7-0.8 1-0.3 0.2-0.7 0.5-1 0.7-0.6-0.9-0.7-2-0.3-3 0.4-1.4 1-2.7 1.8-4 1.9-3.2 4.3-6 7.2-8.3 1-0.8 2.1-1.4 3.2-2 0.9-0.6 2-0.8 3.1-0.6l1.2 1z"/>
<path class="st24" d="m18.1 109.5-0.3-2.1 0.8-0.1c2.2 0.4 4.2 1.2 6.1 2.4 3.7 2.5 6.7 5.9 8.7 9.9 0.4 0.8 0.7 1.6 1 2.4-0.3 0.2-0.5 0.5-0.7 0.8-0.5 0.9-1 1.9-1.6 2.8-0.1 0.2-0.5 0.3-0.8 0.4l-0.4-1c0-0.3-0.1-0.7-0.2-1-1.3-3.7-3.5-7-6.5-9.5-1.1-1-2.3-1.8-3.7-2.3l-0.3-0.2-1.5-0.6-0.6-1.9z"/>
<path class="st14" d="m20.4 112.2c1.4 0.5 2.7 1.3 3.7 2.3 3 2.5 5.2 5.8 6.5 9.5 0.1 0.3 0.1 0.7 0.2 1-1-0.1-1.6-1-2.2-1.7-0.2-0.3-0.4-0.5-0.6-0.7-0.1 0-0.3 0.1-0.5 0.2-0.5-0.9-0.9-1.8-1.4-2.6-0.9-1.6-2.3-3-3.9-4 0.1-0.5-0.2-0.8-0.5-1.2-0.7-0.9-1.4-1.6-1.3-2.8z"/>
<path class="st14" d="m20.1 112.1 0.3 0.2-0.3-0.2z"/>
<path class="st10" d="m118.2 31.9c-0.2-1-0.4-2-0.4-3-0.1-1.4 0.9-2.6 2.2-2.7h0.7c0.7 0.1 1.4 0.3 2 0.6 1.4 0.8 2.7 1.8 4 2.8 1.9 1.6 3.6 3.4 5 5.3 1.5 1.8 2.6 4 3.2 6.3 0.1 0.5 0.2 1.1 0.1 1.6-0.1 1.2-1 2.3-2.2 2.4l-2-0.3c0-0.2-0.1-0.4-0.2-0.6-1.5-1.7-3-3.4-4.5-5-1.8-1.8-3.7-3.6-5.6-5.3-0.4-0.3-0.9-0.5-1.4-0.7l-0.9-1.4z"/>
<path class="st5" d="m130.6 45 2 0.3-1.3 0.4c0.4 0.6 0.8 1.1 1.2 1.6 0.5 0.8 0.9 1.7 1.4 2.5h-1.8l-1.3-0.3-5.1-2.6c-1.4-1.2-2.8-2.4-4.3-3.5l-3.5-4.1c-0.7-1.1-1.4-2.2-2-3.2-0.1-0.3-0.3-0.5-0.3-0.8 1.3-0.1 2.4-0.7 3.3-1.6 0.2 0.2 0.3 0.5 0.5 0.7 1.7 2.9 3.9 5.5 6.4 7.6 1.5 1.5 3.1 2.5 4.8 3z"/>
<path class="st24" d="m119 33.9c-0.9 0.9-2.1 1.4-3.3 1.6-0.9-1.5-1.5-3.1-2-4.7-0.4-1.1-0.5-2.3-0.4-3.4 0-0.2 0.1-0.5 0.2-0.7 0.8 0.4 0.9 1.2 1.2 1.9 0.6 1.7 1.9 2.9 3.6 3.5 0.3 0.5 0.5 1 0.8 1.5-0.1 0-0.1 0.1-0.1 0.3z"/>
<path class="st11" d="m106.1 83.1c-0.3 1.7-0.7 3.4-1 5-0.2 0.8-0.3 1.5-0.5 2.3-0.5 1.6-1 3.1-1.6 4.6-0.7 1.3-1.3 2.5-2 3.8-2 3.7-5.3 6.5-9.2 8.1-0.2 0.1-0.4 0.2-0.5 0.3-2.3 0.7-4.7 1.1-7.1 1.1-1.4 0-2.9 0-4.3-0.1-3.1-0.4-6.1-1.3-8.8-2.9l-1-0.5c-1.2-0.9-2.4-1.8-3.6-2.8-2.7-2.5-5.1-5.3-7.2-8.3-1.8-2.5-3.6-4.9-5.3-7.4-0.8-1.2-1.4-2.5-2.1-3.8-0.3-1.6-0.5-3.3 0.5-4.8 0.9-0.3 1.5 0.3 2 0.8 3 3 5.9 5.9 8.8 8.9 0.4 0.4 0.7 0.8 1.2 1.2 0.5-1.5 0.1-3.2-0.9-4.3-1.2-1.4-2.5-2.8-3.7-4.1 0.7-0.1 1.4-0.2 2.1-0.3 0.5 0 1 0 1.5-0.1 0.8 0 1.7 0 2.5-0.1 1.1-0.1 2.3 0.1 3.2-0.7l1 0.8 0.3-0.7c1.1 0.2 2-0.4 3-0.7 1.6-0.3 3-1.1 4-2.3 1-1.1 1.9-2.2 2.8-3.4 1.7-2.5 3.2-5.2 4.4-7.9 0.1-0.3 0.1-0.6 0.2-0.9l2 1.6 5.8 5.3c0.4 0.4 1.1 0.5 1.6 0.2 0.6-0.3 1.2-0.7 1.7-1.1 0.9-0.9 1.8-1.9 2.6-3s1.3-2.3 2-3.5c0.6-1 1.2-2 1.9-3 1.5-1.9 4.1-2.6 6.4-1.6v0.5c-0.5 3.5-1 7-1.4 10.5-0.3 2.1-0.4 4.3-0.6 6.4-0.1 1-0.3 1.9-0.4 2.8-0.1 1.6-0.2 2.9-0.3 4.1z"/>
<path class="st19" d="m59.8 80.3c1.3 1.4 2.5 2.7 3.7 4.1 1.1 1.2 1.4 2.8 0.9 4.3l-1.2-1.2c-2.9-3-5.9-5.9-8.8-8.9-0.5-0.5-1.1-1.1-2-0.8-1 1.5-0.8 3.1-0.5 4.8-2.5 0.1-5 0-7.4 0.3-2.6 0.1-5.1 0.8-7.4 1.9-0.2 0.1-0.5 0.2-0.7 0.3l-5 0.5-0.3-2v-1.5l-0.1-4 2.9 0.2h1c1.4-0.2 2.7-0.4 4.1-0.5 1.5-0.2 3.1-0.4 4.6-0.5 2.2 0 4.4 0 6.7-0.2 1.7-0.3 3.5-0.4 5.2-0.5h0.1l0.2 0.2 0.4 0.3 2.3 2.2 1.3 1z"/>
<path class="st13" d="m31.2 83.6 0.3 2c0.2 1.9 0.3 3.8 0.6 5.8 0.3 2.3 0.7 4.5 1.1 6.7v0.9c-1.3-1.2-2.6-2.4-3.8-3.8 0-0.6 0-1.3-0.1-1.9-0.3-1.5-0.5-3.1-0.9-4.6-0.5-2.7-1-5.4-1.6-8.1-0.5-1.8-1-3.6-1.7-5.4-0.6-1.6-1.3-3.2-2-4.8-0.6-1.3-1.5-2.5-2.1-3.8-0.8-1.7-1.5-3.4-2.1-5.1-0.2-0.6-0.6-1.3-0.3-2l1.6-0.4v-0.1l0.8 0.1c0 0.6 0.1 1.2 0.3 1.8 0.7 1.4 1.5 2.8 2.3 4.2 0.9 1.6 1.9 3.2 2.6 4.9 1.5 3.4 2.6 6.9 3.4 10.5 0.1 0.7 0.4 1.5 0.6 2.2 0 0.4 0.4 0.8 0.8 0.8 0.1 0.1 0.1 0.1 0.2 0.1z"/>
<path class="st15" d="m20.3 59.3-1.6 0.4c-0.3 0.7 0.1 1.3 0.3 2 0.6 1.7 1.3 3.5 2.1 5.1 0.6 1.3 1.5 2.5 2.1 3.8 0.7 1.6 1.4 3.1 2 4.8 0.7 1.8 1.2 3.6 1.7 5.4 0.6 2.7 1.1 5.4 1.6 8.1 0.3 1.5 0.6 3.1 0.9 4.6 0.1 0.6 0.1 1.3 0.1 1.9-0.6-0.5-1.3-1-1.9-1.6-0.6-0.7-1.1-1.4-1.7-2.2 0.1-0.4 0.2-0.8 0.2-1.2-0.3-2-0.6-3.9-1-5.8-0.8-3.7-1.6-7.3-3.6-10.6-1.5-2.5-2.7-5.2-3.7-8-0.7-2.1-1.3-4.3-1.9-6.5l4.4-0.2z"/>
<path class="st5" d="m38.8 129.3c0.3-1.4 0.2-2.8-0.2-4.2-0.6-3.4-1.9-6.7-3.8-9.6-0.2-0.2-0.3-0.5-0.4-0.8 0.5-0.6 0.8-1.4 0.8-2.1 0-0.9 0.3-1.7 0.9-2.3 0.9 1.1 1.8 2.3 2.6 3.5 1.1 1.9 1.9 3.9 2.9 5.9 1.2 3.2 1.7 6.7 1.5 10.1 0 0.8-0.2 1.5-0.3 2.2l-4-1v-1.7z"/>
<path class="st12" d="m36.2 110.2c-0.6 0.6-0.9 1.5-0.9 2.3s-0.3 1.5-0.8 2.1c-1-1.2-2-2.5-3-3.7-2-2.2-4.3-4-6.9-5.5 0-0.5 0.1-1 0.1-1.4v-2s0.3-0.7 0.8-0.7l1.8 1c0.1 0 0.2 0.1 0.2 0.1l0.5 0.2 0.5 0.4c0.8 0.5 1.6 1 2.4 1.6 2 1.6 3.8 3.5 5.3 5.6z"/>
<path class="st19" d="m28.4 103.1-0.5-0.4 0.5 0.4z"/>
<path class="st19" d="m27.9 102.6-0.5-0.2 0.5 0.2z"/>
<path class="st5" d="m76.6 132.2c0.7 0 1.3 0 2 0.1 1.8 0.1 3.5 0.9 4.9 2.1 1.2 1.1 1.9 2.7 1.7 4.3-1.6 3.8-5.7 5.7-10 4.4-1.6-0.4-3.1-1.4-4.2-2.7s-1.2-3.1-0.3-4.5c1.2-1.9 3.1-3.2 5.3-3.6 0.2 0 0.4 0 0.6-0.1z"/>
<path class="st5" d="m31.1 126c0.3-0.1 0.7-0.2 0.8-0.4 0.6-0.9 1.1-1.9 1.6-2.8 0.2-0.3 0.4-0.6 0.7-0.8 0.7 1.6 1.1 3.3 1.2 5.1l-0.2 2.8-4-1.4-0.1-2.5z"/>
<path class="st7" d="m106.8 76.5c0.2-2.1 0.4-4.3 0.6-6.4 0.4-3.5 0.9-7 1.4-10.5v-0.5c-2.2-1-4.9-0.4-6.4 1.6-0.7 1-1.4 2-1.9 3-0.7 1.2-1.3 2.4-2 3.5-0.8 1.1-1.6 2.1-2.6 3-0.5 0.4-1.1 0.8-1.7 1.1-0.5 0.3-1.2 0.2-1.6-0.2l-5.8-5.3c0-0.6 0-1.3 0.1-1.9 0.3-1.2 0.8-2.3 1.1-3.5 0.4-1.8 0.7-3.5 1.1-5.3 0-0.2 0-0.4-0.1-0.6-0.2-0.6-0.2-1.2 0.1-1.7 0.5-1.2 0.7-2.5 0.7-3.8-0.1-1.4 0.3-2.8 1-4 0.1-0.1 0-0.2 0.1-0.2 0.2-0.3 0.5-0.7 0.8-0.9 1.8-1 3.6-2 5.7-1.3h0.4c0.7-0.2 1.4-0.2 2.1 0 1.9 0.3 3.7 1.2 5.1 2.6-0.1 0.2-0.2 0.3-0.2 0.5-0.5 1.3 0.1 2.7 1.3 3.3s2.2 0.3 3-1.1c0.4 0.4 0.7 1 1.2 1.1 1 0.4 2.1 0.8 3.1 1 2.2 0.1 4.3 0.4 6.4 0.8h0.8c-0.1 0.2-0.1 0.5-0.2 0.6-1.4 1.1-2.6 2.2-3.7 3.5-0.6 0.6-1.3 1.1-1.9 1.7-0.4 0.3-0.7 0.7-0.9 1.2-0.6 1.7-1.7 3-2.4 4.5-0.6 1.1-1.1 2.3-1.3 3.6-0.1 0.9-0.4 1.7-0.7 2.5-0.5 1.3 0 2.5 0.1 3.7 0.2 1.3 0.5 2.5 0.9 3.8-1.4-0.3-2.5 0.5-3.7 0.6z"/>
<path class="st25" d="m120.5 50.6h-0.8c-2.1-0.5-4.3-0.7-6.4-0.8-1.1-0.2-2.1-0.6-3.1-1-0.5-0.1-0.8-0.7-1.2-1.1 0.2-1.2-0.4-2.3-1.4-2.9-0.9-0.5-2-0.4-2.7 0.3-1.4-1.4-3.2-2.3-5.1-2.6-0.7-0.2-1.4-0.2-2.1 0h-0.4c-2.2-0.7-4 0.3-5.7 1.3-0.3 0.3-0.6 0.6-0.8 0.9 0 0.1 0 0.2-0.1 0.2-0.7 1.2-1.1 2.6-1 4 0 1.3-0.2 2.6-0.7 3.8-0.3 0.5-0.3 1.1-0.1 1.7 0.1 0.2 0.1 0.4 0 0.6-0.3 1.8-0.6 3.5-1.1 5.3-0.3 1.2-0.8 2.3-1.1 3.5-0.1 0.6-0.1 1.3-0.1 1.9l-2-1.6-1.3-1.5c0.3-1.5 0.6-3 0.7-4.6 0.1-2 0.3-4 0.5-6v-2.4c0-0.4 0.1-0.8 0.1-1.1 0.1-1.4 0.2-2.8 0.2-4.3 0.1-1.2 0.1-2.3 0.3-3.5 0.2-0.7 0.4-1.4 0.7-2 0.2-0.3 0.4-0.5 0.7-0.7 1.3-0.8 2.6-1.8 3.7-2.8 1.4-1.4 3-1.2 4.5-1 2.1 0.3 4.1 0.7 6.2 0.9 0.5 0 1 0.1 1.4 0.4 1.1 0.7 2.2 1.5 3.3 2.2s2.1 1.3 3.2 1.9c0.1 0.1 0.3 0 0.4 0-1 2.8 0.5 5.9 3.4 6.8h0.1c1.6 0.8 3.5 0.1 4.2-1.5 0.1-0.1 0.1-0.2 0.1-0.3 0.3 0 0.6 0 0.9-0.1 1.2-0.4 2.3-0.8 3.4-1.2 1.4 1.2 2.8 2.4 4.3 3.5-1.3 1.2-2.7 2.3-4.2 3.1-0.1 0.5-0.5 0.6-0.9 0.7z"/>
<path class="st19" d="m109.6 39.7h-0.4c-1.1-0.6-2.2-1.2-3.2-1.9s-2.2-1.5-3.3-2.2c-0.4-0.2-0.9-0.4-1.4-0.4-2.1-0.2-4.1-0.6-6.2-0.9-1.5-0.2-3.2-0.4-4.5 1-1.2 1-2.4 2-3.7 2.8-0.3 0.2-0.5 0.4-0.7 0.7-0.3 0.6-0.6 1.3-0.7 2-0.2 1.2-0.2 2.3-0.3 3.5-0.1 1.4-0.2 2.8-0.2 4.3 0 0.4-0.1 0.7-0.1 1.1v2.4c-0.3 2-0.4 4-0.5 6-0.2 1.5-0.4 3.1-0.7 4.6l-1-0.8-0.3-0.3-0.4-0.2h-0.1l-0.5-0.5-0.8-0.7-0.3-0.5c0.3-1.4 0.5-2.8 0.8-4.2 0.4-1.3 0.5-2.7 0.3-4 0-0.2 0.1-0.3 0.1-0.5 0-1.3 0-2.7-0.1-4 0-0.7-0.3-1.4-0.2-2.1 0.1-1.8 0.2-3.5 0.5-5.3 0.3-1.7 0.5-3.4 0.5-5.1 0-0.3 0.2-0.6 0.3-0.8 0.8-1.3 1.7-2.6 2.4-4 0.3-0.6 0.6-1.2 0.7-1.9 0-0.5 0.4-0.9 0.9-1 1-0.3 1.9-0.8 2.9-1.1 0.6-0.2 1.3-0.4 1.9-0.6 0.7-0.2 1.5-0.2 2.2-0.3l0.7 0.1 0.8 0.2 0.5 0.1 0.8 0.2h0.2c0.2 0.2 0.4 0.6 0.7 0.7 0.8 0.3 1.6 0.4 2.4 0.6 0.2 0 0.4 0 0.6 0.1 1 0.6 2 1.2 3 1.9 0.4 0.3 0.8 0.6 1.3 0.8 1.9 0.9 3.6 2.1 5.2 3.5 0.6 0.5 1.3 0.7 1.9 1.2 1.2 1 2.4 2.1 3.6 3.2 0.7 0.6 1.3 1.2 2 1.7 0.3 0.1 0.5 0.2 0.8 0.2l3.5 4.1c-1.1 0.4-2.3 0.8-3.4 1.2-0.3 0.1-0.6 0.1-0.9 0.1 0.3-2.3-0.9-4.6-3-5.7-1.8-0.8-3.7-0.7-4.6 0.7z"/>
<path class="st20" d="m40.3 36.5-0.8-0.3c0.7-1.5 1.3-2.9 1.9-4.3 0.5-0.2 1.1-0.4 1.6-0.7 2.3-1.7 4.6-3.4 7-5.1 0.6-0.3 1.3-0.6 2-0.8v1.7c2.4-0.5 4.8-1.1 7.1-1.6s4.5-0.8 6.7-1.1c0.1 0.8 0.9 0.8 1.3 1.2 2.3 1.9 4 4.5 4.7 7.4 0.4 2 0.7 4 1.3 6 0.3 0.9 0.4 1.8 0.5 2.7 0.2 3.7 0 7.5-0.5 11.2l-4.6-4.3c0-0.5 0-1 0.1-1.5 0.2-1 0.2-2.1 0-3.1-0.3-1.4-0.3-2.9-0.6-4.4-0.2-1.5-0.5-2.9-1-4.3-0.8-2.2-2.1-4.2-3.8-5.9-1.4-1.3-3.3-2-5.2-1.8-1.6 0.1-3.2 0.4-4.8 1-1.9 0.7-3.7 1.6-5.5 2.5-1.7 0.9-3.3 2-4.7 3.4-0.8 0.8-1.7 1.5-2.7 2.1z"/>
<path class="st24" d="m94.4 25.1-0.7-0.1c-0.2-0.1-0.5-0.2-0.7-0.2-1.5-0.3-3-0.5-4.4-0.8 0-0.9-0.7-1.1-1.4-1.4-0.5-0.2-0.9-0.4-1.3-0.7-1.1-0.8-2.3-1.5-3.6-1.9-0.8-0.3-1.5-0.6-2.3-1 2.6-1.1 5.3-1.9 8.1-2.3 4.3-0.7 8.6-1.1 13-1.1h1.5c0.4 0.7 1.3 8.4 1.4 11.4l-1.6-0.3-5.7-1.1h-0.2l-0.8-0.2-0.5-0.1-0.8-0.2z"/>
<path class="st13" d="m65.7 24.3c-2.2 0.4-4.5 0.7-6.7 1.1s-4.7 1-7.1 1.6v-1.7c0.2-2.2 0.4-4.3 0.6-6.5 0.1-0.6 0.2-1.3 0.3-1.9 1.8 0.2 3.5 0.5 5.3 0.5 1.8 0.1 3.5 0.3 5.2 0.8 2.4 0.5 4.6 1.3 6.8 2.4 1.1 0.6 2.1 1.4 2.1 2.9l-1.2 0.2h-1.2c-1.4 0.2-2.8 0.4-4.1 0.6z"/>
<path class="st15" d="m72.1 23.5c0.1-1.5-1-2.3-2.1-2.9-2.1-1.1-4.4-1.9-6.7-2.4-1.7-0.5-3.4-0.7-5.2-0.8-1.8 0-3.5-0.3-5.3-0.5v-1.4c0.2-0.1 0.4-0.1 0.6-0.1 7.7-0.1 15.2 0.8 22.4 3.6 1.3 0.7 2.9 0.7 4.2 0 0.8 0.3 1.5 0.7 2.3 1 1.3 0.4 2.5 1.1 3.6 1.9 0.4 0.3 0.9 0.5 1.3 0.7 0.7 0.3 1.3 0.6 1.4 1.4l-1-0.1-0.8-0.1-1.5-0.1-1.3-0.1h-2.5c-0.5-0.1-1.1-0.1-1.6-0.2-2.1 0-4.2 0.1-6.3 0.2l-1.5-0.1z"/>
<path class="st12" d="m39.7 23-0.4-0.2 0.4 0.2z"/>
<path class="st9" d="m25.4 101.4c-0.5 0-0.8 0.1-0.8 0.7s0 1.3 0 2c0 0.5 0 1-0.1 1.4-1.8-0.6-3.5-1.2-5.3-1.7-0.6-0.1-1.3-0.2-1.9-0.3-0.4-1.3-0.5-2.7-0.3-4.1 1.5-0.3 2.9 0.3 4.3 0.4 1 0.3 1.9 0.6 2.8 1 0.5 0.1 0.9 0.4 1.3 0.6z"/>
<path class="st11" d="m13.2 59.8 2.3-0.2-2.3 0.2z"/>
<path class="st22" d="m25 90.7-0.1-0.1c0.1 0 0.1 0 0.1 0.1z"/>
<path class="st18" d="m21.1 59.3-0.8-0.1c0.7-0.1 1.2-0.6 1.3-1.3 0.9-2.6 2.1-5.1 3.4-7.5 0.2-0.3 0.6-0.7 0.1-1.1 2.2-1 4.4-2.3 6.4-3.8 0.2 0.4 0.2 0.8-0.1 1.2-1.7 2.6-3 5.5-3.8 8.6-0.5 1.2-0.7 2.4-0.7 3.7l-5.8 0.3z"/>
<path class="st26" d="m40.6 42.5 8.4 3.8 2.8-4.3-6.7-3.5c0.6-0.4 1.2-0.9 1.8-1.3 1.2-0.6 2.5-1.1 3.8-1.3 1.3-0.4 2.8 0.1 3.5 1.2 0.8 1.1 1.4 2.2 2 3.5 0.3 0.7 0.4 1.4 0.4 2.1 0.2 1.3 0.3 2.6 0.3 3.9 0 1-0.1 2-0.5 3-0.6 1.4-1.3 2.7-2.1 4-0.8-0.1-1.2 0.5-1.7 1-1.2 0.2-2.2 0.8-3.5 0.9-1.9 0.2-3.7 1-5.8 0.3-1.7-0.6-3.6-0.5-5.2-1.8s-2.2-2.2-1.6-4.3c0.5-2.4 1.7-4.6 3.3-6.4 0.5-0.2 0.7-0.5 0.8-0.8z"/>
<path class="st23" d="m37.7 41.2 1.8 0.7c-0.5 0.4-1 0.9-1.4 1.4s-0.8 1.1-1.1 1.7c-1.5 2.4-2.5 5-3.1 7.8-0.4 1.1-0.2 2.3 0.5 3.3 1 1.1 2.2 2 3.6 2.5 2.4 0.9 5.1 1.3 7.7 1.2 1.1-0.1 2.2 0 3.3 0 0.4 0 0.8-0.1 1.2-0.2 0.9-0.3 1.8-0.6 2.8-0.9 0.2 1 0.8 1.9 1.5 2.6 0.2 0.2 0.4 0.5 0.6 0.8 0 0.7-0.5 0.8-1 1s-1.1 0-1.3 0.6c-1.6-1-1.6-1-2.7 0-0.8-0.1-1.7-0.1-2.5 0-1.7 0.3-3.4 0.4-5.1 0.2-1.4-0.1-2.7-0.3-4.1-0.6-1.6-0.4-3.2-1.1-4.6-2-0.4-0.2-0.9-0.4-1.3-0.4l0.2-2-2-0.1c-0.2-1.1-0.2-2.2 0-3.2 0.5-1.6 0.8-3.4 1.4-4.9 0.7-1.6 1.5-3.1 2.4-4.5 0.6-1.8 1.8-3.5 3.2-5z"/>
<path class="st23" d="m43.4 37.7-1-0.4c0.1-0.3 0.2-0.5 0.4-0.8 0.8-0.7 1.6-1.2 2.5-1.8 2.3-1.2 4.4-2.7 7-3.2 0.4-0.1 0.8-0.2 1.2-0.4 1.3-0.6 2.9-0.7 4.3-0.2 0.7 0.1 1.3 0.4 1.8 0.8 0.9 1 1.8 2.1 2.5 3.3 0.6 1.1 1.1 2.2 1.5 3.3 0.8 2.3 1.1 4.7 1 7.1-1 0.5-1.6 1.4-1.7 2.4-0.1 1.1-0.2 2.3-0.1 3.4 0 0.7 0.3 1.4 0.8 2 0.8 1 1.5 2.1 2.3 3.2 0 1.1-0.7 1.8-1.2 2.7-0.3 0.6-0.9 1-0.8 1.8l-5.3-4.4-0.2-0.2-0.4-0.3c0.8-1.3 1.6-2.7 2.4-4 0-0.1 0.1-0.2 0.1-0.2 0.4-2.3 1-4.7 0.8-7.1-0.1-1.1-0.2-2.2-0.4-3.2-0.7-2.7-2-5.2-3.8-7.3-0.7-0.8-1.7-1.2-2.7-1.1-1.7 0.1-3.3 0.5-4.8 1.2-2.3 1-4.5 1.8-6.2 3.4z"/>
<path class="st17" d="m64.4 45.3c0.1-2.4-0.2-4.8-1-7.1-0.4-1.2-0.9-2.3-1.4-3.3-0.7-1.2-1.6-2.3-2.5-3.3-0.5-0.4-1.2-0.7-1.8-0.8-1.4-0.5-3-0.4-4.3 0.2-0.4 0.2-0.8 0.3-1.2 0.4-2.6 0.5-4.7 2-7 3.2-0.9 0.5-1.7 1.1-2.5 1.8-0.2 0.2-0.3 0.5-0.4 0.8l-2-0.8c1-0.6 1.9-1.2 2.8-1.9 1.4-1.4 3-2.5 4.7-3.4 1.8-0.9 3.6-1.8 5.5-2.5 1.5-0.6 3.1-0.9 4.8-1 1.9-0.2 3.8 0.5 5.2 1.8 1.7 1.7 3 3.7 3.8 5.9 0.5 1.4 0.8 2.8 1 4.3 0.2 1.4 0.3 2.9 0.6 4.4 0.2 1 0.2 2.1 0 3.1-0.1 0.5-0.1 1-0.1 1.5l-1.1-1-3.1-2.3z"/>
<path class="st27" d="m43.4 37.7c1.8-1.7 4-2.5 6.1-3.5 1.5-0.7 3.1-1.1 4.8-1.2 1 0 2 0.4 2.7 1.2 1.8 2.1 3.1 4.6 3.8 7.3 0.2 1.1 0.4 2.1 0.4 3.2 0.3 2.4-0.4 4.8-0.8 7.1 0 0.1 0 0.2-0.1 0.2-0.8 1.3-1.6 2.7-2.4 4l-3.5-2.6c0.8-1.3 1.5-2.6 2.1-4 0.3-1 0.5-2 0.5-3 0-1.3-0.1-2.6-0.3-3.9 0-0.7-0.2-1.4-0.4-2.1-0.6-1.2-1.2-2.4-2-3.5-0.8-1.2-2.2-1.7-3.5-1.2-1.3 0.3-2.6 0.7-3.8 1.4-0.6 0.4-1.2 0.9-1.8 1.3l-1.8-0.7z"/>
<path class="st27" d="m52.8 58.8c-0.9 0.3-1.8 0.6-2.8 0.9-0.4 0.1-0.7 0.1-1.1 0.2-1.1 0-2.2-0.1-3.3 0-2.6 0.1-5.2-0.3-7.7-1.2-1.4-0.5-2.6-1.4-3.6-2.5-0.7-0.9-0.9-2.2-0.5-3.3 0.6-2.8 1.6-5.4 3.1-7.8 0.3-0.6 0.7-1.1 1.1-1.7l1.4-1.4 1.2 0.5c-0.1 0.3-0.3 0.6-0.5 0.9-1.7 1.8-2.8 4-3.3 6.4-0.5 2.1-0.1 3 1.6 4.3s3.4 1.2 5.2 1.8c2 0.7 3.8-0.2 5.8-0.3 1.2-0.1 2.3-0.8 3.5-0.9-0.1 1.2-0.1 2.6-0.1 4.1z"/>
<path class="st17" d="m37.7 41.2c-1.4 1.5-2.5 3.2-3.5 5-0.9 1.5-1.7 3-2.4 4.5-0.6 1.6-0.9 3.3-1.4 4.9-0.2 1.1-0.2 2.2 0 3.2h-3.5c0-1.3 0.2-2.5 0.7-3.7 0.8-3 2.1-5.9 3.8-8.6 0.3-0.3 0.3-0.8 0.1-1.2l5.1-4.8 1.1 0.7z"/>
<path class="st22" d="m119 33.9c0-0.2 0-0.3-0.1-0.5 0.5 0.2 1 0.4 1.4 0.7 1.9 1.7 3.8 3.5 5.6 5.3 1.6 1.6 3 3.3 4.5 5 0.1 0.2 0.2 0.4 0.2 0.6-1.8-0.6-3.4-1.5-4.7-2.8-2.5-2.2-4.7-4.8-6.4-7.6-0.2-0.3-0.3-0.5-0.5-0.7z"/>
<path class="st24" d="m82.4 61.9 1 0.8 1.3 1.5c0 0.3-0.1 0.6-0.2 0.9-1.2 2.8-2.7 5.4-4.4 7.9-0.8 1.2-1.8 2.3-2.8 3.4-1 1.2-2.4 2-4 2.3-1 0.3-2 0.8-3 0.7-0.2-0.8-0.3-1.5-0.5-2.2 1.5-0.2 2.9-0.7 4.1-1.4 1.5-1.1 2.8-2.6 3.7-4.2 1.6-2.5 2.8-5.2 4.1-7.8 0.5-0.7 0.6-1.3 0.7-1.9z"/>
<path class="st21" d="m70 77.1c0.2 0.7 0.3 1.5 0.5 2.2l-0.4 0.7-1-0.8-1.8-1.7-2.1-2-0.6-0.6-6-5.7c0.2-0.2 0.3-0.4 0.5-0.6 0.4-0.3 0.8-0.6 1.3-0.9 0.4 0.3 0.8 0.7 1.1 1l7.2 6.6 1.3 1.8z"/>
<path class="st24" d="m67.3 77.5 1.8 1.7c-0.9 0.8-2.1 0.6-3.2 0.7-0.8 0.1-1.6 0.1-2.5 0.1-0.5 0-1 0-1.5 0.1-0.7 0.1-1.4 0.2-2.1 0.3l-1.3-1.2c0.2-0.6 0.7-0.6 1.2-0.5 0.4 0.2 0.9 0.2 1.3 0.1 1.3-0.4 2.7-0.6 4-0.4 0.6 0 1.1-0.1 1.7-0.3 0.3-0.1 0.4-0.4 0.6-0.6z"/>
<path class="st28" d="m26.9 59h3.5l2 0.1c-0.1 0.7-0.1 1.4-0.2 2-0.2 2-0.5 3.9-0.7 5.8l-0.4 5.8-0.1 5.4 0.1 4.1v1.5c-0.4 0.1-0.8-0.2-0.9-0.7-0.2-0.7-0.4-1.4-0.6-2.2-0.8-3.6-1.9-7.1-3.4-10.5-0.7-1.7-1.7-3.3-2.6-4.9-0.8-1.4-1.6-2.8-2.3-4.2-0.2-0.6-0.3-1.2-0.3-1.8l5.9-0.4z"/>
<path class="st28" d="m58.6 69.2 6 5.7 0.6 0.6c-0.2 0.7-0.8 0.7-1.3 0.7-1.1 0.2-2.2 0.2-3.3 0.3l-4.4 0.5-0.4-0.3c0-0.1-0.1-0.1-0.2-0.2h-0.1l-3.7-4.1-2.4-4c-0.2-1.5-0.1-3.1 0.4-4.5 1-1 1-1 2.7 0l6.1 5.3z"/>
<path class="st21" d="m51.8 72.4 3.8 4.2c-1.8 0.2-3.5 0.3-5.2 0.5-2.2 0.2-4.4 0.3-6.7 0.2-1.5 0.1-3.1 0.3-4.6 0.5-1.4 0.2-2.7 0.4-4.1 0.5h-1l-3-0.3c0-1.8 0.1-3.6 0.1-5.3 0.7 0.1 1.3 0.2 2 0.3 3.3 0.1 6.6 0.2 9.9 0.2h2.8c1.3 0 2.5-0.1 3.7-0.3 0.9-0.2 1.7 0.1 2.3-0.5z"/>
<path class="st15" d="m56.2 77 4.3-0.4 3.3-0.3c0.5-0.1 1.1 0 1.3-0.7l2.1 2c-0.2 0.2-0.3 0.5-0.4 0.5-0.6 0.2-1.1 0.2-1.7 0.3-1.3-0.1-2.7 0-4 0.4-0.4 0.1-0.9 0.1-1.3-0.1-0.6-0.1-1-0.1-1.2 0.5l-2.4-2.2z"/>
<path class="st15" d="m55.7 76.5c0.1 0 0.1 0.1 0.2 0.2l-0.2-0.2z"/>
<path class="st5" d="m104.9 45.1c0.7-0.7 1.9-0.8 2.7-0.3 1 0.6 1.6 1.7 1.4 2.9-0.9 1.4-1.8 1.7-3 1.1s-1.8-2-1.3-3.3c0-0.1 0.1-0.2 0.2-0.4z"/>
<path class="st5" d="m109.6 39.7c0.9-1.4 2.8-1.5 4.6-0.7 2.1 1.1 3.3 3.3 3 5.7-0.6 1.6-2.4 2.5-4 1.9-0.1 0-0.1-0.1-0.2-0.1-2.8-0.9-4.3-4-3.4-6.8z"/>
<path class="st22" d="m85.2 23.7 1.5 0.1 0.8 0.1 1 0.1c1.5 0.3 3 0.5 4.4 0.8 0.2 0.1 0.5 0.1 0.7 0.2-0.7 0.1-1.5 0.2-2.2 0.3-0.7 0.2-1.3 0.4-1.9 0.6-1 0.4-1.9 0.8-2.9 1.1-0.5 0.1-0.9 0.5-0.9 1-0.1 0.7-0.3 1.3-0.7 1.9-0.8 1.4-1.6 2.7-2.4 4-0.2 0.2-0.3 0.5-0.3 0.8 0 1.7-0.2 3.4-0.5 5.1s-0.4 3.5-0.5 5.2c0 0.7 0.2 1.4 0.2 2.1 0.1 1.3 0.1 2.7 0.1 4 0 0.2-0.1 0.3-0.1 0.5 0.2 1.3 0.1 2.7-0.3 4-0.2 1.4-0.5 2.8-0.8 4.2l-3.5-3.3c0.4-1.6 0.7-3.2 0.9-4.9 0.2-2.3 0.1-4.6 0-7 0-0.6-0.2-1.3-0.2-1.9 0-1.3 0.1-2.5 0.2-3.8 0-0.3-0.1-0.7-0.1-1 0-1.9-1.2-3.7-0.6-5.7v-0.4c-0.5-2.5-1.4-4.9-2.8-7.1-0.3-0.7-1-1.1-1.7-1h-1.7l1.1-0.2h12l1.2 0.2z"/>
<path class="st13" d="m76.9 56.5 3.5 3.3 0.3 0.5c-0.2 0.5-0.4 0.9-0.6 1.4-1 2.3-2.1 4.5-3.1 6.7-0.3 0.6-0.5 1.3-1.3 1.4-0.4-1.1-0.9-2.2-1.5-3.3-1.3-1.7-2.8-3.3-4.2-4.9l-4.3-5.1c-0.8-1.1-1.5-2.2-2.3-3.2-0.5-0.6-0.8-1.3-0.8-2-0.1-1.1 0-2.3 0.1-3.4s0.8-2 1.7-2.4l2.9 2.3 1.1 1 4.6 4.3c1.4 1 2.6 2.2 3.9 3.4z"/>
<path class="st15" d="m75.7 69.7c0.8-0.1 1-0.8 1.3-1.4 1-2.2 2.1-4.5 3.1-6.7 0.2-0.5 0.4-0.9 0.6-1.4l0.8 0.7c0 0.1 0.1 0.1 0.2 0.2l0.3 0.3h0.1l0.5 0.5c-0.1 0.6-0.3 1.2-0.5 1.8-1.3 2.6-2.6 5.3-4.1 7.8-0.9 1.7-2.2 3.1-3.7 4.2-1.3 0.7-2.7 1.2-4.1 1.4l-1.3-1.8c0.7-0.2 1.3-0.4 2-0.6 1.9-0.6 3.4-2 4.2-3.9l0.9 0.5-0.3-1.6z"/>
<path class="st22" d="m95.7 25.3 0.8 0.2-0.8-0.2z"/>
<path class="st22" d="m94.4 25.1 0.8 0.2-0.8-0.2z"/>
<path class="st24" d="m81.6 61.1c-0.1 0-0.1-0.1-0.2-0.2l0.2 0.2z"/>
<path class="st24" d="m81.9 61.3-0.2-0.2 0.2 0.2z"/>
<path class="st24" d="m82.1 61.6-0.2-0.2 0.2 0.2z"/>
<path class="st21" d="m76.9 56.5c-1.3-1.2-2.5-2.4-3.8-3.6 0.5-3.7 0.6-7.5 0.5-11.2 0-0.9-0.2-1.8-0.5-2.7-0.6-2-0.8-4-1.3-6-0.8-2.9-2.4-5.5-4.7-7.4-0.4-0.4-1.3-0.4-1.3-1.2 1.3-0.2 2.7-0.4 4-0.5h1.2 1.7c0.7-0.1 1.4 0.3 1.7 1 1.3 2.2 2.3 4.6 2.8 7.1v0.4c-0.6 2 0.6 3.8 0.6 5.7 0 0.3 0.1 0.7 0.1 1 0 1.3-0.2 2.5-0.2 3.8 0 0.6 0.2 1.3 0.2 1.9 0 2.3 0.1 4.7 0 7-0.3 1.5-0.6 3.1-1 4.7z"/>
<path class="st10" d="m81.4 23.5h-7.9c2.1-0.1 4.2-0.1 6.3-0.2 0.6 0 1.1 0.1 1.6 0.2z"/>
<path class="st24" d="m85.2 23.7-1.3-0.1 1.3 0.1z"/>
<path class="st24" d="m87.5 23.9-0.8-0.1 0.8 0.1z"/>
<path class="st28" d="m74.9 70.8c-0.8 1.8-2.3 3.3-4.2 3.9-0.7 0.2-1.3 0.4-2 0.6l-7.2-6.6c-0.4-0.3-0.8-0.7-1.1-1l-5.5-5.5c-0.2-0.3-0.4-0.5-0.6-0.8-0.7-0.7-1.3-1.6-1.5-2.6 0-1.4 0-2.9 0.1-4.3 0.4-0.5 0.8-1.1 1.7-1l3.5 2.6 0.4 0.4 5.3 4.4 4.6 4c0.4 0.3 0.7 0.7 1.1 1l5.4 4.9z"/>
<path class="st17" d="m49.8 63.9c-0.5 1.5-0.6 3-0.4 4.5l-3.7 0.2h-1.3c-0.8-0.1-1.5-0.1-2.3-0.2-0.4 0-0.8 0-1.1-0.1-1.5-0.1-2.9-0.4-4.4-0.4-1.2 0-2.4-0.3-3.6-0.7-0.5-0.1-1-0.3-1.6-0.3 0.2-1.9 0.5-3.9 0.7-5.8 0.4 0.1 0.9 0.3 1.3 0.5 1.4 0.9 3 1.6 4.6 2 1.3 0.3 2.7 0.5 4.1 0.6 1.7 0.2 3.4 0.1 5.1-0.2 1-0.2 1.8-0.2 2.6-0.1z"/>
<path class="st17" d="m54.8 62.2 5.5 5.5c-0.4 0.3-0.8 0.6-1.3 0.9-0.2 0.2-0.4 0.4-0.5 0.6l-6.1-5.4c0.2-0.6 0.8-0.5 1.3-0.6s1.1-0.3 1.1-1z"/>
<path class="st20" d="m68.3 64.8-4.6-4c0-0.7 0.5-1.2 0.8-1.8 0.5-0.8 1.2-1.6 1.2-2.7l4.3 5.2-0.8 1.5-0.9 1.8z"/>
<path class="st27" d="m58.3 56.4-0.2-0.2 0.2 0.2z"/>
<path class="st20" d="m31.5 66.9c0.5 0.1 1.1 0.2 1.6 0.3 1.1 0.4 2.3 0.7 3.6 0.7 1.5 0 2.9 0.3 4.4 0.4 0.4 0 0.8 0 1.1 0.1 0.8 0.1 1.5 0.2 2.3 0.2h1.3l3.7-0.2 2.4 4c-0.6 0.7-1.4 0.4-2.1 0.5-1.2 0.3-2.5 0.4-3.7 0.3h-2.8c-3.3 0-6.6-0.1-9.9-0.2-0.7 0-1.3-0.1-2-0.3l0.1-5.8z"/>
<path class="st21" d="m68.3 64.8 0.9-1.8 0.8-1.5c1.4 1.6 2.9 3.2 4.2 4.9 0.6 1 1.1 2.1 1.5 3.3 0 0.5 0.1 0.9 0.1 1.6l-0.9-0.5-5.5-5c-0.4-0.3-0.8-0.6-1.1-1z"/>
</svg>
