<svg xmlns="http://www.w3.org/2000/svg" xmlns:xlink="http://www.w3.org/1999/xlink" viewBox="0 0 146 32" width="100%" height="100%">
				<path class="path1" fill="#248e45" d="M39.467 14.222c-4.825 0-6.095 3.657-6.146 3.708-0.254 0.711-0.203 2.387-0.203 2.387v10.26c0 0 0.203 1.27 1.219 1.27h1.219l-0.051-5.384c0 0 5.638 2.997 8.99-1.575 0.66-0.914 0.813-2.489 0.813-3.81s0-2.59-0.559-3.81c-0.711-1.422-2.438-3.048-5.283-3.048zM42.717 22.197c0 1.575-1.27 2.895-2.895 2.895h-1.321c-1.575 0-2.895-1.27-2.895-2.895v-2.438c0-1.575 1.27-2.895 2.895-2.895h1.321c1.575 0 2.895 1.27 2.895 2.895v2.438z"></path>
				<path class="path2" fill="#59565f" d="M19.048 14.222h2.032l3.708 10.768 3.251-8.838c0 0 0.711-1.778 1.981-1.778h1.219c-0.559 1.575-4.825 14.73-6.502 16.66-0.813 0.965-2.54 0.254-2.641-0.051v-1.524c0 0 0.559 0.102 0.914-0.457 0.406-0.559 0.863-1.727 0.863-1.727s-1.016-0.508-1.371-1.321c-0.356-0.813-3.657-10.311-3.657-10.311l0.203-1.422z"></path>
				<path class="path3" fill="#248e45" d="M113.524 14.222h2.032l3.708 10.768 3.251-8.838c0 0 0.711-1.778 1.981-1.778h1.219c-0.559 1.575-4.825 14.73-6.502 16.66-0.813 0.965-2.54 0.254-2.641-0.051v-1.524c0 0 0.559 0.102 0.914-0.457 0.406-0.559 0.864-1.727 0.864-1.727s-1.016-0.508-1.371-1.321c-0.356-0.813-3.657-10.311-3.657-10.311l0.203-1.422z"></path>
				<path class="path4" fill="#59565f" d="M2.032 27.429v-8.635c0 0 0.305-2.083 2.692-2.083s2.59 2.337 2.59 2.337v7.365c0 0 0.102 0.762 1.016 0.965 0.914 0.254 1.422 0 1.422 0v-8.432c0 0 0.152-2.337 2.59-2.337s2.641 2.337 2.641 2.337v7.314c0 0 0.254 0.914 1.067 1.016s1.27 0 1.27 0c0-2.692-0.102-5.333 0-8.025 0.102-2.54-1.524-4.978-4.267-4.978-3.454 0-4.571 1.625-4.571 1.625s-0.762-1.676-4.165-1.676c-1.981 0-3.454 1.27-4.317 2.895-0.559 1.067-0.406 2.438-0.356 3.606 0 1.27 0 2.59 0 3.86 0 0.305 0 0.61 0 0.863v0.711c0 0 0.254 1.067 1.117 1.117 0.864 0.152 1.27 0.152 1.27 0.152z"></path>
				<path class="path5" fill="#248e45" d="M77.003 14.222c-4.825 0-6.095 3.657-6.146 3.708-0.254 0.711-0.102 1.625-0.102 2.387 0 0.965 0 1.981 0 2.946 0 2.083 0 4.114 0 6.197 0 0.457-0.051 0.914 0 1.371 0 0 0.102 1.016 1.168 1.016h1.219l-0.051-5.384c0 0 1.016 1.067 3.911 1.067s4.368-1.575 5.079-2.641c0.762-1.117 0.813-2.489 0.813-3.81s0.102-2.641-0.559-3.81c-0.61-1.067-1.422-1.981-2.59-2.489-0.864-0.356-1.879-0.559-2.743-0.559zM80.254 22.197c0 1.575-1.27 2.895-2.895 2.895h-1.321c-1.575 0-2.895-1.27-2.895-2.895v-2.438c0-1.575 1.27-2.895 2.895-2.895h1.321c1.575 0 2.895 1.27 2.895 2.895v2.438z"></path>
				<path class="path6" fill="#248e45" d="M50.438 27.022v-8.686c0 0 0.102-1.422 0.914-1.625s1.524 0 2.032-0.254c0.508-0.254 0.508-0.914 0.508-1.27 0-0.305 0.051-0.965 0.051-0.965h-2.387c0 0-1.676 0.051-2.692 1.371-0.762 1.016-1.016 1.879-1.016 3.302 0 2.692 0 5.587 0 5.587s-0.102 2.235 1.168 2.489c0.711 0.152 1.422 0.051 1.422 0.051z"></path>
				<path class="path7" fill="#248e45" d="M101.232 27.022v-8.686c0 0 0.102-1.422 0.914-1.625s1.524 0 2.032-0.254c0.508-0.254 0.508-0.914 0.508-1.27 0-0.305 0.051-0.965 0.051-0.965h-2.387c0 0-1.676 0.051-2.692 1.371-0.762 1.016-1.016 1.879-1.016 3.302 0 2.692 0 5.587 0 5.587s-0.102 2.235 1.168 2.489c0.711 0.152 1.422 0.051 1.422 0.051z"></path>
				<path class="path8" fill="#248e45" d="M109.156 9.651h-1.067c0 0-1.321 0.102-1.321 1.575 0 0.508 0 9.143 0 10.108 0 1.219-0.102 2.438 0.406 3.556 0.152 0.305 0.305 0.559 0.508 0.813 0.152 0.203 0.356 0.406 0.559 0.559 1.168 0.813 2.032 0.762 2.032 0.762s0.711-0.457 0.813-1.067c0.102-0.61-0.102-0.965-0.102-0.965-0.406-0.152-0.813-0.406-1.168-0.66-0.559-0.406-0.66-1.117-0.66-1.778 0-1.422 0-2.844 0.051-4.267 0-0.559 0.051-1.168 0.051-1.727h1.778c0 0 0.711 0.102 1.067-0.406 0.305-0.508 0.254-0.762 0.254-0.762v-1.168h-3.098v-4.571z"></path>
				<path class="path9" fill="#248e45" d="M94.171 23.467c-0.406 0.66-1.371 1.829-3.403 1.829-2.083 0-3.098-1.219-3.454-1.829v-1.27h5.232c0.914 0 2.032-0.559 2.59-1.27 0.61-0.711 0.914-1.676 0.914-2.59 0-0.457-0.051-1.016-0.203-1.422-0.152-0.356-0.356-0.813-0.66-1.117-1.067-1.117-2.895-1.575-4.419-1.575-1.371 0-2.743 0.305-3.86 1.117-0.813 0.559-1.371 1.321-1.829 2.184-0.305 0.508-0.508 1.016-0.508 1.625 0 0.305-0.051 4.216 0.152 4.571 0.254 0.61 1.829 3.911 5.994 3.911 2.997 0 4.673-1.727 5.486-2.895l-2.032-1.27zM87.314 18.54c0.356-0.762 1.27-2.032 3.556-2.032 0.102 0 0.203 0 0.254 0 0.152 0.051 0.406 0.051 0.66 0.102 1.321 0.203 2.337 1.422 1.473 2.692-0.406 0.559-1.168 0.559-1.778 0.559-1.117 0-2.184-0.051-3.302 0-0.305 0-0.559 0-0.864 0v-1.321z"></path>
				<path class="path10" fill="#248e45" d="M94.171 23.467c-1.27 2.438-5.537 2.387-6.857-0.051v-1.27h5.232c0.914 0 2.032-0.559 2.59-1.27 0.61-0.711 0.914-1.676 0.914-2.59 0-0.457-0.051-1.016-0.203-1.422-0.152-0.356-0.356-0.813-0.66-1.117-1.067-1.117-2.895-1.575-4.419-1.575-1.371 0-2.743 0.305-3.86 1.117-0.813 0.559-1.371 1.321-1.829 2.184-0.305 0.508-0.508 1.016-0.508 1.625 0 0-0.051 4.216 0.152 4.571 3.352 6.451 10.108 3.352 11.479 0.965l-2.032-1.168zM87.314 18.54c0.356-0.762 1.27-2.032 3.556-2.032 0.102 0 0.203 0 0.254 0 0.152 0.051 0.406 0.051 0.66 0.102 1.321 0.203 2.337 1.422 1.473 2.692-0.406 0.559-1.168 0.559-1.778 0.559-1.117 0-2.184-0.051-3.302 0-0.305 0-0.559 0-0.864 0v-1.321z"></path>
				<path class="path11" fill="#248e45" d="M137.702 1.727l-1.067-1.727-1.067 1.727c-3.911 0.406-7.162 3.149-8.33 6.756h18.743c-1.168-3.606-4.368-6.349-8.279-6.756z"></path>
				<path class="path12" fill="#248e45" d="M146.133 9.854h-3.149c0.051 0.356 0.102 0.711 0.102 1.067 0 3.556-2.895 6.451-6.451 6.451s-6.451-2.895-6.451-6.451c0-0.356 0.051-0.711 0.102-1.067h-3.149c-0.051 0.356-0.051 0.711-0.051 1.067 0 2.59 1.016 4.927 2.743 6.654 0 0-3.352 9.651-3.352 9.651 1.067 0 1.625-0.863 2.337-1.575 0.863-0.965 4.622-5.79 4.724-5.74 0.965 0.356 2.032 0.508 3.098 0.508 5.283 0 9.549-4.267 9.549-9.549 0-0.305-0.051-0.66-0.051-1.016z"></path>
				<path class="path13" fill="#248e45" d="M141.003 12.8c0 0-0.356-0.152-0.813-0.102s-0.914 0.406-0.914 0.406v0c-0.203 0.152-0.406 0.305-0.61 0.457-0.559 0.356-1.168 0.508-1.778 0.508s-1.27-0.152-1.778-0.508c-0.203-0.102-0.356-0.254-0.559-0.406 0 0-0.457-0.356-0.914-0.406s-0.813 0.102-0.813 0.102 0.152 0.559 0.457 0.914c0.508 0.66 1.575 1.676 3.556 1.676 1.168 0 2.286-0.356 3.149-1.168 0.254-0.254 0.508-0.559 0.66-0.864 0.102 0 0.406-0.559 0.356-0.61z"></path>
				<path class="path14" fill="#59565f" d="M136.533 23.771c-2.184 0-2.743 1.625-2.743 1.676-0.102 0.305-0.051 0.711-0.051 1.067 0 0.457 0 0.914 0 1.321 0 0.914 0 1.879 0 2.794 0 0.203 0 0.406 0 0.61 0 0 0.051 0.457 0.508 0.457h0.559v-2.438c0 0 0.457 0.508 1.778 0.508s1.93-0.711 2.286-1.168c0.356-0.508 0.356-1.117 0.356-1.727 0-0.559 0.051-1.168-0.254-1.727-0.305-0.457-0.66-0.863-1.168-1.117-0.406-0.152-0.863-0.254-1.27-0.254zM138.006 27.378c0 0.711-0.559 1.27-1.27 1.27h-0.61c-0.711 0-1.27-0.559-1.27-1.27v-1.067c0-0.711 0.559-1.27 1.27-1.27h0.61c0.711 0 1.27 0.559 1.27 1.27v1.067z"></path>
				<path class="path15" fill="#59565f" d="M131.2 29.714c0-0.305-0.152-1.168 0.305-1.27 0.254-0.051 0.813 0 0.813 0v0.762c0 0.203-0.203 0.508-0.457 0.508-0.356 0-0.66 0-0.66 0z"></path>
				<path class="path16" fill="#59565f" d="M141.46 21.892h-0.61c0 0-0.508 0.152-0.508 0.61v6.552c0 0 0.102 0.61 0.559 0.61h0.559v-3.962c0 0 0.406-0.863 1.524-0.863 0.813 0 1.422 0.559 1.422 1.371 0 0.762 0 1.473 0 2.235 0 0.203 0 0.406 0 0.61 0 0 0 0.559 0.508 0.559h0.559c0-1.067 0-2.184 0-3.251 0-0.406 0-0.813-0.152-1.168s-0.406-0.66-0.711-0.914c-0.457-0.406-1.168-0.559-1.778-0.508-0.406 0.051-0.965 0.102-1.321 0.305-0.051 0.051-0.102 0.051-0.152 0.102h-0.051l0.152-2.286z"></path>
				<path class="path17" fill="#248e45" d="M67.657 20.825c0 0 0-0.051 0-0.051 0-0.914 0.051-2.133-0.254-2.794-1.219-2.743-3.098-3.759-5.841-3.759s-4.622 1.016-5.841 3.759c-0.305 0.66-0.254 1.879-0.254 2.794 0 0 0 0.051 0 0.051s0 0.051 0 0.051c0 0.914-0.051 2.133 0.254 2.794 1.219 2.743 3.098 3.759 5.841 3.759s4.622-1.016 5.841-3.759c0.305-0.66 0.254-1.879 0.254-2.794 0 0 0-0.051 0-0.051zM65.117 20.927v0.356c0 0.406 0 1.168-0.051 1.473-0.711 1.625-1.625 2.184-3.505 2.184s-2.794-0.559-3.505-2.184c-0.051-0.305-0.051-1.067-0.051-1.473v-0.863c0-0.406 0-1.168 0.051-1.473 0.711-1.625 1.625-2.184 3.505-2.184s2.794 0.559 3.505 2.184c0.051 0.305 0.051 1.067 0.051 1.473v0.508z"></path>
			</svg>