<svg xmlns="http://www.w3.org/2000/svg" xmlns:xlink="http://www.w3.org/1999/xlink" viewBox="0 0 184.33 109.63"><defs><style>.cls-1{fill:#fff;}.cls-2{fill:url(#linear-gradient);}.cls-3{fill:url(#linear-gradient-2);}.cls-4{fill:url(#linear-gradient-3);}</style><linearGradient id="linear-gradient" x1="318.11" y1="609.78" x2="318.11" y2="609.07" gradientTransform="matrix(44.26, 0, 0, -29.65, -13936.79, 18160.24)" gradientUnits="userSpaceOnUse"><stop offset="0" stop-color="#fbbc48"/><stop offset="1" stop-color="#c89547"/></linearGradient><linearGradient id="linear-gradient-2" x1="313.61" y1="610.03" x2="313.61" y2="609.31" gradientTransform="matrix(31.59, 0, 0, -30.73, -9735.26, 18824.28)" xlink:href="#linear-gradient"/><linearGradient id="linear-gradient-3" x1="324.38" y1="614.72" x2="324.38" y2="614" gradientTransform="matrix(64.95, 0, 0, -67.6, -20975.27, 41559.34)" xlink:href="#linear-gradient"/></defs><title>propertypro</title><g id="Layer_2" data-name="Layer 2"><g id="Layer_1-2" data-name="Layer 1"><path id="a" class="cls-1" d="M0,77.57H8.19a10,10,0,0,1,3.69.58,6.12,6.12,0,0,1,2.29,1.47,4.86,4.86,0,0,1,1.16,2,7.14,7.14,0,0,1,0,4.29,5,5,0,0,1-1.16,2,6.47,6.47,0,0,1-2.29,1.47A10.2,10.2,0,0,1,8.19,90h-5v9.77H0V77.57ZM3.16,80.2v7.14H7.31a12.29,12.29,0,0,0,1.82-.14,5.16,5.16,0,0,0,1.61-.52,2.89,2.89,0,0,0,1.14-1.08,4.11,4.11,0,0,0,0-3.66,2.89,2.89,0,0,0-1.14-1.08,4.69,4.69,0,0,0-1.61-.52,11.07,11.07,0,0,0-1.82-.14Z"/><path id="b" class="cls-1" d="M69.33,85.29a8.28,8.28,0,0,1,3.22-.61,7.79,7.79,0,0,1,3.51.71,7,7,0,0,1,2.35,1.85,7.21,7.21,0,0,1,1.33,2.58,10.35,10.35,0,0,1,.41,2.92v1H67.65a3.85,3.85,0,0,0,.44,1.82A4.51,4.51,0,0,0,69.26,97a5.43,5.43,0,0,0,1.68.91,6.25,6.25,0,0,0,2,.32,4.49,4.49,0,0,0,2.41-.63,7.63,7.63,0,0,0,1.87-1.66l2.24,1.68a8.33,8.33,0,0,1-6.91,3.13,8.72,8.72,0,0,1-3.34-.62,7.12,7.12,0,0,1-2.53-1.69,7.38,7.38,0,0,1-1.6-2.55,8.93,8.93,0,0,1-.56-3.18,8.15,8.15,0,0,1,.61-3.18A8,8,0,0,1,66.78,87a7.63,7.63,0,0,1,2.55-1.69ZM68,89.89a3.89,3.89,0,0,0-.34,1.56H77a5.93,5.93,0,0,0-.31-1.77,4,4,0,0,0-.84-1.41,3.86,3.86,0,0,0-1.4-.93,5.11,5.11,0,0,0-2-.34,5,5,0,0,0-2,.4,4.79,4.79,0,0,0-1.52,1,5,5,0,0,0-1,1.44Z"/><path id="c" class="cls-1" d="M89.14,84.89a5.25,5.25,0,0,0-1.27.58,4.68,4.68,0,0,0-1.05.88,4,4,0,0,0-.76,1.14H86V85.07H83.18v15.68H86V92.88a5.61,5.61,0,0,1,1.1-3.81,4.06,4.06,0,0,1,3.17-1.22,3.23,3.23,0,0,1,.69.07c.23,0,.46.1.69.16l.12-3.21a3.79,3.79,0,0,0-1.25-.19,4.72,4.72,0,0,0-1.38.21Z"/><path id="d" class="cls-1" d="M97.29,80.45v4.36H93.88v2.56h3.41v8.1c0,.63,0,1.26.08,1.88A3.94,3.94,0,0,0,97.89,99a3.34,3.34,0,0,0,1.38,1.23,5.87,5.87,0,0,0,2.64.48,9.7,9.7,0,0,0,1.29-.12,3.64,3.64,0,0,0,1.36-.41V97.53a3.05,3.05,0,0,1-1,.36,5.79,5.79,0,0,1-1.08.1,2.25,2.25,0,0,1-1.3-.31,1.9,1.9,0,0,1-.66-.82,3.47,3.47,0,0,1-.24-1.15q0-.64,0-1.29v-7h4.23V84.81h-4.23V80.45Z"/><path id="e" class="cls-1" d="M118.51,85.77l-4.42,11.49H114l-4.61-11.49H106l6.44,14.82-1,2.32a10.83,10.83,0,0,1-.45,1,3.12,3.12,0,0,1-.58.76,2.18,2.18,0,0,1-.81.49,3.29,3.29,0,0,1-1.16.18,4.84,4.84,0,0,1-1.76-.35l-.36,2.55a5.1,5.1,0,0,0,1.29.33,11.73,11.73,0,0,0,1.33.07,5.84,5.84,0,0,0,2-.31,4,4,0,0,0,1.42-.87,5.44,5.44,0,0,0,1-1.35,18.07,18.07,0,0,0,.81-1.75l7.39-17.89Z"/><path id="h" class="cls-1" d="M23.64,84.89a5.25,5.25,0,0,0-1.27.58,4.68,4.68,0,0,0-1.05.88,4,4,0,0,0-.76,1.14H20.5V85.07H17.68v15.68H20.5V92.88a5.56,5.56,0,0,1,1.1-3.81,4,4,0,0,1,3.17-1.22,3.3,3.3,0,0,1,.69.07c.23,0,.45.1.68.16l.13-3.21A3.79,3.79,0,0,0,25,84.68a4.72,4.72,0,0,0-1.38.21Z"/><path id="i" class="cls-1" d="M33.26,85.31a8.83,8.83,0,0,1,6.55,0A8.25,8.25,0,0,1,42.45,87a8.11,8.11,0,0,1,1.77,2.55,7.63,7.63,0,0,1,.65,3.13,7.89,7.89,0,0,1-2.42,5.7,8.47,8.47,0,0,1-5.91,2.34,8.52,8.52,0,0,1-3.28-.63,8.39,8.39,0,0,1-2.64-1.71,7.75,7.75,0,0,1-1.77-2.55,7.93,7.93,0,0,1-.65-3.15,7.63,7.63,0,0,1,.65-3.13,8.14,8.14,0,0,1,4.41-4.27Zm1.13,12.32a5.84,5.84,0,0,0,4.3,0,4.69,4.69,0,0,0,1.61-1.09,4.79,4.79,0,0,0,1-1.68,6.57,6.57,0,0,0,0-4.29,4.62,4.62,0,0,0-1-1.68,4.67,4.67,0,0,0-1.61-1.1,6,6,0,0,0-4.3,0,4.79,4.79,0,0,0-1.62,1.1,4.62,4.62,0,0,0-1,1.68,6.57,6.57,0,0,0,0,4.29,4.79,4.79,0,0,0,1,1.68,4.73,4.73,0,0,0,1.62,1.09Z"/><path id="j" class="cls-1" d="M51.86,85.36A7.54,7.54,0,0,1,55,84.68a8.63,8.63,0,0,1,3.33.61A7.48,7.48,0,0,1,60.87,87a7.88,7.88,0,0,1,1.62,2.58,8.71,8.71,0,0,1,.57,3.17,8.87,8.87,0,0,1-.57,3.2,7.39,7.39,0,0,1-4.17,4.27,8.63,8.63,0,0,1-3.33.62,7.58,7.58,0,0,1-3.21-.7,5.55,5.55,0,0,1-2.31-1.9H49.4v11.37h-3V85.07h3v2.21h.07A5.64,5.64,0,0,1,51.86,85.36ZM53,97.72a5.65,5.65,0,0,0,2.18.41,5.56,5.56,0,0,0,2.17-.41A4.69,4.69,0,0,0,59,96.62a4.76,4.76,0,0,0,1-1.69,6.49,6.49,0,0,0,0-4.32,4.71,4.71,0,0,0-2.68-2.8,5.56,5.56,0,0,0-2.17-.4,5.64,5.64,0,0,0-2.18.4,4.85,4.85,0,0,0-1.64,1.11,4.8,4.8,0,0,0-1,1.69,6.49,6.49,0,0,0,0,4.32,4.89,4.89,0,0,0,1,1.69A5,5,0,0,0,53,97.72Z"/><path class="cls-2" d="M128.93,80.45l-3.05,22.14h2l1.45-10.5h4.72a9.35,9.35,0,0,0,2.52-.35,7.18,7.18,0,0,0,2.24-1,6.3,6.3,0,0,0,1.7-1.79,6.69,6.69,0,0,0,.91-2.6,5.31,5.31,0,0,0-.26-2.86,4.33,4.33,0,0,0-1.45-1.8,6,6,0,0,0-2.16-.92,11.78,11.78,0,0,0-2.36-.27Zm1.79,1.88h4.51a6.43,6.43,0,0,1,1.69.22,3.73,3.73,0,0,1,1.44.7,3.08,3.08,0,0,1,.91,1.24,3.52,3.52,0,0,1,.15,1.81,4.33,4.33,0,0,1-.66,1.85,4.23,4.23,0,0,1-1.22,1.2A5,5,0,0,1,136,90a7.85,7.85,0,0,1-1.73.2h-4.63Zm15.11-1.88-3.13,22.14h2.09l1.48-10.5h3.89l4.81,10.5h2.38l-5-10.63a12.3,12.3,0,0,0,2-.44,6.94,6.94,0,0,0,2-1A6.49,6.49,0,0,0,158,88.9a6.15,6.15,0,0,0,.91-2.63,5.65,5.65,0,0,0-.12-2.44,4.08,4.08,0,0,0-1-1.66,4.48,4.48,0,0,0-1.5-1,9.4,9.4,0,0,0-1.72-.5,12.92,12.92,0,0,0-1.63-.19l-1.21,0Zm1.83,1.88h4.43a6.87,6.87,0,0,1,2.61.4,3.77,3.77,0,0,1,1.46,1,2.56,2.56,0,0,1,.6,1.28,4.06,4.06,0,0,1,0,1.25,5.94,5.94,0,0,1-.4,1.25,3.78,3.78,0,0,1-.95,1.28,5.14,5.14,0,0,1-1.74,1,7.93,7.93,0,0,1-2.73.41h-4.43Z"/><path id="l" class="cls-3" d="M170.78,101.86a11.66,11.66,0,0,1-4.51-.85,9,9,0,0,1-3.35-2.37A8.81,8.81,0,0,1,161.06,95a11.93,11.93,0,0,1-.19-4.61,13.67,13.67,0,0,1,1.55-4.6,13.11,13.11,0,0,1,2.92-3.62,13.5,13.5,0,0,1,8.87-3.26,11.72,11.72,0,0,1,4.6.86,8.75,8.75,0,0,1,5.19,6,11.15,11.15,0,0,1,.17,4.6A13.11,13.11,0,0,1,175.71,101a13.61,13.61,0,0,1-4.75.85Zm-3.51-2.59a9.41,9.41,0,0,0,3.85.74,11.12,11.12,0,0,0,4.08-.74,10.7,10.7,0,0,0,3.31-2,10.92,10.92,0,0,0,2.35-3,11.59,11.59,0,0,0,1.21-3.79,10.43,10.43,0,0,0-.11-3.8,7.08,7.08,0,0,0-4.17-5.09,9.51,9.51,0,0,0-3.87-.74,11.07,11.07,0,0,0-4.07.74,10.58,10.58,0,0,0-3.31,2,11,11,0,0,0-2.36,3,11.57,11.57,0,0,0-1.21,3.8,10.15,10.15,0,0,0,.13,3.79,7.53,7.53,0,0,0,1.46,3,7.15,7.15,0,0,0,2.71,2Z"/><path class="cls-4" d="M68.49,19.76l-.22.18V50.75h11l0,.14h3.4l2.75-12.83H89.2c9,0,13.59-3.79,13.59-11.25a7.67,7.67,0,0,0-2.51-6.15c-1.64-1.4-4-2.11-7-2.11H86.1L80,47.56H71.46V21.45L92.72,4.11,114,21.45V47.56H94.63v3.19h22.53V19.94L93.71.8l-1-.8Zm20.35,1.92h4c4.32,0,6.42,1.72,6.42,5.26,0,2.76-.8,4.8-2.37,6.05s-4.16,1.93-7.59,1.93H86Z"/></g></g></svg>